G04 #@! TF.GenerationSoftware,KiCad,Pcbnew,5.1.8+dfsg1-1~bpo10+1*
G04 #@! TF.CreationDate,2020-11-24T20:11:20+01:00*
G04 #@! TF.ProjectId,armpofo_cpu,61726d70-6f66-46f5-9f63-70752e6b6963,rev?*
G04 #@! TF.SameCoordinates,PX3938700PY42c1d80*
G04 #@! TF.FileFunction,Legend,Bot*
G04 #@! TF.FilePolarity,Positive*
%FSLAX46Y46*%
G04 Gerber Fmt 4.6, Leading zero omitted, Abs format (unit mm)*
G04 Created by KiCad (PCBNEW 5.1.8+dfsg1-1~bpo10+1) date 2020-11-24 20:11:20*
%MOMM*%
%LPD*%
G01*
G04 APERTURE LIST*
%ADD10C,0.150000*%
%ADD11C,0.120000*%
G04 APERTURE END LIST*
D10*
G04 #@! TO.C,J8*
X178500000Y-37700000D02*
X178500000Y-40700000D01*
X179400000Y-37250000D02*
X179100000Y-37250000D01*
X179400000Y-36950000D02*
X179400000Y-37250000D01*
X179100000Y-36950000D02*
X179400000Y-36950000D01*
X179100000Y-37250000D02*
X179100000Y-36950000D01*
X179500000Y-42250000D02*
X186700000Y-42250000D01*
X192500000Y-42250000D02*
X189500000Y-42250000D01*
X192500000Y-39550000D02*
X192500000Y-42250000D01*
X189500000Y-27550000D02*
X191800000Y-27550000D01*
X186700000Y-27550000D02*
X179500000Y-27550000D01*
X178500000Y-37700000D02*
X177200000Y-37700000D01*
X192200000Y-38500000D02*
X192500000Y-39550000D01*
X192000000Y-37400000D02*
X192200000Y-38500000D01*
X191850000Y-36250000D02*
X192000000Y-37400000D01*
X191800000Y-34900000D02*
X191850000Y-36250000D01*
X191800000Y-27550000D02*
X191800000Y-34900000D01*
D11*
G04 #@! TO.C,D3*
X181180223Y-46780330D02*
X182795962Y-45164591D01*
X182219670Y-47819777D02*
X181180223Y-46780330D01*
X183835409Y-46204038D02*
X182219670Y-47819777D01*
G04 #@! TO.C,J1*
X187487500Y-19400000D02*
X187937500Y-19400000D01*
X187487500Y-19400000D02*
X187487500Y-19850000D01*
X188037500Y-25000000D02*
X188037500Y-24550000D01*
X189887500Y-25000000D02*
X188037500Y-25000000D01*
X192437500Y-17200000D02*
X192187500Y-17200000D01*
X192437500Y-25000000D02*
X192187500Y-25000000D01*
X189887500Y-17200000D02*
X188037500Y-17200000D01*
X188037500Y-17200000D02*
X188037500Y-17650000D01*
G04 #@! TO.C,J11*
X100645000Y-6040000D02*
X100645000Y-5500000D01*
X100645000Y-5500000D02*
X101670000Y-5500000D01*
X101670000Y-5500000D02*
X101670000Y-4390000D01*
X101670000Y-4390000D02*
X73530000Y-4390000D01*
X73530000Y-4390000D02*
X73530000Y-5500000D01*
X73530000Y-5500000D02*
X74555000Y-5500000D01*
X74555000Y-5500000D02*
X74555000Y-6040000D01*
X76710000Y-10010000D02*
X77535000Y-10010000D01*
X77535000Y-10010000D02*
X77535000Y-11810000D01*
X97665000Y-10010000D02*
X98490000Y-10010000D01*
G04 #@! TO.C,D3*
D10*
X182289255Y-45258578D02*
X181794280Y-44763603D01*
X181676429Y-44881455D01*
X181629289Y-44975735D01*
X181629289Y-45070016D01*
X181652859Y-45140727D01*
X181723570Y-45258578D01*
X181794280Y-45329289D01*
X181912132Y-45400000D01*
X181982842Y-45423570D01*
X182077123Y-45423570D01*
X182171404Y-45376429D01*
X182289255Y-45258578D01*
X181346446Y-45211438D02*
X181040033Y-45517851D01*
X181393587Y-45541421D01*
X181322876Y-45612132D01*
X181299306Y-45682842D01*
X181299306Y-45729983D01*
X181322876Y-45800693D01*
X181440727Y-45918544D01*
X181511438Y-45942115D01*
X181558578Y-45942115D01*
X181629289Y-45918544D01*
X181770710Y-45777123D01*
X181794280Y-45706412D01*
X181794280Y-45659272D01*
G04 #@! TD*
M02*
