G04 #@! TF.GenerationSoftware,KiCad,Pcbnew,5.1.8+dfsg1-1~bpo10+1*
G04 #@! TF.CreationDate,2020-11-24T20:11:20+01:00*
G04 #@! TF.ProjectId,armpofo_cpu,61726d70-6f66-46f5-9f63-70752e6b6963,rev?*
G04 #@! TF.SameCoordinates,PX3938700PY42c1d80*
G04 #@! TF.FileFunction,Copper,L1,Top*
G04 #@! TF.FilePolarity,Positive*
%FSLAX46Y46*%
G04 Gerber Fmt 4.6, Leading zero omitted, Abs format (unit mm)*
G04 Created by KiCad (PCBNEW 5.1.8+dfsg1-1~bpo10+1) date 2020-11-24 20:11:20*
%MOMM*%
%LPD*%
G01*
G04 APERTURE LIST*
G04 #@! TA.AperFunction,SMDPad,CuDef*
%ADD10R,2.200000X3.900000*%
G04 #@! TD*
G04 #@! TA.AperFunction,SMDPad,CuDef*
%ADD11R,0.900000X0.800000*%
G04 #@! TD*
G04 #@! TA.AperFunction,ComponentPad*
%ADD12C,3.000000*%
G04 #@! TD*
G04 #@! TA.AperFunction,ComponentPad*
%ADD13C,3.800000*%
G04 #@! TD*
G04 #@! TA.AperFunction,ComponentPad*
%ADD14C,1.450000*%
G04 #@! TD*
G04 #@! TA.AperFunction,ComponentPad*
%ADD15O,1.900000X1.200000*%
G04 #@! TD*
G04 #@! TA.AperFunction,ComponentPad*
%ADD16R,1.700000X1.700000*%
G04 #@! TD*
G04 #@! TA.AperFunction,SMDPad,CuDef*
%ADD17R,0.610000X2.000000*%
G04 #@! TD*
G04 #@! TA.AperFunction,SMDPad,CuDef*
%ADD18R,2.680000X3.600000*%
G04 #@! TD*
G04 #@! TA.AperFunction,ComponentPad*
%ADD19O,1.700000X1.700000*%
G04 #@! TD*
G04 #@! TA.AperFunction,SMDPad,CuDef*
%ADD20R,0.800000X0.900000*%
G04 #@! TD*
G04 #@! TA.AperFunction,SMDPad,CuDef*
%ADD21R,0.650000X1.060000*%
G04 #@! TD*
G04 #@! TA.AperFunction,SMDPad,CuDef*
%ADD22R,1.060000X0.650000*%
G04 #@! TD*
G04 #@! TA.AperFunction,SMDPad,CuDef*
%ADD23R,1.200000X1.400000*%
G04 #@! TD*
G04 #@! TA.AperFunction,ComponentPad*
%ADD24C,1.000000*%
G04 #@! TD*
G04 #@! TA.AperFunction,SMDPad,CuDef*
%ADD25R,6.000000X2.500000*%
G04 #@! TD*
G04 #@! TA.AperFunction,SMDPad,CuDef*
%ADD26R,3.000000X1.524000*%
G04 #@! TD*
G04 #@! TA.AperFunction,SMDPad,CuDef*
%ADD27R,2.000000X1.200000*%
G04 #@! TD*
G04 #@! TA.AperFunction,ComponentPad*
%ADD28R,1.000000X1.000000*%
G04 #@! TD*
G04 #@! TA.AperFunction,ComponentPad*
%ADD29O,1.000000X1.000000*%
G04 #@! TD*
G04 #@! TA.AperFunction,ViaPad*
%ADD30C,0.600000*%
G04 #@! TD*
G04 #@! TA.AperFunction,Conductor*
%ADD31C,1.000000*%
G04 #@! TD*
G04 #@! TA.AperFunction,Conductor*
%ADD32C,0.200000*%
G04 #@! TD*
G04 #@! TA.AperFunction,Conductor*
%ADD33C,0.300000*%
G04 #@! TD*
G04 #@! TA.AperFunction,Conductor*
%ADD34C,0.800000*%
G04 #@! TD*
G04 #@! TA.AperFunction,Conductor*
%ADD35C,0.500000*%
G04 #@! TD*
G04 #@! TA.AperFunction,Conductor*
%ADD36C,0.400000*%
G04 #@! TD*
G04 #@! TA.AperFunction,Conductor*
%ADD37C,0.250000*%
G04 #@! TD*
G04 #@! TA.AperFunction,Conductor*
%ADD38C,0.600000*%
G04 #@! TD*
G04 #@! TA.AperFunction,Conductor*
%ADD39C,0.100000*%
G04 #@! TD*
G04 APERTURE END LIST*
G04 #@! TO.P,C19,1*
G04 #@! TO.N,/USB5V*
G04 #@! TA.AperFunction,SMDPad,CuDef*
G36*
G01*
X162899999Y-23240000D02*
X165100001Y-23240000D01*
G75*
G02*
X165350000Y-23489999I0J-249999D01*
G01*
X165350000Y-24140001D01*
G75*
G02*
X165100001Y-24390000I-249999J0D01*
G01*
X162899999Y-24390000D01*
G75*
G02*
X162650000Y-24140001I0J249999D01*
G01*
X162650000Y-23489999D01*
G75*
G02*
X162899999Y-23240000I249999J0D01*
G01*
G37*
G04 #@! TD.AperFunction*
G04 #@! TO.P,C19,2*
G04 #@! TO.N,GND*
G04 #@! TA.AperFunction,SMDPad,CuDef*
G36*
G01*
X162899999Y-26190000D02*
X165100001Y-26190000D01*
G75*
G02*
X165350000Y-26439999I0J-249999D01*
G01*
X165350000Y-27090001D01*
G75*
G02*
X165100001Y-27340000I-249999J0D01*
G01*
X162899999Y-27340000D01*
G75*
G02*
X162650000Y-27090001I0J249999D01*
G01*
X162650000Y-26439999D01*
G75*
G02*
X162899999Y-26190000I249999J0D01*
G01*
G37*
G04 #@! TD.AperFunction*
G04 #@! TD*
G04 #@! TO.P,R29,1*
G04 #@! TO.N,Net-(J1-Pad2)*
G04 #@! TA.AperFunction,SMDPad,CuDef*
G36*
G01*
X185855000Y-20975000D02*
X185855000Y-21525000D01*
G75*
G02*
X185655000Y-21725000I-200000J0D01*
G01*
X185255000Y-21725000D01*
G75*
G02*
X185055000Y-21525000I0J200000D01*
G01*
X185055000Y-20975000D01*
G75*
G02*
X185255000Y-20775000I200000J0D01*
G01*
X185655000Y-20775000D01*
G75*
G02*
X185855000Y-20975000I0J-200000D01*
G01*
G37*
G04 #@! TD.AperFunction*
G04 #@! TO.P,R29,2*
G04 #@! TO.N,/USB-DM*
G04 #@! TA.AperFunction,SMDPad,CuDef*
G36*
G01*
X184205000Y-20975000D02*
X184205000Y-21525000D01*
G75*
G02*
X184005000Y-21725000I-200000J0D01*
G01*
X183605000Y-21725000D01*
G75*
G02*
X183405000Y-21525000I0J200000D01*
G01*
X183405000Y-20975000D01*
G75*
G02*
X183605000Y-20775000I200000J0D01*
G01*
X184005000Y-20775000D01*
G75*
G02*
X184205000Y-20975000I0J-200000D01*
G01*
G37*
G04 #@! TD.AperFunction*
G04 #@! TD*
G04 #@! TO.P,R28,2*
G04 #@! TO.N,/USB-DP*
G04 #@! TA.AperFunction,SMDPad,CuDef*
G36*
G01*
X184205000Y-22525000D02*
X184205000Y-23075000D01*
G75*
G02*
X184005000Y-23275000I-200000J0D01*
G01*
X183605000Y-23275000D01*
G75*
G02*
X183405000Y-23075000I0J200000D01*
G01*
X183405000Y-22525000D01*
G75*
G02*
X183605000Y-22325000I200000J0D01*
G01*
X184005000Y-22325000D01*
G75*
G02*
X184205000Y-22525000I0J-200000D01*
G01*
G37*
G04 #@! TD.AperFunction*
G04 #@! TO.P,R28,1*
G04 #@! TO.N,Net-(J1-Pad3)*
G04 #@! TA.AperFunction,SMDPad,CuDef*
G36*
G01*
X185855000Y-22525000D02*
X185855000Y-23075000D01*
G75*
G02*
X185655000Y-23275000I-200000J0D01*
G01*
X185255000Y-23275000D01*
G75*
G02*
X185055000Y-23075000I0J200000D01*
G01*
X185055000Y-22525000D01*
G75*
G02*
X185255000Y-22325000I200000J0D01*
G01*
X185655000Y-22325000D01*
G75*
G02*
X185855000Y-22525000I0J-200000D01*
G01*
G37*
G04 #@! TD.AperFunction*
G04 #@! TD*
D10*
G04 #@! TO.P,L2,2*
G04 #@! TO.N,+3V3*
X124100000Y-31100000D03*
G04 #@! TO.P,L2,1*
G04 #@! TO.N,Net-(L2-Pad1)*
X127900000Y-31100000D03*
G04 #@! TD*
D11*
G04 #@! TO.P,Q3,3*
G04 #@! TO.N,/5VINT*
X65104000Y-19514500D03*
G04 #@! TO.P,Q3,2*
G04 #@! TO.N,/LCD-CTRPWM*
X67104000Y-18564500D03*
G04 #@! TO.P,Q3,1*
G04 #@! TO.N,/LCD-CON-PWM*
X67104000Y-20464500D03*
G04 #@! TD*
G04 #@! TO.P,R18,2*
G04 #@! TO.N,/LCD-CON-PWM*
G04 #@! TA.AperFunction,SMDPad,CuDef*
G36*
G01*
X68907000Y-22181000D02*
X69457000Y-22181000D01*
G75*
G02*
X69657000Y-22381000I0J-200000D01*
G01*
X69657000Y-22781000D01*
G75*
G02*
X69457000Y-22981000I-200000J0D01*
G01*
X68907000Y-22981000D01*
G75*
G02*
X68707000Y-22781000I0J200000D01*
G01*
X68707000Y-22381000D01*
G75*
G02*
X68907000Y-22181000I200000J0D01*
G01*
G37*
G04 #@! TD.AperFunction*
G04 #@! TO.P,R18,1*
G04 #@! TO.N,/LCD-CTRPWM*
G04 #@! TA.AperFunction,SMDPad,CuDef*
G36*
G01*
X68907000Y-20531000D02*
X69457000Y-20531000D01*
G75*
G02*
X69657000Y-20731000I0J-200000D01*
G01*
X69657000Y-21131000D01*
G75*
G02*
X69457000Y-21331000I-200000J0D01*
G01*
X68907000Y-21331000D01*
G75*
G02*
X68707000Y-21131000I0J200000D01*
G01*
X68707000Y-20731000D01*
G75*
G02*
X68907000Y-20531000I200000J0D01*
G01*
G37*
G04 #@! TD.AperFunction*
G04 #@! TD*
G04 #@! TO.P,R17,1*
G04 #@! TO.N,/LCD-CON-PWM*
G04 #@! TA.AperFunction,SMDPad,CuDef*
G36*
G01*
X67359000Y-22243000D02*
X67359000Y-22793000D01*
G75*
G02*
X67159000Y-22993000I-200000J0D01*
G01*
X66759000Y-22993000D01*
G75*
G02*
X66559000Y-22793000I0J200000D01*
G01*
X66559000Y-22243000D01*
G75*
G02*
X66759000Y-22043000I200000J0D01*
G01*
X67159000Y-22043000D01*
G75*
G02*
X67359000Y-22243000I0J-200000D01*
G01*
G37*
G04 #@! TD.AperFunction*
G04 #@! TO.P,R17,2*
G04 #@! TO.N,/5VINT*
G04 #@! TA.AperFunction,SMDPad,CuDef*
G36*
G01*
X65709000Y-22243000D02*
X65709000Y-22793000D01*
G75*
G02*
X65509000Y-22993000I-200000J0D01*
G01*
X65109000Y-22993000D01*
G75*
G02*
X64909000Y-22793000I0J200000D01*
G01*
X64909000Y-22243000D01*
G75*
G02*
X65109000Y-22043000I200000J0D01*
G01*
X65509000Y-22043000D01*
G75*
G02*
X65709000Y-22243000I0J-200000D01*
G01*
G37*
G04 #@! TD.AperFunction*
G04 #@! TD*
G04 #@! TO.P,R16,2*
G04 #@! TO.N,/WAKEUP*
G04 #@! TA.AperFunction,SMDPad,CuDef*
G36*
G01*
X41575000Y-58525000D02*
X41575000Y-59075000D01*
G75*
G02*
X41375000Y-59275000I-200000J0D01*
G01*
X40975000Y-59275000D01*
G75*
G02*
X40775000Y-59075000I0J200000D01*
G01*
X40775000Y-58525000D01*
G75*
G02*
X40975000Y-58325000I200000J0D01*
G01*
X41375000Y-58325000D01*
G75*
G02*
X41575000Y-58525000I0J-200000D01*
G01*
G37*
G04 #@! TD.AperFunction*
G04 #@! TO.P,R16,1*
G04 #@! TO.N,/KEY-C7*
G04 #@! TA.AperFunction,SMDPad,CuDef*
G36*
G01*
X43225000Y-58525000D02*
X43225000Y-59075000D01*
G75*
G02*
X43025000Y-59275000I-200000J0D01*
G01*
X42625000Y-59275000D01*
G75*
G02*
X42425000Y-59075000I0J200000D01*
G01*
X42425000Y-58525000D01*
G75*
G02*
X42625000Y-58325000I200000J0D01*
G01*
X43025000Y-58325000D01*
G75*
G02*
X43225000Y-58525000I0J-200000D01*
G01*
G37*
G04 #@! TD.AperFunction*
G04 #@! TD*
G04 #@! TO.P,U4,1*
G04 #@! TO.N,/QSPI-IO2*
G04 #@! TA.AperFunction,SMDPad,CuDef*
G36*
G01*
X65975000Y-45689000D02*
X65975000Y-45839000D01*
G75*
G02*
X65900000Y-45914000I-75000J0D01*
G01*
X64450000Y-45914000D01*
G75*
G02*
X64375000Y-45839000I0J75000D01*
G01*
X64375000Y-45689000D01*
G75*
G02*
X64450000Y-45614000I75000J0D01*
G01*
X65900000Y-45614000D01*
G75*
G02*
X65975000Y-45689000I0J-75000D01*
G01*
G37*
G04 #@! TD.AperFunction*
G04 #@! TO.P,U4,2*
G04 #@! TO.N,/KEY-R4*
G04 #@! TA.AperFunction,SMDPad,CuDef*
G36*
G01*
X65975000Y-45189000D02*
X65975000Y-45339000D01*
G75*
G02*
X65900000Y-45414000I-75000J0D01*
G01*
X64450000Y-45414000D01*
G75*
G02*
X64375000Y-45339000I0J75000D01*
G01*
X64375000Y-45189000D01*
G75*
G02*
X64450000Y-45114000I75000J0D01*
G01*
X65900000Y-45114000D01*
G75*
G02*
X65975000Y-45189000I0J-75000D01*
G01*
G37*
G04 #@! TD.AperFunction*
G04 #@! TO.P,U4,3*
G04 #@! TO.N,/KEY-R3*
G04 #@! TA.AperFunction,SMDPad,CuDef*
G36*
G01*
X65975000Y-44689000D02*
X65975000Y-44839000D01*
G75*
G02*
X65900000Y-44914000I-75000J0D01*
G01*
X64450000Y-44914000D01*
G75*
G02*
X64375000Y-44839000I0J75000D01*
G01*
X64375000Y-44689000D01*
G75*
G02*
X64450000Y-44614000I75000J0D01*
G01*
X65900000Y-44614000D01*
G75*
G02*
X65975000Y-44689000I0J-75000D01*
G01*
G37*
G04 #@! TD.AperFunction*
G04 #@! TO.P,U4,4*
G04 #@! TO.N,/KEY-R2*
G04 #@! TA.AperFunction,SMDPad,CuDef*
G36*
G01*
X65975000Y-44189000D02*
X65975000Y-44339000D01*
G75*
G02*
X65900000Y-44414000I-75000J0D01*
G01*
X64450000Y-44414000D01*
G75*
G02*
X64375000Y-44339000I0J75000D01*
G01*
X64375000Y-44189000D01*
G75*
G02*
X64450000Y-44114000I75000J0D01*
G01*
X65900000Y-44114000D01*
G75*
G02*
X65975000Y-44189000I0J-75000D01*
G01*
G37*
G04 #@! TD.AperFunction*
G04 #@! TO.P,U4,5*
G04 #@! TO.N,/KEY-R1*
G04 #@! TA.AperFunction,SMDPad,CuDef*
G36*
G01*
X65975000Y-43689000D02*
X65975000Y-43839000D01*
G75*
G02*
X65900000Y-43914000I-75000J0D01*
G01*
X64450000Y-43914000D01*
G75*
G02*
X64375000Y-43839000I0J75000D01*
G01*
X64375000Y-43689000D01*
G75*
G02*
X64450000Y-43614000I75000J0D01*
G01*
X65900000Y-43614000D01*
G75*
G02*
X65975000Y-43689000I0J-75000D01*
G01*
G37*
G04 #@! TD.AperFunction*
G04 #@! TO.P,U4,6*
G04 #@! TO.N,+3V3*
G04 #@! TA.AperFunction,SMDPad,CuDef*
G36*
G01*
X65975000Y-43189000D02*
X65975000Y-43339000D01*
G75*
G02*
X65900000Y-43414000I-75000J0D01*
G01*
X64450000Y-43414000D01*
G75*
G02*
X64375000Y-43339000I0J75000D01*
G01*
X64375000Y-43189000D01*
G75*
G02*
X64450000Y-43114000I75000J0D01*
G01*
X65900000Y-43114000D01*
G75*
G02*
X65975000Y-43189000I0J-75000D01*
G01*
G37*
G04 #@! TD.AperFunction*
G04 #@! TO.P,U4,7*
G04 #@! TO.N,/WAKEUP*
G04 #@! TA.AperFunction,SMDPad,CuDef*
G36*
G01*
X65975000Y-42689000D02*
X65975000Y-42839000D01*
G75*
G02*
X65900000Y-42914000I-75000J0D01*
G01*
X64450000Y-42914000D01*
G75*
G02*
X64375000Y-42839000I0J75000D01*
G01*
X64375000Y-42689000D01*
G75*
G02*
X64450000Y-42614000I75000J0D01*
G01*
X65900000Y-42614000D01*
G75*
G02*
X65975000Y-42689000I0J-75000D01*
G01*
G37*
G04 #@! TD.AperFunction*
G04 #@! TO.P,U4,8*
G04 #@! TO.N,Net-(C28-Pad1)*
G04 #@! TA.AperFunction,SMDPad,CuDef*
G36*
G01*
X65975000Y-42189000D02*
X65975000Y-42339000D01*
G75*
G02*
X65900000Y-42414000I-75000J0D01*
G01*
X64450000Y-42414000D01*
G75*
G02*
X64375000Y-42339000I0J75000D01*
G01*
X64375000Y-42189000D01*
G75*
G02*
X64450000Y-42114000I75000J0D01*
G01*
X65900000Y-42114000D01*
G75*
G02*
X65975000Y-42189000I0J-75000D01*
G01*
G37*
G04 #@! TD.AperFunction*
G04 #@! TO.P,U4,9*
G04 #@! TO.N,Net-(C29-Pad1)*
G04 #@! TA.AperFunction,SMDPad,CuDef*
G36*
G01*
X65975000Y-41689000D02*
X65975000Y-41839000D01*
G75*
G02*
X65900000Y-41914000I-75000J0D01*
G01*
X64450000Y-41914000D01*
G75*
G02*
X64375000Y-41839000I0J75000D01*
G01*
X64375000Y-41689000D01*
G75*
G02*
X64450000Y-41614000I75000J0D01*
G01*
X65900000Y-41614000D01*
G75*
G02*
X65975000Y-41689000I0J-75000D01*
G01*
G37*
G04 #@! TD.AperFunction*
G04 #@! TO.P,U4,10*
G04 #@! TO.N,GND*
G04 #@! TA.AperFunction,SMDPad,CuDef*
G36*
G01*
X65975000Y-41189000D02*
X65975000Y-41339000D01*
G75*
G02*
X65900000Y-41414000I-75000J0D01*
G01*
X64450000Y-41414000D01*
G75*
G02*
X64375000Y-41339000I0J75000D01*
G01*
X64375000Y-41189000D01*
G75*
G02*
X64450000Y-41114000I75000J0D01*
G01*
X65900000Y-41114000D01*
G75*
G02*
X65975000Y-41189000I0J-75000D01*
G01*
G37*
G04 #@! TD.AperFunction*
G04 #@! TO.P,U4,11*
G04 #@! TO.N,+3V3*
G04 #@! TA.AperFunction,SMDPad,CuDef*
G36*
G01*
X65975000Y-40689000D02*
X65975000Y-40839000D01*
G75*
G02*
X65900000Y-40914000I-75000J0D01*
G01*
X64450000Y-40914000D01*
G75*
G02*
X64375000Y-40839000I0J75000D01*
G01*
X64375000Y-40689000D01*
G75*
G02*
X64450000Y-40614000I75000J0D01*
G01*
X65900000Y-40614000D01*
G75*
G02*
X65975000Y-40689000I0J-75000D01*
G01*
G37*
G04 #@! TD.AperFunction*
G04 #@! TO.P,U4,12*
G04 #@! TO.N,/OSC-IN*
G04 #@! TA.AperFunction,SMDPad,CuDef*
G36*
G01*
X65975000Y-40189000D02*
X65975000Y-40339000D01*
G75*
G02*
X65900000Y-40414000I-75000J0D01*
G01*
X64450000Y-40414000D01*
G75*
G02*
X64375000Y-40339000I0J75000D01*
G01*
X64375000Y-40189000D01*
G75*
G02*
X64450000Y-40114000I75000J0D01*
G01*
X65900000Y-40114000D01*
G75*
G02*
X65975000Y-40189000I0J-75000D01*
G01*
G37*
G04 #@! TD.AperFunction*
G04 #@! TO.P,U4,13*
G04 #@! TO.N,/OSC-OUT*
G04 #@! TA.AperFunction,SMDPad,CuDef*
G36*
G01*
X65975000Y-39689000D02*
X65975000Y-39839000D01*
G75*
G02*
X65900000Y-39914000I-75000J0D01*
G01*
X64450000Y-39914000D01*
G75*
G02*
X64375000Y-39839000I0J75000D01*
G01*
X64375000Y-39689000D01*
G75*
G02*
X64450000Y-39614000I75000J0D01*
G01*
X65900000Y-39614000D01*
G75*
G02*
X65975000Y-39689000I0J-75000D01*
G01*
G37*
G04 #@! TD.AperFunction*
G04 #@! TO.P,U4,14*
G04 #@! TO.N,/RESET*
G04 #@! TA.AperFunction,SMDPad,CuDef*
G36*
G01*
X65975000Y-39189000D02*
X65975000Y-39339000D01*
G75*
G02*
X65900000Y-39414000I-75000J0D01*
G01*
X64450000Y-39414000D01*
G75*
G02*
X64375000Y-39339000I0J75000D01*
G01*
X64375000Y-39189000D01*
G75*
G02*
X64450000Y-39114000I75000J0D01*
G01*
X65900000Y-39114000D01*
G75*
G02*
X65975000Y-39189000I0J-75000D01*
G01*
G37*
G04 #@! TD.AperFunction*
G04 #@! TO.P,U4,15*
G04 #@! TO.N,/ADC-5V*
G04 #@! TA.AperFunction,SMDPad,CuDef*
G36*
G01*
X65975000Y-38689000D02*
X65975000Y-38839000D01*
G75*
G02*
X65900000Y-38914000I-75000J0D01*
G01*
X64450000Y-38914000D01*
G75*
G02*
X64375000Y-38839000I0J75000D01*
G01*
X64375000Y-38689000D01*
G75*
G02*
X64450000Y-38614000I75000J0D01*
G01*
X65900000Y-38614000D01*
G75*
G02*
X65975000Y-38689000I0J-75000D01*
G01*
G37*
G04 #@! TD.AperFunction*
G04 #@! TO.P,U4,16*
G04 #@! TO.N,/PC1*
G04 #@! TA.AperFunction,SMDPad,CuDef*
G36*
G01*
X65975000Y-38189000D02*
X65975000Y-38339000D01*
G75*
G02*
X65900000Y-38414000I-75000J0D01*
G01*
X64450000Y-38414000D01*
G75*
G02*
X64375000Y-38339000I0J75000D01*
G01*
X64375000Y-38189000D01*
G75*
G02*
X64450000Y-38114000I75000J0D01*
G01*
X65900000Y-38114000D01*
G75*
G02*
X65975000Y-38189000I0J-75000D01*
G01*
G37*
G04 #@! TD.AperFunction*
G04 #@! TO.P,U4,17*
G04 #@! TO.N,/I-CHARGE*
G04 #@! TA.AperFunction,SMDPad,CuDef*
G36*
G01*
X65975000Y-37689000D02*
X65975000Y-37839000D01*
G75*
G02*
X65900000Y-37914000I-75000J0D01*
G01*
X64450000Y-37914000D01*
G75*
G02*
X64375000Y-37839000I0J75000D01*
G01*
X64375000Y-37689000D01*
G75*
G02*
X64450000Y-37614000I75000J0D01*
G01*
X65900000Y-37614000D01*
G75*
G02*
X65975000Y-37689000I0J-75000D01*
G01*
G37*
G04 #@! TD.AperFunction*
G04 #@! TO.P,U4,18*
G04 #@! TO.N,/ADC-BAT*
G04 #@! TA.AperFunction,SMDPad,CuDef*
G36*
G01*
X65975000Y-37189000D02*
X65975000Y-37339000D01*
G75*
G02*
X65900000Y-37414000I-75000J0D01*
G01*
X64450000Y-37414000D01*
G75*
G02*
X64375000Y-37339000I0J75000D01*
G01*
X64375000Y-37189000D01*
G75*
G02*
X64450000Y-37114000I75000J0D01*
G01*
X65900000Y-37114000D01*
G75*
G02*
X65975000Y-37189000I0J-75000D01*
G01*
G37*
G04 #@! TD.AperFunction*
G04 #@! TO.P,U4,19*
G04 #@! TO.N,GND*
G04 #@! TA.AperFunction,SMDPad,CuDef*
G36*
G01*
X65975000Y-36689000D02*
X65975000Y-36839000D01*
G75*
G02*
X65900000Y-36914000I-75000J0D01*
G01*
X64450000Y-36914000D01*
G75*
G02*
X64375000Y-36839000I0J75000D01*
G01*
X64375000Y-36689000D01*
G75*
G02*
X64450000Y-36614000I75000J0D01*
G01*
X65900000Y-36614000D01*
G75*
G02*
X65975000Y-36689000I0J-75000D01*
G01*
G37*
G04 #@! TD.AperFunction*
G04 #@! TO.P,U4,20*
G04 #@! TO.N,/VDDA*
G04 #@! TA.AperFunction,SMDPad,CuDef*
G36*
G01*
X65975000Y-36189000D02*
X65975000Y-36339000D01*
G75*
G02*
X65900000Y-36414000I-75000J0D01*
G01*
X64450000Y-36414000D01*
G75*
G02*
X64375000Y-36339000I0J75000D01*
G01*
X64375000Y-36189000D01*
G75*
G02*
X64450000Y-36114000I75000J0D01*
G01*
X65900000Y-36114000D01*
G75*
G02*
X65975000Y-36189000I0J-75000D01*
G01*
G37*
G04 #@! TD.AperFunction*
G04 #@! TO.P,U4,21*
G04 #@! TA.AperFunction,SMDPad,CuDef*
G36*
G01*
X65975000Y-35689000D02*
X65975000Y-35839000D01*
G75*
G02*
X65900000Y-35914000I-75000J0D01*
G01*
X64450000Y-35914000D01*
G75*
G02*
X64375000Y-35839000I0J75000D01*
G01*
X64375000Y-35689000D01*
G75*
G02*
X64450000Y-35614000I75000J0D01*
G01*
X65900000Y-35614000D01*
G75*
G02*
X65975000Y-35689000I0J-75000D01*
G01*
G37*
G04 #@! TD.AperFunction*
G04 #@! TO.P,U4,22*
G04 #@! TO.N,/PA0*
G04 #@! TA.AperFunction,SMDPad,CuDef*
G36*
G01*
X65975000Y-35189000D02*
X65975000Y-35339000D01*
G75*
G02*
X65900000Y-35414000I-75000J0D01*
G01*
X64450000Y-35414000D01*
G75*
G02*
X64375000Y-35339000I0J75000D01*
G01*
X64375000Y-35189000D01*
G75*
G02*
X64450000Y-35114000I75000J0D01*
G01*
X65900000Y-35114000D01*
G75*
G02*
X65975000Y-35189000I0J-75000D01*
G01*
G37*
G04 #@! TD.AperFunction*
G04 #@! TO.P,U4,23*
G04 #@! TO.N,/PA1*
G04 #@! TA.AperFunction,SMDPad,CuDef*
G36*
G01*
X65975000Y-34689000D02*
X65975000Y-34839000D01*
G75*
G02*
X65900000Y-34914000I-75000J0D01*
G01*
X64450000Y-34914000D01*
G75*
G02*
X64375000Y-34839000I0J75000D01*
G01*
X64375000Y-34689000D01*
G75*
G02*
X64450000Y-34614000I75000J0D01*
G01*
X65900000Y-34614000D01*
G75*
G02*
X65975000Y-34689000I0J-75000D01*
G01*
G37*
G04 #@! TD.AperFunction*
G04 #@! TO.P,U4,24*
G04 #@! TO.N,/PA2*
G04 #@! TA.AperFunction,SMDPad,CuDef*
G36*
G01*
X65975000Y-34189000D02*
X65975000Y-34339000D01*
G75*
G02*
X65900000Y-34414000I-75000J0D01*
G01*
X64450000Y-34414000D01*
G75*
G02*
X64375000Y-34339000I0J75000D01*
G01*
X64375000Y-34189000D01*
G75*
G02*
X64450000Y-34114000I75000J0D01*
G01*
X65900000Y-34114000D01*
G75*
G02*
X65975000Y-34189000I0J-75000D01*
G01*
G37*
G04 #@! TD.AperFunction*
G04 #@! TO.P,U4,25*
G04 #@! TO.N,/PA3*
G04 #@! TA.AperFunction,SMDPad,CuDef*
G36*
G01*
X65975000Y-33689000D02*
X65975000Y-33839000D01*
G75*
G02*
X65900000Y-33914000I-75000J0D01*
G01*
X64450000Y-33914000D01*
G75*
G02*
X64375000Y-33839000I0J75000D01*
G01*
X64375000Y-33689000D01*
G75*
G02*
X64450000Y-33614000I75000J0D01*
G01*
X65900000Y-33614000D01*
G75*
G02*
X65975000Y-33689000I0J-75000D01*
G01*
G37*
G04 #@! TD.AperFunction*
G04 #@! TO.P,U4,26*
G04 #@! TO.N,GND*
G04 #@! TA.AperFunction,SMDPad,CuDef*
G36*
G01*
X63650000Y-31364000D02*
X63650000Y-32814000D01*
G75*
G02*
X63575000Y-32889000I-75000J0D01*
G01*
X63425000Y-32889000D01*
G75*
G02*
X63350000Y-32814000I0J75000D01*
G01*
X63350000Y-31364000D01*
G75*
G02*
X63425000Y-31289000I75000J0D01*
G01*
X63575000Y-31289000D01*
G75*
G02*
X63650000Y-31364000I0J-75000D01*
G01*
G37*
G04 #@! TD.AperFunction*
G04 #@! TO.P,U4,27*
G04 #@! TO.N,+3V3*
G04 #@! TA.AperFunction,SMDPad,CuDef*
G36*
G01*
X63150000Y-31364000D02*
X63150000Y-32814000D01*
G75*
G02*
X63075000Y-32889000I-75000J0D01*
G01*
X62925000Y-32889000D01*
G75*
G02*
X62850000Y-32814000I0J75000D01*
G01*
X62850000Y-31364000D01*
G75*
G02*
X62925000Y-31289000I75000J0D01*
G01*
X63075000Y-31289000D01*
G75*
G02*
X63150000Y-31364000I0J-75000D01*
G01*
G37*
G04 #@! TD.AperFunction*
G04 #@! TO.P,U4,28*
G04 #@! TO.N,/PA4*
G04 #@! TA.AperFunction,SMDPad,CuDef*
G36*
G01*
X62650000Y-31364000D02*
X62650000Y-32814000D01*
G75*
G02*
X62575000Y-32889000I-75000J0D01*
G01*
X62425000Y-32889000D01*
G75*
G02*
X62350000Y-32814000I0J75000D01*
G01*
X62350000Y-31364000D01*
G75*
G02*
X62425000Y-31289000I75000J0D01*
G01*
X62575000Y-31289000D01*
G75*
G02*
X62650000Y-31364000I0J-75000D01*
G01*
G37*
G04 #@! TD.AperFunction*
G04 #@! TO.P,U4,29*
G04 #@! TO.N,/PA5*
G04 #@! TA.AperFunction,SMDPad,CuDef*
G36*
G01*
X62150000Y-31364000D02*
X62150000Y-32814000D01*
G75*
G02*
X62075000Y-32889000I-75000J0D01*
G01*
X61925000Y-32889000D01*
G75*
G02*
X61850000Y-32814000I0J75000D01*
G01*
X61850000Y-31364000D01*
G75*
G02*
X61925000Y-31289000I75000J0D01*
G01*
X62075000Y-31289000D01*
G75*
G02*
X62150000Y-31364000I0J-75000D01*
G01*
G37*
G04 #@! TD.AperFunction*
G04 #@! TO.P,U4,30*
G04 #@! TO.N,/PA6*
G04 #@! TA.AperFunction,SMDPad,CuDef*
G36*
G01*
X61650000Y-31364000D02*
X61650000Y-32814000D01*
G75*
G02*
X61575000Y-32889000I-75000J0D01*
G01*
X61425000Y-32889000D01*
G75*
G02*
X61350000Y-32814000I0J75000D01*
G01*
X61350000Y-31364000D01*
G75*
G02*
X61425000Y-31289000I75000J0D01*
G01*
X61575000Y-31289000D01*
G75*
G02*
X61650000Y-31364000I0J-75000D01*
G01*
G37*
G04 #@! TD.AperFunction*
G04 #@! TO.P,U4,31*
G04 #@! TO.N,/PA7*
G04 #@! TA.AperFunction,SMDPad,CuDef*
G36*
G01*
X61150000Y-31364000D02*
X61150000Y-32814000D01*
G75*
G02*
X61075000Y-32889000I-75000J0D01*
G01*
X60925000Y-32889000D01*
G75*
G02*
X60850000Y-32814000I0J75000D01*
G01*
X60850000Y-31364000D01*
G75*
G02*
X60925000Y-31289000I75000J0D01*
G01*
X61075000Y-31289000D01*
G75*
G02*
X61150000Y-31364000I0J-75000D01*
G01*
G37*
G04 #@! TD.AperFunction*
G04 #@! TO.P,U4,32*
G04 #@! TO.N,/PC4*
G04 #@! TA.AperFunction,SMDPad,CuDef*
G36*
G01*
X60650000Y-31364000D02*
X60650000Y-32814000D01*
G75*
G02*
X60575000Y-32889000I-75000J0D01*
G01*
X60425000Y-32889000D01*
G75*
G02*
X60350000Y-32814000I0J75000D01*
G01*
X60350000Y-31364000D01*
G75*
G02*
X60425000Y-31289000I75000J0D01*
G01*
X60575000Y-31289000D01*
G75*
G02*
X60650000Y-31364000I0J-75000D01*
G01*
G37*
G04 #@! TD.AperFunction*
G04 #@! TO.P,U4,33*
G04 #@! TO.N,/PC5*
G04 #@! TA.AperFunction,SMDPad,CuDef*
G36*
G01*
X60150000Y-31364000D02*
X60150000Y-32814000D01*
G75*
G02*
X60075000Y-32889000I-75000J0D01*
G01*
X59925000Y-32889000D01*
G75*
G02*
X59850000Y-32814000I0J75000D01*
G01*
X59850000Y-31364000D01*
G75*
G02*
X59925000Y-31289000I75000J0D01*
G01*
X60075000Y-31289000D01*
G75*
G02*
X60150000Y-31364000I0J-75000D01*
G01*
G37*
G04 #@! TD.AperFunction*
G04 #@! TO.P,U4,34*
G04 #@! TO.N,/LCD-CON-PWM*
G04 #@! TA.AperFunction,SMDPad,CuDef*
G36*
G01*
X59650000Y-31364000D02*
X59650000Y-32814000D01*
G75*
G02*
X59575000Y-32889000I-75000J0D01*
G01*
X59425000Y-32889000D01*
G75*
G02*
X59350000Y-32814000I0J75000D01*
G01*
X59350000Y-31364000D01*
G75*
G02*
X59425000Y-31289000I75000J0D01*
G01*
X59575000Y-31289000D01*
G75*
G02*
X59650000Y-31364000I0J-75000D01*
G01*
G37*
G04 #@! TD.AperFunction*
G04 #@! TO.P,U4,35*
G04 #@! TO.N,/LCD-E*
G04 #@! TA.AperFunction,SMDPad,CuDef*
G36*
G01*
X59150000Y-31364000D02*
X59150000Y-32814000D01*
G75*
G02*
X59075000Y-32889000I-75000J0D01*
G01*
X58925000Y-32889000D01*
G75*
G02*
X58850000Y-32814000I0J75000D01*
G01*
X58850000Y-31364000D01*
G75*
G02*
X58925000Y-31289000I75000J0D01*
G01*
X59075000Y-31289000D01*
G75*
G02*
X59150000Y-31364000I0J-75000D01*
G01*
G37*
G04 #@! TD.AperFunction*
G04 #@! TO.P,U4,36*
G04 #@! TO.N,/QSPI-CLK*
G04 #@! TA.AperFunction,SMDPad,CuDef*
G36*
G01*
X58650000Y-31364000D02*
X58650000Y-32814000D01*
G75*
G02*
X58575000Y-32889000I-75000J0D01*
G01*
X58425000Y-32889000D01*
G75*
G02*
X58350000Y-32814000I0J75000D01*
G01*
X58350000Y-31364000D01*
G75*
G02*
X58425000Y-31289000I75000J0D01*
G01*
X58575000Y-31289000D01*
G75*
G02*
X58650000Y-31364000I0J-75000D01*
G01*
G37*
G04 #@! TD.AperFunction*
G04 #@! TO.P,U4,37*
G04 #@! TO.N,/LCD-RS*
G04 #@! TA.AperFunction,SMDPad,CuDef*
G36*
G01*
X58150000Y-31364000D02*
X58150000Y-32814000D01*
G75*
G02*
X58075000Y-32889000I-75000J0D01*
G01*
X57925000Y-32889000D01*
G75*
G02*
X57850000Y-32814000I0J75000D01*
G01*
X57850000Y-31364000D01*
G75*
G02*
X57925000Y-31289000I75000J0D01*
G01*
X58075000Y-31289000D01*
G75*
G02*
X58150000Y-31364000I0J-75000D01*
G01*
G37*
G04 #@! TD.AperFunction*
G04 #@! TO.P,U4,38*
G04 #@! TO.N,/LCD-D0*
G04 #@! TA.AperFunction,SMDPad,CuDef*
G36*
G01*
X57650000Y-31364000D02*
X57650000Y-32814000D01*
G75*
G02*
X57575000Y-32889000I-75000J0D01*
G01*
X57425000Y-32889000D01*
G75*
G02*
X57350000Y-32814000I0J75000D01*
G01*
X57350000Y-31364000D01*
G75*
G02*
X57425000Y-31289000I75000J0D01*
G01*
X57575000Y-31289000D01*
G75*
G02*
X57650000Y-31364000I0J-75000D01*
G01*
G37*
G04 #@! TD.AperFunction*
G04 #@! TO.P,U4,39*
G04 #@! TO.N,/LCD-D1*
G04 #@! TA.AperFunction,SMDPad,CuDef*
G36*
G01*
X57150000Y-31364000D02*
X57150000Y-32814000D01*
G75*
G02*
X57075000Y-32889000I-75000J0D01*
G01*
X56925000Y-32889000D01*
G75*
G02*
X56850000Y-32814000I0J75000D01*
G01*
X56850000Y-31364000D01*
G75*
G02*
X56925000Y-31289000I75000J0D01*
G01*
X57075000Y-31289000D01*
G75*
G02*
X57150000Y-31364000I0J-75000D01*
G01*
G37*
G04 #@! TD.AperFunction*
G04 #@! TO.P,U4,40*
G04 #@! TO.N,/LCD-D2*
G04 #@! TA.AperFunction,SMDPad,CuDef*
G36*
G01*
X56650000Y-31364000D02*
X56650000Y-32814000D01*
G75*
G02*
X56575000Y-32889000I-75000J0D01*
G01*
X56425000Y-32889000D01*
G75*
G02*
X56350000Y-32814000I0J75000D01*
G01*
X56350000Y-31364000D01*
G75*
G02*
X56425000Y-31289000I75000J0D01*
G01*
X56575000Y-31289000D01*
G75*
G02*
X56650000Y-31364000I0J-75000D01*
G01*
G37*
G04 #@! TD.AperFunction*
G04 #@! TO.P,U4,41*
G04 #@! TO.N,/LCD-D3*
G04 #@! TA.AperFunction,SMDPad,CuDef*
G36*
G01*
X56150000Y-31364000D02*
X56150000Y-32814000D01*
G75*
G02*
X56075000Y-32889000I-75000J0D01*
G01*
X55925000Y-32889000D01*
G75*
G02*
X55850000Y-32814000I0J75000D01*
G01*
X55850000Y-31364000D01*
G75*
G02*
X55925000Y-31289000I75000J0D01*
G01*
X56075000Y-31289000D01*
G75*
G02*
X56150000Y-31364000I0J-75000D01*
G01*
G37*
G04 #@! TD.AperFunction*
G04 #@! TO.P,U4,42*
G04 #@! TO.N,/LCD-D4*
G04 #@! TA.AperFunction,SMDPad,CuDef*
G36*
G01*
X55650000Y-31364000D02*
X55650000Y-32814000D01*
G75*
G02*
X55575000Y-32889000I-75000J0D01*
G01*
X55425000Y-32889000D01*
G75*
G02*
X55350000Y-32814000I0J75000D01*
G01*
X55350000Y-31364000D01*
G75*
G02*
X55425000Y-31289000I75000J0D01*
G01*
X55575000Y-31289000D01*
G75*
G02*
X55650000Y-31364000I0J-75000D01*
G01*
G37*
G04 #@! TD.AperFunction*
G04 #@! TO.P,U4,43*
G04 #@! TO.N,/LCD-D5*
G04 #@! TA.AperFunction,SMDPad,CuDef*
G36*
G01*
X55150000Y-31364000D02*
X55150000Y-32814000D01*
G75*
G02*
X55075000Y-32889000I-75000J0D01*
G01*
X54925000Y-32889000D01*
G75*
G02*
X54850000Y-32814000I0J75000D01*
G01*
X54850000Y-31364000D01*
G75*
G02*
X54925000Y-31289000I75000J0D01*
G01*
X55075000Y-31289000D01*
G75*
G02*
X55150000Y-31364000I0J-75000D01*
G01*
G37*
G04 #@! TD.AperFunction*
G04 #@! TO.P,U4,44*
G04 #@! TO.N,/LCD-D6*
G04 #@! TA.AperFunction,SMDPad,CuDef*
G36*
G01*
X54650000Y-31364000D02*
X54650000Y-32814000D01*
G75*
G02*
X54575000Y-32889000I-75000J0D01*
G01*
X54425000Y-32889000D01*
G75*
G02*
X54350000Y-32814000I0J75000D01*
G01*
X54350000Y-31364000D01*
G75*
G02*
X54425000Y-31289000I75000J0D01*
G01*
X54575000Y-31289000D01*
G75*
G02*
X54650000Y-31364000I0J-75000D01*
G01*
G37*
G04 #@! TD.AperFunction*
G04 #@! TO.P,U4,45*
G04 #@! TO.N,/LCD-D7*
G04 #@! TA.AperFunction,SMDPad,CuDef*
G36*
G01*
X54150000Y-31364000D02*
X54150000Y-32814000D01*
G75*
G02*
X54075000Y-32889000I-75000J0D01*
G01*
X53925000Y-32889000D01*
G75*
G02*
X53850000Y-32814000I0J75000D01*
G01*
X53850000Y-31364000D01*
G75*
G02*
X53925000Y-31289000I75000J0D01*
G01*
X54075000Y-31289000D01*
G75*
G02*
X54150000Y-31364000I0J-75000D01*
G01*
G37*
G04 #@! TD.AperFunction*
G04 #@! TO.P,U4,46*
G04 #@! TO.N,/QSPI-CS*
G04 #@! TA.AperFunction,SMDPad,CuDef*
G36*
G01*
X53650000Y-31364000D02*
X53650000Y-32814000D01*
G75*
G02*
X53575000Y-32889000I-75000J0D01*
G01*
X53425000Y-32889000D01*
G75*
G02*
X53350000Y-32814000I0J75000D01*
G01*
X53350000Y-31364000D01*
G75*
G02*
X53425000Y-31289000I75000J0D01*
G01*
X53575000Y-31289000D01*
G75*
G02*
X53650000Y-31364000I0J-75000D01*
G01*
G37*
G04 #@! TD.AperFunction*
G04 #@! TO.P,U4,47*
G04 #@! TO.N,/PB11*
G04 #@! TA.AperFunction,SMDPad,CuDef*
G36*
G01*
X53150000Y-31364000D02*
X53150000Y-32814000D01*
G75*
G02*
X53075000Y-32889000I-75000J0D01*
G01*
X52925000Y-32889000D01*
G75*
G02*
X52850000Y-32814000I0J75000D01*
G01*
X52850000Y-31364000D01*
G75*
G02*
X52925000Y-31289000I75000J0D01*
G01*
X53075000Y-31289000D01*
G75*
G02*
X53150000Y-31364000I0J-75000D01*
G01*
G37*
G04 #@! TD.AperFunction*
G04 #@! TO.P,U4,48*
G04 #@! TO.N,Net-(C21-Pad1)*
G04 #@! TA.AperFunction,SMDPad,CuDef*
G36*
G01*
X52650000Y-31364000D02*
X52650000Y-32814000D01*
G75*
G02*
X52575000Y-32889000I-75000J0D01*
G01*
X52425000Y-32889000D01*
G75*
G02*
X52350000Y-32814000I0J75000D01*
G01*
X52350000Y-31364000D01*
G75*
G02*
X52425000Y-31289000I75000J0D01*
G01*
X52575000Y-31289000D01*
G75*
G02*
X52650000Y-31364000I0J-75000D01*
G01*
G37*
G04 #@! TD.AperFunction*
G04 #@! TO.P,U4,49*
G04 #@! TO.N,GND*
G04 #@! TA.AperFunction,SMDPad,CuDef*
G36*
G01*
X52150000Y-31364000D02*
X52150000Y-32814000D01*
G75*
G02*
X52075000Y-32889000I-75000J0D01*
G01*
X51925000Y-32889000D01*
G75*
G02*
X51850000Y-32814000I0J75000D01*
G01*
X51850000Y-31364000D01*
G75*
G02*
X51925000Y-31289000I75000J0D01*
G01*
X52075000Y-31289000D01*
G75*
G02*
X52150000Y-31364000I0J-75000D01*
G01*
G37*
G04 #@! TD.AperFunction*
G04 #@! TO.P,U4,50*
G04 #@! TO.N,+3V3*
G04 #@! TA.AperFunction,SMDPad,CuDef*
G36*
G01*
X51650000Y-31364000D02*
X51650000Y-32814000D01*
G75*
G02*
X51575000Y-32889000I-75000J0D01*
G01*
X51425000Y-32889000D01*
G75*
G02*
X51350000Y-32814000I0J75000D01*
G01*
X51350000Y-31364000D01*
G75*
G02*
X51425000Y-31289000I75000J0D01*
G01*
X51575000Y-31289000D01*
G75*
G02*
X51650000Y-31364000I0J-75000D01*
G01*
G37*
G04 #@! TD.AperFunction*
G04 #@! TO.P,U4,51*
G04 #@! TO.N,/PB12*
G04 #@! TA.AperFunction,SMDPad,CuDef*
G36*
G01*
X50625000Y-33689000D02*
X50625000Y-33839000D01*
G75*
G02*
X50550000Y-33914000I-75000J0D01*
G01*
X49100000Y-33914000D01*
G75*
G02*
X49025000Y-33839000I0J75000D01*
G01*
X49025000Y-33689000D01*
G75*
G02*
X49100000Y-33614000I75000J0D01*
G01*
X50550000Y-33614000D01*
G75*
G02*
X50625000Y-33689000I0J-75000D01*
G01*
G37*
G04 #@! TD.AperFunction*
G04 #@! TO.P,U4,52*
G04 #@! TO.N,/PB13*
G04 #@! TA.AperFunction,SMDPad,CuDef*
G36*
G01*
X50625000Y-34189000D02*
X50625000Y-34339000D01*
G75*
G02*
X50550000Y-34414000I-75000J0D01*
G01*
X49100000Y-34414000D01*
G75*
G02*
X49025000Y-34339000I0J75000D01*
G01*
X49025000Y-34189000D01*
G75*
G02*
X49100000Y-34114000I75000J0D01*
G01*
X50550000Y-34114000D01*
G75*
G02*
X50625000Y-34189000I0J-75000D01*
G01*
G37*
G04 #@! TD.AperFunction*
G04 #@! TO.P,U4,53*
G04 #@! TO.N,/PB14*
G04 #@! TA.AperFunction,SMDPad,CuDef*
G36*
G01*
X50625000Y-34689000D02*
X50625000Y-34839000D01*
G75*
G02*
X50550000Y-34914000I-75000J0D01*
G01*
X49100000Y-34914000D01*
G75*
G02*
X49025000Y-34839000I0J75000D01*
G01*
X49025000Y-34689000D01*
G75*
G02*
X49100000Y-34614000I75000J0D01*
G01*
X50550000Y-34614000D01*
G75*
G02*
X50625000Y-34689000I0J-75000D01*
G01*
G37*
G04 #@! TD.AperFunction*
G04 #@! TO.P,U4,54*
G04 #@! TO.N,/PB15*
G04 #@! TA.AperFunction,SMDPad,CuDef*
G36*
G01*
X50625000Y-35189000D02*
X50625000Y-35339000D01*
G75*
G02*
X50550000Y-35414000I-75000J0D01*
G01*
X49100000Y-35414000D01*
G75*
G02*
X49025000Y-35339000I0J75000D01*
G01*
X49025000Y-35189000D01*
G75*
G02*
X49100000Y-35114000I75000J0D01*
G01*
X50550000Y-35114000D01*
G75*
G02*
X50625000Y-35189000I0J-75000D01*
G01*
G37*
G04 #@! TD.AperFunction*
G04 #@! TO.P,U4,55*
G04 #@! TO.N,/LCD-R~W*
G04 #@! TA.AperFunction,SMDPad,CuDef*
G36*
G01*
X50625000Y-35689000D02*
X50625000Y-35839000D01*
G75*
G02*
X50550000Y-35914000I-75000J0D01*
G01*
X49100000Y-35914000D01*
G75*
G02*
X49025000Y-35839000I0J75000D01*
G01*
X49025000Y-35689000D01*
G75*
G02*
X49100000Y-35614000I75000J0D01*
G01*
X50550000Y-35614000D01*
G75*
G02*
X50625000Y-35689000I0J-75000D01*
G01*
G37*
G04 #@! TD.AperFunction*
G04 #@! TO.P,U4,56*
G04 #@! TO.N,/LCD-CS*
G04 #@! TA.AperFunction,SMDPad,CuDef*
G36*
G01*
X50625000Y-36189000D02*
X50625000Y-36339000D01*
G75*
G02*
X50550000Y-36414000I-75000J0D01*
G01*
X49100000Y-36414000D01*
G75*
G02*
X49025000Y-36339000I0J75000D01*
G01*
X49025000Y-36189000D01*
G75*
G02*
X49100000Y-36114000I75000J0D01*
G01*
X50550000Y-36114000D01*
G75*
G02*
X50625000Y-36189000I0J-75000D01*
G01*
G37*
G04 #@! TD.AperFunction*
G04 #@! TO.P,U4,57*
G04 #@! TO.N,/SOUND-LATCH*
G04 #@! TA.AperFunction,SMDPad,CuDef*
G36*
G01*
X50625000Y-36689000D02*
X50625000Y-36839000D01*
G75*
G02*
X50550000Y-36914000I-75000J0D01*
G01*
X49100000Y-36914000D01*
G75*
G02*
X49025000Y-36839000I0J75000D01*
G01*
X49025000Y-36689000D01*
G75*
G02*
X49100000Y-36614000I75000J0D01*
G01*
X50550000Y-36614000D01*
G75*
G02*
X50625000Y-36689000I0J-75000D01*
G01*
G37*
G04 #@! TD.AperFunction*
G04 #@! TO.P,U4,58*
G04 #@! TO.N,/QSPI-IO0*
G04 #@! TA.AperFunction,SMDPad,CuDef*
G36*
G01*
X50625000Y-37189000D02*
X50625000Y-37339000D01*
G75*
G02*
X50550000Y-37414000I-75000J0D01*
G01*
X49100000Y-37414000D01*
G75*
G02*
X49025000Y-37339000I0J75000D01*
G01*
X49025000Y-37189000D01*
G75*
G02*
X49100000Y-37114000I75000J0D01*
G01*
X50550000Y-37114000D01*
G75*
G02*
X50625000Y-37189000I0J-75000D01*
G01*
G37*
G04 #@! TD.AperFunction*
G04 #@! TO.P,U4,59*
G04 #@! TO.N,/QSPI-IO1*
G04 #@! TA.AperFunction,SMDPad,CuDef*
G36*
G01*
X50625000Y-37689000D02*
X50625000Y-37839000D01*
G75*
G02*
X50550000Y-37914000I-75000J0D01*
G01*
X49100000Y-37914000D01*
G75*
G02*
X49025000Y-37839000I0J75000D01*
G01*
X49025000Y-37689000D01*
G75*
G02*
X49100000Y-37614000I75000J0D01*
G01*
X50550000Y-37614000D01*
G75*
G02*
X50625000Y-37689000I0J-75000D01*
G01*
G37*
G04 #@! TD.AperFunction*
G04 #@! TO.P,U4,60*
G04 #@! TO.N,/QSPI-IO3*
G04 #@! TA.AperFunction,SMDPad,CuDef*
G36*
G01*
X50625000Y-38189000D02*
X50625000Y-38339000D01*
G75*
G02*
X50550000Y-38414000I-75000J0D01*
G01*
X49100000Y-38414000D01*
G75*
G02*
X49025000Y-38339000I0J75000D01*
G01*
X49025000Y-38189000D01*
G75*
G02*
X49100000Y-38114000I75000J0D01*
G01*
X50550000Y-38114000D01*
G75*
G02*
X50625000Y-38189000I0J-75000D01*
G01*
G37*
G04 #@! TD.AperFunction*
G04 #@! TO.P,U4,61*
G04 #@! TO.N,Net-(U4-Pad61)*
G04 #@! TA.AperFunction,SMDPad,CuDef*
G36*
G01*
X50625000Y-38689000D02*
X50625000Y-38839000D01*
G75*
G02*
X50550000Y-38914000I-75000J0D01*
G01*
X49100000Y-38914000D01*
G75*
G02*
X49025000Y-38839000I0J75000D01*
G01*
X49025000Y-38689000D01*
G75*
G02*
X49100000Y-38614000I75000J0D01*
G01*
X50550000Y-38614000D01*
G75*
G02*
X50625000Y-38689000I0J-75000D01*
G01*
G37*
G04 #@! TD.AperFunction*
G04 #@! TO.P,U4,62*
G04 #@! TO.N,/LED1*
G04 #@! TA.AperFunction,SMDPad,CuDef*
G36*
G01*
X50625000Y-39189000D02*
X50625000Y-39339000D01*
G75*
G02*
X50550000Y-39414000I-75000J0D01*
G01*
X49100000Y-39414000D01*
G75*
G02*
X49025000Y-39339000I0J75000D01*
G01*
X49025000Y-39189000D01*
G75*
G02*
X49100000Y-39114000I75000J0D01*
G01*
X50550000Y-39114000D01*
G75*
G02*
X50625000Y-39189000I0J-75000D01*
G01*
G37*
G04 #@! TD.AperFunction*
G04 #@! TO.P,U4,63*
G04 #@! TO.N,/LCD-ON*
G04 #@! TA.AperFunction,SMDPad,CuDef*
G36*
G01*
X50625000Y-39689000D02*
X50625000Y-39839000D01*
G75*
G02*
X50550000Y-39914000I-75000J0D01*
G01*
X49100000Y-39914000D01*
G75*
G02*
X49025000Y-39839000I0J75000D01*
G01*
X49025000Y-39689000D01*
G75*
G02*
X49100000Y-39614000I75000J0D01*
G01*
X50550000Y-39614000D01*
G75*
G02*
X50625000Y-39689000I0J-75000D01*
G01*
G37*
G04 #@! TD.AperFunction*
G04 #@! TO.P,U4,64*
G04 #@! TO.N,/CHARGE-PWM*
G04 #@! TA.AperFunction,SMDPad,CuDef*
G36*
G01*
X50625000Y-40189000D02*
X50625000Y-40339000D01*
G75*
G02*
X50550000Y-40414000I-75000J0D01*
G01*
X49100000Y-40414000D01*
G75*
G02*
X49025000Y-40339000I0J75000D01*
G01*
X49025000Y-40189000D01*
G75*
G02*
X49100000Y-40114000I75000J0D01*
G01*
X50550000Y-40114000D01*
G75*
G02*
X50625000Y-40189000I0J-75000D01*
G01*
G37*
G04 #@! TD.AperFunction*
G04 #@! TO.P,U4,65*
G04 #@! TO.N,/SDCARD-D0*
G04 #@! TA.AperFunction,SMDPad,CuDef*
G36*
G01*
X50625000Y-40689000D02*
X50625000Y-40839000D01*
G75*
G02*
X50550000Y-40914000I-75000J0D01*
G01*
X49100000Y-40914000D01*
G75*
G02*
X49025000Y-40839000I0J75000D01*
G01*
X49025000Y-40689000D01*
G75*
G02*
X49100000Y-40614000I75000J0D01*
G01*
X50550000Y-40614000D01*
G75*
G02*
X50625000Y-40689000I0J-75000D01*
G01*
G37*
G04 #@! TD.AperFunction*
G04 #@! TO.P,U4,66*
G04 #@! TO.N,/SDCARD-D1*
G04 #@! TA.AperFunction,SMDPad,CuDef*
G36*
G01*
X50625000Y-41189000D02*
X50625000Y-41339000D01*
G75*
G02*
X50550000Y-41414000I-75000J0D01*
G01*
X49100000Y-41414000D01*
G75*
G02*
X49025000Y-41339000I0J75000D01*
G01*
X49025000Y-41189000D01*
G75*
G02*
X49100000Y-41114000I75000J0D01*
G01*
X50550000Y-41114000D01*
G75*
G02*
X50625000Y-41189000I0J-75000D01*
G01*
G37*
G04 #@! TD.AperFunction*
G04 #@! TO.P,U4,67*
G04 #@! TO.N,/PA8*
G04 #@! TA.AperFunction,SMDPad,CuDef*
G36*
G01*
X50625000Y-41689000D02*
X50625000Y-41839000D01*
G75*
G02*
X50550000Y-41914000I-75000J0D01*
G01*
X49100000Y-41914000D01*
G75*
G02*
X49025000Y-41839000I0J75000D01*
G01*
X49025000Y-41689000D01*
G75*
G02*
X49100000Y-41614000I75000J0D01*
G01*
X50550000Y-41614000D01*
G75*
G02*
X50625000Y-41689000I0J-75000D01*
G01*
G37*
G04 #@! TD.AperFunction*
G04 #@! TO.P,U4,68*
G04 #@! TO.N,/TRACE-TX*
G04 #@! TA.AperFunction,SMDPad,CuDef*
G36*
G01*
X50625000Y-42189000D02*
X50625000Y-42339000D01*
G75*
G02*
X50550000Y-42414000I-75000J0D01*
G01*
X49100000Y-42414000D01*
G75*
G02*
X49025000Y-42339000I0J75000D01*
G01*
X49025000Y-42189000D01*
G75*
G02*
X49100000Y-42114000I75000J0D01*
G01*
X50550000Y-42114000D01*
G75*
G02*
X50625000Y-42189000I0J-75000D01*
G01*
G37*
G04 #@! TD.AperFunction*
G04 #@! TO.P,U4,69*
G04 #@! TO.N,/TRACE-RX*
G04 #@! TA.AperFunction,SMDPad,CuDef*
G36*
G01*
X50625000Y-42689000D02*
X50625000Y-42839000D01*
G75*
G02*
X50550000Y-42914000I-75000J0D01*
G01*
X49100000Y-42914000D01*
G75*
G02*
X49025000Y-42839000I0J75000D01*
G01*
X49025000Y-42689000D01*
G75*
G02*
X49100000Y-42614000I75000J0D01*
G01*
X50550000Y-42614000D01*
G75*
G02*
X50625000Y-42689000I0J-75000D01*
G01*
G37*
G04 #@! TD.AperFunction*
G04 #@! TO.P,U4,70*
G04 #@! TO.N,/USB-DM*
G04 #@! TA.AperFunction,SMDPad,CuDef*
G36*
G01*
X50625000Y-43189000D02*
X50625000Y-43339000D01*
G75*
G02*
X50550000Y-43414000I-75000J0D01*
G01*
X49100000Y-43414000D01*
G75*
G02*
X49025000Y-43339000I0J75000D01*
G01*
X49025000Y-43189000D01*
G75*
G02*
X49100000Y-43114000I75000J0D01*
G01*
X50550000Y-43114000D01*
G75*
G02*
X50625000Y-43189000I0J-75000D01*
G01*
G37*
G04 #@! TD.AperFunction*
G04 #@! TO.P,U4,71*
G04 #@! TO.N,/USB-DP*
G04 #@! TA.AperFunction,SMDPad,CuDef*
G36*
G01*
X50625000Y-43689000D02*
X50625000Y-43839000D01*
G75*
G02*
X50550000Y-43914000I-75000J0D01*
G01*
X49100000Y-43914000D01*
G75*
G02*
X49025000Y-43839000I0J75000D01*
G01*
X49025000Y-43689000D01*
G75*
G02*
X49100000Y-43614000I75000J0D01*
G01*
X50550000Y-43614000D01*
G75*
G02*
X50625000Y-43689000I0J-75000D01*
G01*
G37*
G04 #@! TD.AperFunction*
G04 #@! TO.P,U4,72*
G04 #@! TO.N,/SWDIO*
G04 #@! TA.AperFunction,SMDPad,CuDef*
G36*
G01*
X50625000Y-44189000D02*
X50625000Y-44339000D01*
G75*
G02*
X50550000Y-44414000I-75000J0D01*
G01*
X49100000Y-44414000D01*
G75*
G02*
X49025000Y-44339000I0J75000D01*
G01*
X49025000Y-44189000D01*
G75*
G02*
X49100000Y-44114000I75000J0D01*
G01*
X50550000Y-44114000D01*
G75*
G02*
X50625000Y-44189000I0J-75000D01*
G01*
G37*
G04 #@! TD.AperFunction*
G04 #@! TO.P,U4,73*
G04 #@! TO.N,Net-(C22-Pad1)*
G04 #@! TA.AperFunction,SMDPad,CuDef*
G36*
G01*
X50625000Y-44689000D02*
X50625000Y-44839000D01*
G75*
G02*
X50550000Y-44914000I-75000J0D01*
G01*
X49100000Y-44914000D01*
G75*
G02*
X49025000Y-44839000I0J75000D01*
G01*
X49025000Y-44689000D01*
G75*
G02*
X49100000Y-44614000I75000J0D01*
G01*
X50550000Y-44614000D01*
G75*
G02*
X50625000Y-44689000I0J-75000D01*
G01*
G37*
G04 #@! TD.AperFunction*
G04 #@! TO.P,U4,74*
G04 #@! TO.N,GND*
G04 #@! TA.AperFunction,SMDPad,CuDef*
G36*
G01*
X50625000Y-45189000D02*
X50625000Y-45339000D01*
G75*
G02*
X50550000Y-45414000I-75000J0D01*
G01*
X49100000Y-45414000D01*
G75*
G02*
X49025000Y-45339000I0J75000D01*
G01*
X49025000Y-45189000D01*
G75*
G02*
X49100000Y-45114000I75000J0D01*
G01*
X50550000Y-45114000D01*
G75*
G02*
X50625000Y-45189000I0J-75000D01*
G01*
G37*
G04 #@! TD.AperFunction*
G04 #@! TO.P,U4,75*
G04 #@! TO.N,+3V3*
G04 #@! TA.AperFunction,SMDPad,CuDef*
G36*
G01*
X50625000Y-45689000D02*
X50625000Y-45839000D01*
G75*
G02*
X50550000Y-45914000I-75000J0D01*
G01*
X49100000Y-45914000D01*
G75*
G02*
X49025000Y-45839000I0J75000D01*
G01*
X49025000Y-45689000D01*
G75*
G02*
X49100000Y-45614000I75000J0D01*
G01*
X50550000Y-45614000D01*
G75*
G02*
X50625000Y-45689000I0J-75000D01*
G01*
G37*
G04 #@! TD.AperFunction*
G04 #@! TO.P,U4,76*
G04 #@! TO.N,/SWDC*
G04 #@! TA.AperFunction,SMDPad,CuDef*
G36*
G01*
X51650000Y-46714000D02*
X51650000Y-48164000D01*
G75*
G02*
X51575000Y-48239000I-75000J0D01*
G01*
X51425000Y-48239000D01*
G75*
G02*
X51350000Y-48164000I0J75000D01*
G01*
X51350000Y-46714000D01*
G75*
G02*
X51425000Y-46639000I75000J0D01*
G01*
X51575000Y-46639000D01*
G75*
G02*
X51650000Y-46714000I0J-75000D01*
G01*
G37*
G04 #@! TD.AperFunction*
G04 #@! TO.P,U4,77*
G04 #@! TO.N,/KEY-C8*
G04 #@! TA.AperFunction,SMDPad,CuDef*
G36*
G01*
X52150000Y-46714000D02*
X52150000Y-48164000D01*
G75*
G02*
X52075000Y-48239000I-75000J0D01*
G01*
X51925000Y-48239000D01*
G75*
G02*
X51850000Y-48164000I0J75000D01*
G01*
X51850000Y-46714000D01*
G75*
G02*
X51925000Y-46639000I75000J0D01*
G01*
X52075000Y-46639000D01*
G75*
G02*
X52150000Y-46714000I0J-75000D01*
G01*
G37*
G04 #@! TD.AperFunction*
G04 #@! TO.P,U4,78*
G04 #@! TO.N,/SDCARD-D2*
G04 #@! TA.AperFunction,SMDPad,CuDef*
G36*
G01*
X52650000Y-46714000D02*
X52650000Y-48164000D01*
G75*
G02*
X52575000Y-48239000I-75000J0D01*
G01*
X52425000Y-48239000D01*
G75*
G02*
X52350000Y-48164000I0J75000D01*
G01*
X52350000Y-46714000D01*
G75*
G02*
X52425000Y-46639000I75000J0D01*
G01*
X52575000Y-46639000D01*
G75*
G02*
X52650000Y-46714000I0J-75000D01*
G01*
G37*
G04 #@! TD.AperFunction*
G04 #@! TO.P,U4,79*
G04 #@! TO.N,/SDCARD-D3*
G04 #@! TA.AperFunction,SMDPad,CuDef*
G36*
G01*
X53150000Y-46714000D02*
X53150000Y-48164000D01*
G75*
G02*
X53075000Y-48239000I-75000J0D01*
G01*
X52925000Y-48239000D01*
G75*
G02*
X52850000Y-48164000I0J75000D01*
G01*
X52850000Y-46714000D01*
G75*
G02*
X52925000Y-46639000I75000J0D01*
G01*
X53075000Y-46639000D01*
G75*
G02*
X53150000Y-46714000I0J-75000D01*
G01*
G37*
G04 #@! TD.AperFunction*
G04 #@! TO.P,U4,80*
G04 #@! TO.N,/SDCARD-CK*
G04 #@! TA.AperFunction,SMDPad,CuDef*
G36*
G01*
X53650000Y-46714000D02*
X53650000Y-48164000D01*
G75*
G02*
X53575000Y-48239000I-75000J0D01*
G01*
X53425000Y-48239000D01*
G75*
G02*
X53350000Y-48164000I0J75000D01*
G01*
X53350000Y-46714000D01*
G75*
G02*
X53425000Y-46639000I75000J0D01*
G01*
X53575000Y-46639000D01*
G75*
G02*
X53650000Y-46714000I0J-75000D01*
G01*
G37*
G04 #@! TD.AperFunction*
G04 #@! TO.P,U4,81*
G04 #@! TO.N,/PD0*
G04 #@! TA.AperFunction,SMDPad,CuDef*
G36*
G01*
X54150000Y-46714000D02*
X54150000Y-48164000D01*
G75*
G02*
X54075000Y-48239000I-75000J0D01*
G01*
X53925000Y-48239000D01*
G75*
G02*
X53850000Y-48164000I0J75000D01*
G01*
X53850000Y-46714000D01*
G75*
G02*
X53925000Y-46639000I75000J0D01*
G01*
X54075000Y-46639000D01*
G75*
G02*
X54150000Y-46714000I0J-75000D01*
G01*
G37*
G04 #@! TD.AperFunction*
G04 #@! TO.P,U4,82*
G04 #@! TO.N,/PD1*
G04 #@! TA.AperFunction,SMDPad,CuDef*
G36*
G01*
X54650000Y-46714000D02*
X54650000Y-48164000D01*
G75*
G02*
X54575000Y-48239000I-75000J0D01*
G01*
X54425000Y-48239000D01*
G75*
G02*
X54350000Y-48164000I0J75000D01*
G01*
X54350000Y-46714000D01*
G75*
G02*
X54425000Y-46639000I75000J0D01*
G01*
X54575000Y-46639000D01*
G75*
G02*
X54650000Y-46714000I0J-75000D01*
G01*
G37*
G04 #@! TD.AperFunction*
G04 #@! TO.P,U4,83*
G04 #@! TO.N,/SDCARD-CMD*
G04 #@! TA.AperFunction,SMDPad,CuDef*
G36*
G01*
X55150000Y-46714000D02*
X55150000Y-48164000D01*
G75*
G02*
X55075000Y-48239000I-75000J0D01*
G01*
X54925000Y-48239000D01*
G75*
G02*
X54850000Y-48164000I0J75000D01*
G01*
X54850000Y-46714000D01*
G75*
G02*
X54925000Y-46639000I75000J0D01*
G01*
X55075000Y-46639000D01*
G75*
G02*
X55150000Y-46714000I0J-75000D01*
G01*
G37*
G04 #@! TD.AperFunction*
G04 #@! TO.P,U4,84*
G04 #@! TO.N,/KEY-C7*
G04 #@! TA.AperFunction,SMDPad,CuDef*
G36*
G01*
X55650000Y-46714000D02*
X55650000Y-48164000D01*
G75*
G02*
X55575000Y-48239000I-75000J0D01*
G01*
X55425000Y-48239000D01*
G75*
G02*
X55350000Y-48164000I0J75000D01*
G01*
X55350000Y-46714000D01*
G75*
G02*
X55425000Y-46639000I75000J0D01*
G01*
X55575000Y-46639000D01*
G75*
G02*
X55650000Y-46714000I0J-75000D01*
G01*
G37*
G04 #@! TD.AperFunction*
G04 #@! TO.P,U4,85*
G04 #@! TO.N,/KEY-C6*
G04 #@! TA.AperFunction,SMDPad,CuDef*
G36*
G01*
X56150000Y-46714000D02*
X56150000Y-48164000D01*
G75*
G02*
X56075000Y-48239000I-75000J0D01*
G01*
X55925000Y-48239000D01*
G75*
G02*
X55850000Y-48164000I0J75000D01*
G01*
X55850000Y-46714000D01*
G75*
G02*
X55925000Y-46639000I75000J0D01*
G01*
X56075000Y-46639000D01*
G75*
G02*
X56150000Y-46714000I0J-75000D01*
G01*
G37*
G04 #@! TD.AperFunction*
G04 #@! TO.P,U4,86*
G04 #@! TO.N,/KEY-C5*
G04 #@! TA.AperFunction,SMDPad,CuDef*
G36*
G01*
X56650000Y-46714000D02*
X56650000Y-48164000D01*
G75*
G02*
X56575000Y-48239000I-75000J0D01*
G01*
X56425000Y-48239000D01*
G75*
G02*
X56350000Y-48164000I0J75000D01*
G01*
X56350000Y-46714000D01*
G75*
G02*
X56425000Y-46639000I75000J0D01*
G01*
X56575000Y-46639000D01*
G75*
G02*
X56650000Y-46714000I0J-75000D01*
G01*
G37*
G04 #@! TD.AperFunction*
G04 #@! TO.P,U4,87*
G04 #@! TO.N,/KEY-C4*
G04 #@! TA.AperFunction,SMDPad,CuDef*
G36*
G01*
X57150000Y-46714000D02*
X57150000Y-48164000D01*
G75*
G02*
X57075000Y-48239000I-75000J0D01*
G01*
X56925000Y-48239000D01*
G75*
G02*
X56850000Y-48164000I0J75000D01*
G01*
X56850000Y-46714000D01*
G75*
G02*
X56925000Y-46639000I75000J0D01*
G01*
X57075000Y-46639000D01*
G75*
G02*
X57150000Y-46714000I0J-75000D01*
G01*
G37*
G04 #@! TD.AperFunction*
G04 #@! TO.P,U4,88*
G04 #@! TO.N,/KEY-C3*
G04 #@! TA.AperFunction,SMDPad,CuDef*
G36*
G01*
X57650000Y-46714000D02*
X57650000Y-48164000D01*
G75*
G02*
X57575000Y-48239000I-75000J0D01*
G01*
X57425000Y-48239000D01*
G75*
G02*
X57350000Y-48164000I0J75000D01*
G01*
X57350000Y-46714000D01*
G75*
G02*
X57425000Y-46639000I75000J0D01*
G01*
X57575000Y-46639000D01*
G75*
G02*
X57650000Y-46714000I0J-75000D01*
G01*
G37*
G04 #@! TD.AperFunction*
G04 #@! TO.P,U4,89*
G04 #@! TO.N,/KEY-C2*
G04 #@! TA.AperFunction,SMDPad,CuDef*
G36*
G01*
X58150000Y-46714000D02*
X58150000Y-48164000D01*
G75*
G02*
X58075000Y-48239000I-75000J0D01*
G01*
X57925000Y-48239000D01*
G75*
G02*
X57850000Y-48164000I0J75000D01*
G01*
X57850000Y-46714000D01*
G75*
G02*
X57925000Y-46639000I75000J0D01*
G01*
X58075000Y-46639000D01*
G75*
G02*
X58150000Y-46714000I0J-75000D01*
G01*
G37*
G04 #@! TD.AperFunction*
G04 #@! TO.P,U4,90*
G04 #@! TO.N,/KEY-C1*
G04 #@! TA.AperFunction,SMDPad,CuDef*
G36*
G01*
X58650000Y-46714000D02*
X58650000Y-48164000D01*
G75*
G02*
X58575000Y-48239000I-75000J0D01*
G01*
X58425000Y-48239000D01*
G75*
G02*
X58350000Y-48164000I0J75000D01*
G01*
X58350000Y-46714000D01*
G75*
G02*
X58425000Y-46639000I75000J0D01*
G01*
X58575000Y-46639000D01*
G75*
G02*
X58650000Y-46714000I0J-75000D01*
G01*
G37*
G04 #@! TD.AperFunction*
G04 #@! TO.P,U4,91*
G04 #@! TO.N,/PB5*
G04 #@! TA.AperFunction,SMDPad,CuDef*
G36*
G01*
X59150000Y-46714000D02*
X59150000Y-48164000D01*
G75*
G02*
X59075000Y-48239000I-75000J0D01*
G01*
X58925000Y-48239000D01*
G75*
G02*
X58850000Y-48164000I0J75000D01*
G01*
X58850000Y-46714000D01*
G75*
G02*
X58925000Y-46639000I75000J0D01*
G01*
X59075000Y-46639000D01*
G75*
G02*
X59150000Y-46714000I0J-75000D01*
G01*
G37*
G04 #@! TD.AperFunction*
G04 #@! TO.P,U4,92*
G04 #@! TO.N,/PB6*
G04 #@! TA.AperFunction,SMDPad,CuDef*
G36*
G01*
X59650000Y-46714000D02*
X59650000Y-48164000D01*
G75*
G02*
X59575000Y-48239000I-75000J0D01*
G01*
X59425000Y-48239000D01*
G75*
G02*
X59350000Y-48164000I0J75000D01*
G01*
X59350000Y-46714000D01*
G75*
G02*
X59425000Y-46639000I75000J0D01*
G01*
X59575000Y-46639000D01*
G75*
G02*
X59650000Y-46714000I0J-75000D01*
G01*
G37*
G04 #@! TD.AperFunction*
G04 #@! TO.P,U4,93*
G04 #@! TO.N,/PB7*
G04 #@! TA.AperFunction,SMDPad,CuDef*
G36*
G01*
X60150000Y-46714000D02*
X60150000Y-48164000D01*
G75*
G02*
X60075000Y-48239000I-75000J0D01*
G01*
X59925000Y-48239000D01*
G75*
G02*
X59850000Y-48164000I0J75000D01*
G01*
X59850000Y-46714000D01*
G75*
G02*
X59925000Y-46639000I75000J0D01*
G01*
X60075000Y-46639000D01*
G75*
G02*
X60150000Y-46714000I0J-75000D01*
G01*
G37*
G04 #@! TD.AperFunction*
G04 #@! TO.P,U4,94*
G04 #@! TO.N,/BOOT0*
G04 #@! TA.AperFunction,SMDPad,CuDef*
G36*
G01*
X60650000Y-46714000D02*
X60650000Y-48164000D01*
G75*
G02*
X60575000Y-48239000I-75000J0D01*
G01*
X60425000Y-48239000D01*
G75*
G02*
X60350000Y-48164000I0J75000D01*
G01*
X60350000Y-46714000D01*
G75*
G02*
X60425000Y-46639000I75000J0D01*
G01*
X60575000Y-46639000D01*
G75*
G02*
X60650000Y-46714000I0J-75000D01*
G01*
G37*
G04 #@! TD.AperFunction*
G04 #@! TO.P,U4,95*
G04 #@! TO.N,/KEY-R8*
G04 #@! TA.AperFunction,SMDPad,CuDef*
G36*
G01*
X61150000Y-46714000D02*
X61150000Y-48164000D01*
G75*
G02*
X61075000Y-48239000I-75000J0D01*
G01*
X60925000Y-48239000D01*
G75*
G02*
X60850000Y-48164000I0J75000D01*
G01*
X60850000Y-46714000D01*
G75*
G02*
X60925000Y-46639000I75000J0D01*
G01*
X61075000Y-46639000D01*
G75*
G02*
X61150000Y-46714000I0J-75000D01*
G01*
G37*
G04 #@! TD.AperFunction*
G04 #@! TO.P,U4,96*
G04 #@! TO.N,/KEY-R7*
G04 #@! TA.AperFunction,SMDPad,CuDef*
G36*
G01*
X61650000Y-46714000D02*
X61650000Y-48164000D01*
G75*
G02*
X61575000Y-48239000I-75000J0D01*
G01*
X61425000Y-48239000D01*
G75*
G02*
X61350000Y-48164000I0J75000D01*
G01*
X61350000Y-46714000D01*
G75*
G02*
X61425000Y-46639000I75000J0D01*
G01*
X61575000Y-46639000D01*
G75*
G02*
X61650000Y-46714000I0J-75000D01*
G01*
G37*
G04 #@! TD.AperFunction*
G04 #@! TO.P,U4,97*
G04 #@! TO.N,/KEY-R6*
G04 #@! TA.AperFunction,SMDPad,CuDef*
G36*
G01*
X62150000Y-46714000D02*
X62150000Y-48164000D01*
G75*
G02*
X62075000Y-48239000I-75000J0D01*
G01*
X61925000Y-48239000D01*
G75*
G02*
X61850000Y-48164000I0J75000D01*
G01*
X61850000Y-46714000D01*
G75*
G02*
X61925000Y-46639000I75000J0D01*
G01*
X62075000Y-46639000D01*
G75*
G02*
X62150000Y-46714000I0J-75000D01*
G01*
G37*
G04 #@! TD.AperFunction*
G04 #@! TO.P,U4,98*
G04 #@! TO.N,/KEY-R5*
G04 #@! TA.AperFunction,SMDPad,CuDef*
G36*
G01*
X62650000Y-46714000D02*
X62650000Y-48164000D01*
G75*
G02*
X62575000Y-48239000I-75000J0D01*
G01*
X62425000Y-48239000D01*
G75*
G02*
X62350000Y-48164000I0J75000D01*
G01*
X62350000Y-46714000D01*
G75*
G02*
X62425000Y-46639000I75000J0D01*
G01*
X62575000Y-46639000D01*
G75*
G02*
X62650000Y-46714000I0J-75000D01*
G01*
G37*
G04 #@! TD.AperFunction*
G04 #@! TO.P,U4,99*
G04 #@! TO.N,GND*
G04 #@! TA.AperFunction,SMDPad,CuDef*
G36*
G01*
X63150000Y-46714000D02*
X63150000Y-48164000D01*
G75*
G02*
X63075000Y-48239000I-75000J0D01*
G01*
X62925000Y-48239000D01*
G75*
G02*
X62850000Y-48164000I0J75000D01*
G01*
X62850000Y-46714000D01*
G75*
G02*
X62925000Y-46639000I75000J0D01*
G01*
X63075000Y-46639000D01*
G75*
G02*
X63150000Y-46714000I0J-75000D01*
G01*
G37*
G04 #@! TD.AperFunction*
G04 #@! TO.P,U4,100*
G04 #@! TO.N,+3V3*
G04 #@! TA.AperFunction,SMDPad,CuDef*
G36*
G01*
X63650000Y-46714000D02*
X63650000Y-48164000D01*
G75*
G02*
X63575000Y-48239000I-75000J0D01*
G01*
X63425000Y-48239000D01*
G75*
G02*
X63350000Y-48164000I0J75000D01*
G01*
X63350000Y-46714000D01*
G75*
G02*
X63425000Y-46639000I75000J0D01*
G01*
X63575000Y-46639000D01*
G75*
G02*
X63650000Y-46714000I0J-75000D01*
G01*
G37*
G04 #@! TD.AperFunction*
G04 #@! TD*
D12*
G04 #@! TO.P,H4,1*
G04 #@! TO.N,Net-(H4-Pad1)*
X92100000Y-16100000D03*
G04 #@! TD*
D13*
G04 #@! TO.P,H3,1*
G04 #@! TO.N,Net-(H3-Pad1)*
X90100000Y-56700000D03*
G04 #@! TD*
G04 #@! TO.P,H2,1*
G04 #@! TO.N,Net-(H2-Pad1)*
X16100000Y-70000000D03*
G04 #@! TD*
G04 #@! TO.P,H1,1*
G04 #@! TO.N,Net-(H1-Pad1)*
X44200000Y-3300000D03*
G04 #@! TD*
G04 #@! TO.P,C1,2*
G04 #@! TO.N,GND*
G04 #@! TA.AperFunction,SMDPad,CuDef*
G36*
G01*
X69667000Y-43430000D02*
X69667000Y-42930000D01*
G75*
G02*
X69892000Y-42705000I225000J0D01*
G01*
X70342000Y-42705000D01*
G75*
G02*
X70567000Y-42930000I0J-225000D01*
G01*
X70567000Y-43430000D01*
G75*
G02*
X70342000Y-43655000I-225000J0D01*
G01*
X69892000Y-43655000D01*
G75*
G02*
X69667000Y-43430000I0J225000D01*
G01*
G37*
G04 #@! TD.AperFunction*
G04 #@! TO.P,C1,1*
G04 #@! TO.N,+3V3*
G04 #@! TA.AperFunction,SMDPad,CuDef*
G36*
G01*
X68117000Y-43430000D02*
X68117000Y-42930000D01*
G75*
G02*
X68342000Y-42705000I225000J0D01*
G01*
X68792000Y-42705000D01*
G75*
G02*
X69017000Y-42930000I0J-225000D01*
G01*
X69017000Y-43430000D01*
G75*
G02*
X68792000Y-43655000I-225000J0D01*
G01*
X68342000Y-43655000D01*
G75*
G02*
X68117000Y-43430000I0J225000D01*
G01*
G37*
G04 #@! TD.AperFunction*
G04 #@! TD*
G04 #@! TO.P,C2,1*
G04 #@! TO.N,+3V3*
G04 #@! TA.AperFunction,SMDPad,CuDef*
G36*
G01*
X68117000Y-41398000D02*
X68117000Y-40898000D01*
G75*
G02*
X68342000Y-40673000I225000J0D01*
G01*
X68792000Y-40673000D01*
G75*
G02*
X69017000Y-40898000I0J-225000D01*
G01*
X69017000Y-41398000D01*
G75*
G02*
X68792000Y-41623000I-225000J0D01*
G01*
X68342000Y-41623000D01*
G75*
G02*
X68117000Y-41398000I0J225000D01*
G01*
G37*
G04 #@! TD.AperFunction*
G04 #@! TO.P,C2,2*
G04 #@! TO.N,GND*
G04 #@! TA.AperFunction,SMDPad,CuDef*
G36*
G01*
X69667000Y-41398000D02*
X69667000Y-40898000D01*
G75*
G02*
X69892000Y-40673000I225000J0D01*
G01*
X70342000Y-40673000D01*
G75*
G02*
X70567000Y-40898000I0J-225000D01*
G01*
X70567000Y-41398000D01*
G75*
G02*
X70342000Y-41623000I-225000J0D01*
G01*
X69892000Y-41623000D01*
G75*
G02*
X69667000Y-41398000I0J225000D01*
G01*
G37*
G04 #@! TD.AperFunction*
G04 #@! TD*
G04 #@! TO.P,C3,2*
G04 #@! TO.N,GND*
G04 #@! TA.AperFunction,SMDPad,CuDef*
G36*
G01*
X64587000Y-29206000D02*
X64587000Y-28706000D01*
G75*
G02*
X64812000Y-28481000I225000J0D01*
G01*
X65262000Y-28481000D01*
G75*
G02*
X65487000Y-28706000I0J-225000D01*
G01*
X65487000Y-29206000D01*
G75*
G02*
X65262000Y-29431000I-225000J0D01*
G01*
X64812000Y-29431000D01*
G75*
G02*
X64587000Y-29206000I0J225000D01*
G01*
G37*
G04 #@! TD.AperFunction*
G04 #@! TO.P,C3,1*
G04 #@! TO.N,+3V3*
G04 #@! TA.AperFunction,SMDPad,CuDef*
G36*
G01*
X63037000Y-29206000D02*
X63037000Y-28706000D01*
G75*
G02*
X63262000Y-28481000I225000J0D01*
G01*
X63712000Y-28481000D01*
G75*
G02*
X63937000Y-28706000I0J-225000D01*
G01*
X63937000Y-29206000D01*
G75*
G02*
X63712000Y-29431000I-225000J0D01*
G01*
X63262000Y-29431000D01*
G75*
G02*
X63037000Y-29206000I0J225000D01*
G01*
G37*
G04 #@! TD.AperFunction*
G04 #@! TD*
G04 #@! TO.P,C4,1*
G04 #@! TO.N,+3V3*
G04 #@! TA.AperFunction,SMDPad,CuDef*
G36*
G01*
X48503000Y-29056000D02*
X48503000Y-28556000D01*
G75*
G02*
X48728000Y-28331000I225000J0D01*
G01*
X49178000Y-28331000D01*
G75*
G02*
X49403000Y-28556000I0J-225000D01*
G01*
X49403000Y-29056000D01*
G75*
G02*
X49178000Y-29281000I-225000J0D01*
G01*
X48728000Y-29281000D01*
G75*
G02*
X48503000Y-29056000I0J225000D01*
G01*
G37*
G04 #@! TD.AperFunction*
G04 #@! TO.P,C4,2*
G04 #@! TO.N,GND*
G04 #@! TA.AperFunction,SMDPad,CuDef*
G36*
G01*
X50053000Y-29056000D02*
X50053000Y-28556000D01*
G75*
G02*
X50278000Y-28331000I225000J0D01*
G01*
X50728000Y-28331000D01*
G75*
G02*
X50953000Y-28556000I0J-225000D01*
G01*
X50953000Y-29056000D01*
G75*
G02*
X50728000Y-29281000I-225000J0D01*
G01*
X50278000Y-29281000D01*
G75*
G02*
X50053000Y-29056000I0J225000D01*
G01*
G37*
G04 #@! TD.AperFunction*
G04 #@! TD*
G04 #@! TO.P,C5,1*
G04 #@! TO.N,+3V3*
G04 #@! TA.AperFunction,SMDPad,CuDef*
G36*
G01*
X46732000Y-47707000D02*
X46232000Y-47707000D01*
G75*
G02*
X46007000Y-47482000I0J225000D01*
G01*
X46007000Y-47032000D01*
G75*
G02*
X46232000Y-46807000I225000J0D01*
G01*
X46732000Y-46807000D01*
G75*
G02*
X46957000Y-47032000I0J-225000D01*
G01*
X46957000Y-47482000D01*
G75*
G02*
X46732000Y-47707000I-225000J0D01*
G01*
G37*
G04 #@! TD.AperFunction*
G04 #@! TO.P,C5,2*
G04 #@! TO.N,GND*
G04 #@! TA.AperFunction,SMDPad,CuDef*
G36*
G01*
X46732000Y-46157000D02*
X46232000Y-46157000D01*
G75*
G02*
X46007000Y-45932000I0J225000D01*
G01*
X46007000Y-45482000D01*
G75*
G02*
X46232000Y-45257000I225000J0D01*
G01*
X46732000Y-45257000D01*
G75*
G02*
X46957000Y-45482000I0J-225000D01*
G01*
X46957000Y-45932000D01*
G75*
G02*
X46732000Y-46157000I-225000J0D01*
G01*
G37*
G04 #@! TD.AperFunction*
G04 #@! TD*
G04 #@! TO.P,C6,1*
G04 #@! TO.N,+3V3*
G04 #@! TA.AperFunction,SMDPad,CuDef*
G36*
G01*
X45208000Y-47720000D02*
X44708000Y-47720000D01*
G75*
G02*
X44483000Y-47495000I0J225000D01*
G01*
X44483000Y-47045000D01*
G75*
G02*
X44708000Y-46820000I225000J0D01*
G01*
X45208000Y-46820000D01*
G75*
G02*
X45433000Y-47045000I0J-225000D01*
G01*
X45433000Y-47495000D01*
G75*
G02*
X45208000Y-47720000I-225000J0D01*
G01*
G37*
G04 #@! TD.AperFunction*
G04 #@! TO.P,C6,2*
G04 #@! TO.N,GND*
G04 #@! TA.AperFunction,SMDPad,CuDef*
G36*
G01*
X45208000Y-46170000D02*
X44708000Y-46170000D01*
G75*
G02*
X44483000Y-45945000I0J225000D01*
G01*
X44483000Y-45495000D01*
G75*
G02*
X44708000Y-45270000I225000J0D01*
G01*
X45208000Y-45270000D01*
G75*
G02*
X45433000Y-45495000I0J-225000D01*
G01*
X45433000Y-45945000D01*
G75*
G02*
X45208000Y-46170000I-225000J0D01*
G01*
G37*
G04 #@! TD.AperFunction*
G04 #@! TD*
G04 #@! TO.P,C7,1*
G04 #@! TO.N,+3V3*
G04 #@! TA.AperFunction,SMDPad,CuDef*
G36*
G01*
X65487000Y-50296000D02*
X65487000Y-50796000D01*
G75*
G02*
X65262000Y-51021000I-225000J0D01*
G01*
X64812000Y-51021000D01*
G75*
G02*
X64587000Y-50796000I0J225000D01*
G01*
X64587000Y-50296000D01*
G75*
G02*
X64812000Y-50071000I225000J0D01*
G01*
X65262000Y-50071000D01*
G75*
G02*
X65487000Y-50296000I0J-225000D01*
G01*
G37*
G04 #@! TD.AperFunction*
G04 #@! TO.P,C7,2*
G04 #@! TO.N,GND*
G04 #@! TA.AperFunction,SMDPad,CuDef*
G36*
G01*
X63937000Y-50296000D02*
X63937000Y-50796000D01*
G75*
G02*
X63712000Y-51021000I-225000J0D01*
G01*
X63262000Y-51021000D01*
G75*
G02*
X63037000Y-50796000I0J225000D01*
G01*
X63037000Y-50296000D01*
G75*
G02*
X63262000Y-50071000I225000J0D01*
G01*
X63712000Y-50071000D01*
G75*
G02*
X63937000Y-50296000I0J-225000D01*
G01*
G37*
G04 #@! TD.AperFunction*
G04 #@! TD*
G04 #@! TO.P,C8,2*
G04 #@! TO.N,GND*
G04 #@! TA.AperFunction,SMDPad,CuDef*
G36*
G01*
X69667000Y-34540000D02*
X69667000Y-34040000D01*
G75*
G02*
X69892000Y-33815000I225000J0D01*
G01*
X70342000Y-33815000D01*
G75*
G02*
X70567000Y-34040000I0J-225000D01*
G01*
X70567000Y-34540000D01*
G75*
G02*
X70342000Y-34765000I-225000J0D01*
G01*
X69892000Y-34765000D01*
G75*
G02*
X69667000Y-34540000I0J225000D01*
G01*
G37*
G04 #@! TD.AperFunction*
G04 #@! TO.P,C8,1*
G04 #@! TO.N,/VDDA*
G04 #@! TA.AperFunction,SMDPad,CuDef*
G36*
G01*
X68117000Y-34540000D02*
X68117000Y-34040000D01*
G75*
G02*
X68342000Y-33815000I225000J0D01*
G01*
X68792000Y-33815000D01*
G75*
G02*
X69017000Y-34040000I0J-225000D01*
G01*
X69017000Y-34540000D01*
G75*
G02*
X68792000Y-34765000I-225000J0D01*
G01*
X68342000Y-34765000D01*
G75*
G02*
X68117000Y-34540000I0J225000D01*
G01*
G37*
G04 #@! TD.AperFunction*
G04 #@! TD*
G04 #@! TO.P,C9,1*
G04 #@! TO.N,/VDDA*
G04 #@! TA.AperFunction,SMDPad,CuDef*
G36*
G01*
X68117000Y-36064000D02*
X68117000Y-35564000D01*
G75*
G02*
X68342000Y-35339000I225000J0D01*
G01*
X68792000Y-35339000D01*
G75*
G02*
X69017000Y-35564000I0J-225000D01*
G01*
X69017000Y-36064000D01*
G75*
G02*
X68792000Y-36289000I-225000J0D01*
G01*
X68342000Y-36289000D01*
G75*
G02*
X68117000Y-36064000I0J225000D01*
G01*
G37*
G04 #@! TD.AperFunction*
G04 #@! TO.P,C9,2*
G04 #@! TO.N,GND*
G04 #@! TA.AperFunction,SMDPad,CuDef*
G36*
G01*
X69667000Y-36064000D02*
X69667000Y-35564000D01*
G75*
G02*
X69892000Y-35339000I225000J0D01*
G01*
X70342000Y-35339000D01*
G75*
G02*
X70567000Y-35564000I0J-225000D01*
G01*
X70567000Y-36064000D01*
G75*
G02*
X70342000Y-36289000I-225000J0D01*
G01*
X69892000Y-36289000D01*
G75*
G02*
X69667000Y-36064000I0J225000D01*
G01*
G37*
G04 #@! TD.AperFunction*
G04 #@! TD*
G04 #@! TO.P,C10,2*
G04 #@! TO.N,GND*
G04 #@! TA.AperFunction,SMDPad,CuDef*
G36*
G01*
X83163500Y-38933500D02*
X83163500Y-39433500D01*
G75*
G02*
X82938500Y-39658500I-225000J0D01*
G01*
X82488500Y-39658500D01*
G75*
G02*
X82263500Y-39433500I0J225000D01*
G01*
X82263500Y-38933500D01*
G75*
G02*
X82488500Y-38708500I225000J0D01*
G01*
X82938500Y-38708500D01*
G75*
G02*
X83163500Y-38933500I0J-225000D01*
G01*
G37*
G04 #@! TD.AperFunction*
G04 #@! TO.P,C10,1*
G04 #@! TO.N,/RESET*
G04 #@! TA.AperFunction,SMDPad,CuDef*
G36*
G01*
X84713500Y-38933500D02*
X84713500Y-39433500D01*
G75*
G02*
X84488500Y-39658500I-225000J0D01*
G01*
X84038500Y-39658500D01*
G75*
G02*
X83813500Y-39433500I0J225000D01*
G01*
X83813500Y-38933500D01*
G75*
G02*
X84038500Y-38708500I225000J0D01*
G01*
X84488500Y-38708500D01*
G75*
G02*
X84713500Y-38933500I0J-225000D01*
G01*
G37*
G04 #@! TD.AperFunction*
G04 #@! TD*
G04 #@! TO.P,C11,2*
G04 #@! TO.N,GND*
G04 #@! TA.AperFunction,SMDPad,CuDef*
G36*
G01*
X145500000Y-25215000D02*
X145000000Y-25215000D01*
G75*
G02*
X144775000Y-24990000I0J225000D01*
G01*
X144775000Y-24540000D01*
G75*
G02*
X145000000Y-24315000I225000J0D01*
G01*
X145500000Y-24315000D01*
G75*
G02*
X145725000Y-24540000I0J-225000D01*
G01*
X145725000Y-24990000D01*
G75*
G02*
X145500000Y-25215000I-225000J0D01*
G01*
G37*
G04 #@! TD.AperFunction*
G04 #@! TO.P,C11,1*
G04 #@! TO.N,/5VINT*
G04 #@! TA.AperFunction,SMDPad,CuDef*
G36*
G01*
X145500000Y-26765000D02*
X145000000Y-26765000D01*
G75*
G02*
X144775000Y-26540000I0J225000D01*
G01*
X144775000Y-26090000D01*
G75*
G02*
X145000000Y-25865000I225000J0D01*
G01*
X145500000Y-25865000D01*
G75*
G02*
X145725000Y-26090000I0J-225000D01*
G01*
X145725000Y-26540000D01*
G75*
G02*
X145500000Y-26765000I-225000J0D01*
G01*
G37*
G04 #@! TD.AperFunction*
G04 #@! TD*
G04 #@! TO.P,C12,2*
G04 #@! TO.N,GND*
G04 #@! TA.AperFunction,SMDPad,CuDef*
G36*
G01*
X143850001Y-25390000D02*
X141649999Y-25390000D01*
G75*
G02*
X141400000Y-25140001I0J249999D01*
G01*
X141400000Y-24489999D01*
G75*
G02*
X141649999Y-24240000I249999J0D01*
G01*
X143850001Y-24240000D01*
G75*
G02*
X144100000Y-24489999I0J-249999D01*
G01*
X144100000Y-25140001D01*
G75*
G02*
X143850001Y-25390000I-249999J0D01*
G01*
G37*
G04 #@! TD.AperFunction*
G04 #@! TO.P,C12,1*
G04 #@! TO.N,/5VINT*
G04 #@! TA.AperFunction,SMDPad,CuDef*
G36*
G01*
X143850001Y-28340000D02*
X141649999Y-28340000D01*
G75*
G02*
X141400000Y-28090001I0J249999D01*
G01*
X141400000Y-27439999D01*
G75*
G02*
X141649999Y-27190000I249999J0D01*
G01*
X143850001Y-27190000D01*
G75*
G02*
X144100000Y-27439999I0J-249999D01*
G01*
X144100000Y-28090001D01*
G75*
G02*
X143850001Y-28340000I-249999J0D01*
G01*
G37*
G04 #@! TD.AperFunction*
G04 #@! TD*
G04 #@! TO.P,C13,2*
G04 #@! TO.N,GND*
G04 #@! TA.AperFunction,SMDPad,CuDef*
G36*
G01*
X140350001Y-25390000D02*
X138149999Y-25390000D01*
G75*
G02*
X137900000Y-25140001I0J249999D01*
G01*
X137900000Y-24489999D01*
G75*
G02*
X138149999Y-24240000I249999J0D01*
G01*
X140350001Y-24240000D01*
G75*
G02*
X140600000Y-24489999I0J-249999D01*
G01*
X140600000Y-25140001D01*
G75*
G02*
X140350001Y-25390000I-249999J0D01*
G01*
G37*
G04 #@! TD.AperFunction*
G04 #@! TO.P,C13,1*
G04 #@! TO.N,/5VINT*
G04 #@! TA.AperFunction,SMDPad,CuDef*
G36*
G01*
X140350001Y-28340000D02*
X138149999Y-28340000D01*
G75*
G02*
X137900000Y-28090001I0J249999D01*
G01*
X137900000Y-27439999D01*
G75*
G02*
X138149999Y-27190000I249999J0D01*
G01*
X140350001Y-27190000D01*
G75*
G02*
X140600000Y-27439999I0J-249999D01*
G01*
X140600000Y-28090001D01*
G75*
G02*
X140350001Y-28340000I-249999J0D01*
G01*
G37*
G04 #@! TD.AperFunction*
G04 #@! TD*
G04 #@! TO.P,C14,1*
G04 #@! TO.N,/3-5V*
G04 #@! TA.AperFunction,SMDPad,CuDef*
G36*
G01*
X153350001Y-27340000D02*
X151149999Y-27340000D01*
G75*
G02*
X150900000Y-27090001I0J249999D01*
G01*
X150900000Y-26439999D01*
G75*
G02*
X151149999Y-26190000I249999J0D01*
G01*
X153350001Y-26190000D01*
G75*
G02*
X153600000Y-26439999I0J-249999D01*
G01*
X153600000Y-27090001D01*
G75*
G02*
X153350001Y-27340000I-249999J0D01*
G01*
G37*
G04 #@! TD.AperFunction*
G04 #@! TO.P,C14,2*
G04 #@! TO.N,GND*
G04 #@! TA.AperFunction,SMDPad,CuDef*
G36*
G01*
X153350001Y-24390000D02*
X151149999Y-24390000D01*
G75*
G02*
X150900000Y-24140001I0J249999D01*
G01*
X150900000Y-23489999D01*
G75*
G02*
X151149999Y-23240000I249999J0D01*
G01*
X153350001Y-23240000D01*
G75*
G02*
X153600000Y-23489999I0J-249999D01*
G01*
X153600000Y-24140001D01*
G75*
G02*
X153350001Y-24390000I-249999J0D01*
G01*
G37*
G04 #@! TD.AperFunction*
G04 #@! TD*
G04 #@! TO.P,C15,2*
G04 #@! TO.N,GND*
G04 #@! TA.AperFunction,SMDPad,CuDef*
G36*
G01*
X127825000Y-41350000D02*
X127825000Y-40850000D01*
G75*
G02*
X128050000Y-40625000I225000J0D01*
G01*
X128500000Y-40625000D01*
G75*
G02*
X128725000Y-40850000I0J-225000D01*
G01*
X128725000Y-41350000D01*
G75*
G02*
X128500000Y-41575000I-225000J0D01*
G01*
X128050000Y-41575000D01*
G75*
G02*
X127825000Y-41350000I0J225000D01*
G01*
G37*
G04 #@! TD.AperFunction*
G04 #@! TO.P,C15,1*
G04 #@! TO.N,+3V3*
G04 #@! TA.AperFunction,SMDPad,CuDef*
G36*
G01*
X126275000Y-41350000D02*
X126275000Y-40850000D01*
G75*
G02*
X126500000Y-40625000I225000J0D01*
G01*
X126950000Y-40625000D01*
G75*
G02*
X127175000Y-40850000I0J-225000D01*
G01*
X127175000Y-41350000D01*
G75*
G02*
X126950000Y-41575000I-225000J0D01*
G01*
X126500000Y-41575000D01*
G75*
G02*
X126275000Y-41350000I0J225000D01*
G01*
G37*
G04 #@! TD.AperFunction*
G04 #@! TD*
G04 #@! TO.P,C16,1*
G04 #@! TO.N,+3V3*
G04 #@! TA.AperFunction,SMDPad,CuDef*
G36*
G01*
X124700000Y-39700001D02*
X124700000Y-37499999D01*
G75*
G02*
X124949999Y-37250000I249999J0D01*
G01*
X125600001Y-37250000D01*
G75*
G02*
X125850000Y-37499999I0J-249999D01*
G01*
X125850000Y-39700001D01*
G75*
G02*
X125600001Y-39950000I-249999J0D01*
G01*
X124949999Y-39950000D01*
G75*
G02*
X124700000Y-39700001I0J249999D01*
G01*
G37*
G04 #@! TD.AperFunction*
G04 #@! TO.P,C16,2*
G04 #@! TO.N,GND*
G04 #@! TA.AperFunction,SMDPad,CuDef*
G36*
G01*
X127650000Y-39700001D02*
X127650000Y-37499999D01*
G75*
G02*
X127899999Y-37250000I249999J0D01*
G01*
X128550001Y-37250000D01*
G75*
G02*
X128800000Y-37499999I0J-249999D01*
G01*
X128800000Y-39700001D01*
G75*
G02*
X128550001Y-39950000I-249999J0D01*
G01*
X127899999Y-39950000D01*
G75*
G02*
X127650000Y-39700001I0J249999D01*
G01*
G37*
G04 #@! TD.AperFunction*
G04 #@! TD*
G04 #@! TO.P,C17,2*
G04 #@! TO.N,GND*
G04 #@! TA.AperFunction,SMDPad,CuDef*
G36*
G01*
X127650000Y-36200001D02*
X127650000Y-33999999D01*
G75*
G02*
X127899999Y-33750000I249999J0D01*
G01*
X128550001Y-33750000D01*
G75*
G02*
X128800000Y-33999999I0J-249999D01*
G01*
X128800000Y-36200001D01*
G75*
G02*
X128550001Y-36450000I-249999J0D01*
G01*
X127899999Y-36450000D01*
G75*
G02*
X127650000Y-36200001I0J249999D01*
G01*
G37*
G04 #@! TD.AperFunction*
G04 #@! TO.P,C17,1*
G04 #@! TO.N,+3V3*
G04 #@! TA.AperFunction,SMDPad,CuDef*
G36*
G01*
X124700000Y-36200001D02*
X124700000Y-33999999D01*
G75*
G02*
X124949999Y-33750000I249999J0D01*
G01*
X125600001Y-33750000D01*
G75*
G02*
X125850000Y-33999999I0J-249999D01*
G01*
X125850000Y-36200001D01*
G75*
G02*
X125600001Y-36450000I-249999J0D01*
G01*
X124949999Y-36450000D01*
G75*
G02*
X124700000Y-36200001I0J249999D01*
G01*
G37*
G04 #@! TD.AperFunction*
G04 #@! TD*
G04 #@! TO.P,C18,1*
G04 #@! TO.N,/USB5V*
G04 #@! TA.AperFunction,SMDPad,CuDef*
G36*
G01*
X160984000Y-23517000D02*
X161484000Y-23517000D01*
G75*
G02*
X161709000Y-23742000I0J-225000D01*
G01*
X161709000Y-24192000D01*
G75*
G02*
X161484000Y-24417000I-225000J0D01*
G01*
X160984000Y-24417000D01*
G75*
G02*
X160759000Y-24192000I0J225000D01*
G01*
X160759000Y-23742000D01*
G75*
G02*
X160984000Y-23517000I225000J0D01*
G01*
G37*
G04 #@! TD.AperFunction*
G04 #@! TO.P,C18,2*
G04 #@! TO.N,GND*
G04 #@! TA.AperFunction,SMDPad,CuDef*
G36*
G01*
X160984000Y-25067000D02*
X161484000Y-25067000D01*
G75*
G02*
X161709000Y-25292000I0J-225000D01*
G01*
X161709000Y-25742000D01*
G75*
G02*
X161484000Y-25967000I-225000J0D01*
G01*
X160984000Y-25967000D01*
G75*
G02*
X160759000Y-25742000I0J225000D01*
G01*
X160759000Y-25292000D01*
G75*
G02*
X160984000Y-25067000I225000J0D01*
G01*
G37*
G04 #@! TD.AperFunction*
G04 #@! TD*
G04 #@! TO.P,C20,2*
G04 #@! TO.N,GND*
G04 #@! TA.AperFunction,SMDPad,CuDef*
G36*
G01*
X130925000Y-30600000D02*
X130925000Y-31100000D01*
G75*
G02*
X130700000Y-31325000I-225000J0D01*
G01*
X130250000Y-31325000D01*
G75*
G02*
X130025000Y-31100000I0J225000D01*
G01*
X130025000Y-30600000D01*
G75*
G02*
X130250000Y-30375000I225000J0D01*
G01*
X130700000Y-30375000D01*
G75*
G02*
X130925000Y-30600000I0J-225000D01*
G01*
G37*
G04 #@! TD.AperFunction*
G04 #@! TO.P,C20,1*
G04 #@! TO.N,/5VINT*
G04 #@! TA.AperFunction,SMDPad,CuDef*
G36*
G01*
X132475000Y-30600000D02*
X132475000Y-31100000D01*
G75*
G02*
X132250000Y-31325000I-225000J0D01*
G01*
X131800000Y-31325000D01*
G75*
G02*
X131575000Y-31100000I0J225000D01*
G01*
X131575000Y-30600000D01*
G75*
G02*
X131800000Y-30375000I225000J0D01*
G01*
X132250000Y-30375000D01*
G75*
G02*
X132475000Y-30600000I0J-225000D01*
G01*
G37*
G04 #@! TD.AperFunction*
G04 #@! TD*
G04 #@! TO.P,C21,2*
G04 #@! TO.N,GND*
G04 #@! TA.AperFunction,SMDPad,CuDef*
G36*
G01*
X52518000Y-27719000D02*
X52018000Y-27719000D01*
G75*
G02*
X51793000Y-27494000I0J225000D01*
G01*
X51793000Y-27044000D01*
G75*
G02*
X52018000Y-26819000I225000J0D01*
G01*
X52518000Y-26819000D01*
G75*
G02*
X52743000Y-27044000I0J-225000D01*
G01*
X52743000Y-27494000D01*
G75*
G02*
X52518000Y-27719000I-225000J0D01*
G01*
G37*
G04 #@! TD.AperFunction*
G04 #@! TO.P,C21,1*
G04 #@! TO.N,Net-(C21-Pad1)*
G04 #@! TA.AperFunction,SMDPad,CuDef*
G36*
G01*
X52518000Y-29269000D02*
X52018000Y-29269000D01*
G75*
G02*
X51793000Y-29044000I0J225000D01*
G01*
X51793000Y-28594000D01*
G75*
G02*
X52018000Y-28369000I225000J0D01*
G01*
X52518000Y-28369000D01*
G75*
G02*
X52743000Y-28594000I0J-225000D01*
G01*
X52743000Y-29044000D01*
G75*
G02*
X52518000Y-29269000I-225000J0D01*
G01*
G37*
G04 #@! TD.AperFunction*
G04 #@! TD*
G04 #@! TO.P,C22,2*
G04 #@! TO.N,GND*
G04 #@! TA.AperFunction,SMDPad,CuDef*
G36*
G01*
X45413000Y-43946000D02*
X45413000Y-44446000D01*
G75*
G02*
X45188000Y-44671000I-225000J0D01*
G01*
X44738000Y-44671000D01*
G75*
G02*
X44513000Y-44446000I0J225000D01*
G01*
X44513000Y-43946000D01*
G75*
G02*
X44738000Y-43721000I225000J0D01*
G01*
X45188000Y-43721000D01*
G75*
G02*
X45413000Y-43946000I0J-225000D01*
G01*
G37*
G04 #@! TD.AperFunction*
G04 #@! TO.P,C22,1*
G04 #@! TO.N,Net-(C22-Pad1)*
G04 #@! TA.AperFunction,SMDPad,CuDef*
G36*
G01*
X46963000Y-43946000D02*
X46963000Y-44446000D01*
G75*
G02*
X46738000Y-44671000I-225000J0D01*
G01*
X46288000Y-44671000D01*
G75*
G02*
X46063000Y-44446000I0J225000D01*
G01*
X46063000Y-43946000D01*
G75*
G02*
X46288000Y-43721000I225000J0D01*
G01*
X46738000Y-43721000D01*
G75*
G02*
X46963000Y-43946000I0J-225000D01*
G01*
G37*
G04 #@! TD.AperFunction*
G04 #@! TD*
G04 #@! TO.P,C23,1*
G04 #@! TO.N,/OSC-IN*
G04 #@! TA.AperFunction,SMDPad,CuDef*
G36*
G01*
X79712000Y-41351000D02*
X79212000Y-41351000D01*
G75*
G02*
X78987000Y-41126000I0J225000D01*
G01*
X78987000Y-40676000D01*
G75*
G02*
X79212000Y-40451000I225000J0D01*
G01*
X79712000Y-40451000D01*
G75*
G02*
X79937000Y-40676000I0J-225000D01*
G01*
X79937000Y-41126000D01*
G75*
G02*
X79712000Y-41351000I-225000J0D01*
G01*
G37*
G04 #@! TD.AperFunction*
G04 #@! TO.P,C23,2*
G04 #@! TO.N,GND*
G04 #@! TA.AperFunction,SMDPad,CuDef*
G36*
G01*
X79712000Y-39801000D02*
X79212000Y-39801000D01*
G75*
G02*
X78987000Y-39576000I0J225000D01*
G01*
X78987000Y-39126000D01*
G75*
G02*
X79212000Y-38901000I225000J0D01*
G01*
X79712000Y-38901000D01*
G75*
G02*
X79937000Y-39126000I0J-225000D01*
G01*
X79937000Y-39576000D01*
G75*
G02*
X79712000Y-39801000I-225000J0D01*
G01*
G37*
G04 #@! TD.AperFunction*
G04 #@! TD*
G04 #@! TO.P,C24,1*
G04 #@! TO.N,/VDDA*
G04 #@! TA.AperFunction,SMDPad,CuDef*
G36*
G01*
X108975000Y-25000000D02*
X108975000Y-25500000D01*
G75*
G02*
X108750000Y-25725000I-225000J0D01*
G01*
X108300000Y-25725000D01*
G75*
G02*
X108075000Y-25500000I0J225000D01*
G01*
X108075000Y-25000000D01*
G75*
G02*
X108300000Y-24775000I225000J0D01*
G01*
X108750000Y-24775000D01*
G75*
G02*
X108975000Y-25000000I0J-225000D01*
G01*
G37*
G04 #@! TD.AperFunction*
G04 #@! TO.P,C24,2*
G04 #@! TO.N,GND*
G04 #@! TA.AperFunction,SMDPad,CuDef*
G36*
G01*
X107425000Y-25000000D02*
X107425000Y-25500000D01*
G75*
G02*
X107200000Y-25725000I-225000J0D01*
G01*
X106750000Y-25725000D01*
G75*
G02*
X106525000Y-25500000I0J225000D01*
G01*
X106525000Y-25000000D01*
G75*
G02*
X106750000Y-24775000I225000J0D01*
G01*
X107200000Y-24775000D01*
G75*
G02*
X107425000Y-25000000I0J-225000D01*
G01*
G37*
G04 #@! TD.AperFunction*
G04 #@! TD*
G04 #@! TO.P,C25,1*
G04 #@! TO.N,Net-(C25-Pad1)*
G04 #@! TA.AperFunction,SMDPad,CuDef*
G36*
G01*
X116250000Y-21925000D02*
X116750000Y-21925000D01*
G75*
G02*
X116975000Y-22150000I0J-225000D01*
G01*
X116975000Y-22600000D01*
G75*
G02*
X116750000Y-22825000I-225000J0D01*
G01*
X116250000Y-22825000D01*
G75*
G02*
X116025000Y-22600000I0J225000D01*
G01*
X116025000Y-22150000D01*
G75*
G02*
X116250000Y-21925000I225000J0D01*
G01*
G37*
G04 #@! TD.AperFunction*
G04 #@! TO.P,C25,2*
G04 #@! TO.N,GND*
G04 #@! TA.AperFunction,SMDPad,CuDef*
G36*
G01*
X116250000Y-23475000D02*
X116750000Y-23475000D01*
G75*
G02*
X116975000Y-23700000I0J-225000D01*
G01*
X116975000Y-24150000D01*
G75*
G02*
X116750000Y-24375000I-225000J0D01*
G01*
X116250000Y-24375000D01*
G75*
G02*
X116025000Y-24150000I0J225000D01*
G01*
X116025000Y-23700000D01*
G75*
G02*
X116250000Y-23475000I225000J0D01*
G01*
G37*
G04 #@! TD.AperFunction*
G04 #@! TD*
G04 #@! TO.P,C26,1*
G04 #@! TO.N,/OSC-OUT*
G04 #@! TA.AperFunction,SMDPad,CuDef*
G36*
G01*
X73612000Y-38851000D02*
X74112000Y-38851000D01*
G75*
G02*
X74337000Y-39076000I0J-225000D01*
G01*
X74337000Y-39526000D01*
G75*
G02*
X74112000Y-39751000I-225000J0D01*
G01*
X73612000Y-39751000D01*
G75*
G02*
X73387000Y-39526000I0J225000D01*
G01*
X73387000Y-39076000D01*
G75*
G02*
X73612000Y-38851000I225000J0D01*
G01*
G37*
G04 #@! TD.AperFunction*
G04 #@! TO.P,C26,2*
G04 #@! TO.N,GND*
G04 #@! TA.AperFunction,SMDPad,CuDef*
G36*
G01*
X73612000Y-40401000D02*
X74112000Y-40401000D01*
G75*
G02*
X74337000Y-40626000I0J-225000D01*
G01*
X74337000Y-41076000D01*
G75*
G02*
X74112000Y-41301000I-225000J0D01*
G01*
X73612000Y-41301000D01*
G75*
G02*
X73387000Y-41076000I0J225000D01*
G01*
X73387000Y-40626000D01*
G75*
G02*
X73612000Y-40401000I225000J0D01*
G01*
G37*
G04 #@! TD.AperFunction*
G04 #@! TD*
G04 #@! TO.P,C28,1*
G04 #@! TO.N,Net-(C28-Pad1)*
G04 #@! TA.AperFunction,SMDPad,CuDef*
G36*
G01*
X75621000Y-45810000D02*
X75621000Y-46310000D01*
G75*
G02*
X75396000Y-46535000I-225000J0D01*
G01*
X74946000Y-46535000D01*
G75*
G02*
X74721000Y-46310000I0J225000D01*
G01*
X74721000Y-45810000D01*
G75*
G02*
X74946000Y-45585000I225000J0D01*
G01*
X75396000Y-45585000D01*
G75*
G02*
X75621000Y-45810000I0J-225000D01*
G01*
G37*
G04 #@! TD.AperFunction*
G04 #@! TO.P,C28,2*
G04 #@! TO.N,GND*
G04 #@! TA.AperFunction,SMDPad,CuDef*
G36*
G01*
X74071000Y-45810000D02*
X74071000Y-46310000D01*
G75*
G02*
X73846000Y-46535000I-225000J0D01*
G01*
X73396000Y-46535000D01*
G75*
G02*
X73171000Y-46310000I0J225000D01*
G01*
X73171000Y-45810000D01*
G75*
G02*
X73396000Y-45585000I225000J0D01*
G01*
X73846000Y-45585000D01*
G75*
G02*
X74071000Y-45810000I0J-225000D01*
G01*
G37*
G04 #@! TD.AperFunction*
G04 #@! TD*
G04 #@! TO.P,C29,2*
G04 #@! TO.N,GND*
G04 #@! TA.AperFunction,SMDPad,CuDef*
G36*
G01*
X74071000Y-44060000D02*
X74071000Y-44560000D01*
G75*
G02*
X73846000Y-44785000I-225000J0D01*
G01*
X73396000Y-44785000D01*
G75*
G02*
X73171000Y-44560000I0J225000D01*
G01*
X73171000Y-44060000D01*
G75*
G02*
X73396000Y-43835000I225000J0D01*
G01*
X73846000Y-43835000D01*
G75*
G02*
X74071000Y-44060000I0J-225000D01*
G01*
G37*
G04 #@! TD.AperFunction*
G04 #@! TO.P,C29,1*
G04 #@! TO.N,Net-(C29-Pad1)*
G04 #@! TA.AperFunction,SMDPad,CuDef*
G36*
G01*
X75621000Y-44060000D02*
X75621000Y-44560000D01*
G75*
G02*
X75396000Y-44785000I-225000J0D01*
G01*
X74946000Y-44785000D01*
G75*
G02*
X74721000Y-44560000I0J225000D01*
G01*
X74721000Y-44060000D01*
G75*
G02*
X74946000Y-43835000I225000J0D01*
G01*
X75396000Y-43835000D01*
G75*
G02*
X75621000Y-44060000I0J-225000D01*
G01*
G37*
G04 #@! TD.AperFunction*
G04 #@! TD*
G04 #@! TO.P,C30,2*
G04 #@! TO.N,GND*
G04 #@! TA.AperFunction,SMDPad,CuDef*
G36*
G01*
X173225000Y-32350000D02*
X173225000Y-31850000D01*
G75*
G02*
X173450000Y-31625000I225000J0D01*
G01*
X173900000Y-31625000D01*
G75*
G02*
X174125000Y-31850000I0J-225000D01*
G01*
X174125000Y-32350000D01*
G75*
G02*
X173900000Y-32575000I-225000J0D01*
G01*
X173450000Y-32575000D01*
G75*
G02*
X173225000Y-32350000I0J225000D01*
G01*
G37*
G04 #@! TD.AperFunction*
G04 #@! TO.P,C30,1*
G04 #@! TO.N,+3V3*
G04 #@! TA.AperFunction,SMDPad,CuDef*
G36*
G01*
X171675000Y-32350000D02*
X171675000Y-31850000D01*
G75*
G02*
X171900000Y-31625000I225000J0D01*
G01*
X172350000Y-31625000D01*
G75*
G02*
X172575000Y-31850000I0J-225000D01*
G01*
X172575000Y-32350000D01*
G75*
G02*
X172350000Y-32575000I-225000J0D01*
G01*
X171900000Y-32575000D01*
G75*
G02*
X171675000Y-32350000I0J225000D01*
G01*
G37*
G04 #@! TD.AperFunction*
G04 #@! TD*
G04 #@! TO.P,C31,1*
G04 #@! TO.N,+3V3*
G04 #@! TA.AperFunction,SMDPad,CuDef*
G36*
G01*
X39613000Y-16991000D02*
X39613000Y-16491000D01*
G75*
G02*
X39838000Y-16266000I225000J0D01*
G01*
X40288000Y-16266000D01*
G75*
G02*
X40513000Y-16491000I0J-225000D01*
G01*
X40513000Y-16991000D01*
G75*
G02*
X40288000Y-17216000I-225000J0D01*
G01*
X39838000Y-17216000D01*
G75*
G02*
X39613000Y-16991000I0J225000D01*
G01*
G37*
G04 #@! TD.AperFunction*
G04 #@! TO.P,C31,2*
G04 #@! TO.N,GND*
G04 #@! TA.AperFunction,SMDPad,CuDef*
G36*
G01*
X41163000Y-16991000D02*
X41163000Y-16491000D01*
G75*
G02*
X41388000Y-16266000I225000J0D01*
G01*
X41838000Y-16266000D01*
G75*
G02*
X42063000Y-16491000I0J-225000D01*
G01*
X42063000Y-16991000D01*
G75*
G02*
X41838000Y-17216000I-225000J0D01*
G01*
X41388000Y-17216000D01*
G75*
G02*
X41163000Y-16991000I0J225000D01*
G01*
G37*
G04 #@! TD.AperFunction*
G04 #@! TD*
G04 #@! TO.P,D1,1*
G04 #@! TO.N,/3-5V*
G04 #@! TA.AperFunction,SMDPad,CuDef*
G36*
G01*
X159375000Y-27315000D02*
X158125000Y-27315000D01*
G75*
G02*
X157875000Y-27065000I0J250000D01*
G01*
X157875000Y-26315000D01*
G75*
G02*
X158125000Y-26065000I250000J0D01*
G01*
X159375000Y-26065000D01*
G75*
G02*
X159625000Y-26315000I0J-250000D01*
G01*
X159625000Y-27065000D01*
G75*
G02*
X159375000Y-27315000I-250000J0D01*
G01*
G37*
G04 #@! TD.AperFunction*
G04 #@! TO.P,D1,2*
G04 #@! TO.N,/USB5V*
G04 #@! TA.AperFunction,SMDPad,CuDef*
G36*
G01*
X159375000Y-24515000D02*
X158125000Y-24515000D01*
G75*
G02*
X157875000Y-24265000I0J250000D01*
G01*
X157875000Y-23515000D01*
G75*
G02*
X158125000Y-23265000I250000J0D01*
G01*
X159375000Y-23265000D01*
G75*
G02*
X159625000Y-23515000I0J-250000D01*
G01*
X159625000Y-24265000D01*
G75*
G02*
X159375000Y-24515000I-250000J0D01*
G01*
G37*
G04 #@! TD.AperFunction*
G04 #@! TD*
G04 #@! TO.P,D2,2*
G04 #@! TO.N,Net-(C25-Pad1)*
G04 #@! TA.AperFunction,SMDPad,CuDef*
G36*
G01*
X156375000Y-24515000D02*
X155125000Y-24515000D01*
G75*
G02*
X154875000Y-24265000I0J250000D01*
G01*
X154875000Y-23515000D01*
G75*
G02*
X155125000Y-23265000I250000J0D01*
G01*
X156375000Y-23265000D01*
G75*
G02*
X156625000Y-23515000I0J-250000D01*
G01*
X156625000Y-24265000D01*
G75*
G02*
X156375000Y-24515000I-250000J0D01*
G01*
G37*
G04 #@! TD.AperFunction*
G04 #@! TO.P,D2,1*
G04 #@! TO.N,/3-5V*
G04 #@! TA.AperFunction,SMDPad,CuDef*
G36*
G01*
X156375000Y-27315000D02*
X155125000Y-27315000D01*
G75*
G02*
X154875000Y-27065000I0J250000D01*
G01*
X154875000Y-26315000D01*
G75*
G02*
X155125000Y-26065000I250000J0D01*
G01*
X156375000Y-26065000D01*
G75*
G02*
X156625000Y-26315000I0J-250000D01*
G01*
X156625000Y-27065000D01*
G75*
G02*
X156375000Y-27315000I-250000J0D01*
G01*
G37*
G04 #@! TD.AperFunction*
G04 #@! TD*
G04 #@! TO.P,FB1,2*
G04 #@! TO.N,+3V3*
G04 #@! TA.AperFunction,SMDPad,CuDef*
G36*
G01*
X69692000Y-33022250D02*
X69692000Y-32509750D01*
G75*
G02*
X69910750Y-32291000I218750J0D01*
G01*
X70348250Y-32291000D01*
G75*
G02*
X70567000Y-32509750I0J-218750D01*
G01*
X70567000Y-33022250D01*
G75*
G02*
X70348250Y-33241000I-218750J0D01*
G01*
X69910750Y-33241000D01*
G75*
G02*
X69692000Y-33022250I0J218750D01*
G01*
G37*
G04 #@! TD.AperFunction*
G04 #@! TO.P,FB1,1*
G04 #@! TO.N,/VDDA*
G04 #@! TA.AperFunction,SMDPad,CuDef*
G36*
G01*
X68117000Y-33022250D02*
X68117000Y-32509750D01*
G75*
G02*
X68335750Y-32291000I218750J0D01*
G01*
X68773250Y-32291000D01*
G75*
G02*
X68992000Y-32509750I0J-218750D01*
G01*
X68992000Y-33022250D01*
G75*
G02*
X68773250Y-33241000I-218750J0D01*
G01*
X68335750Y-33241000D01*
G75*
G02*
X68117000Y-33022250I0J218750D01*
G01*
G37*
G04 #@! TD.AperFunction*
G04 #@! TD*
G04 #@! TO.P,FB2,1*
G04 #@! TO.N,/USB5V*
G04 #@! TA.AperFunction,SMDPad,CuDef*
G36*
G01*
X183377000Y-19882250D02*
X183377000Y-19369750D01*
G75*
G02*
X183595750Y-19151000I218750J0D01*
G01*
X184033250Y-19151000D01*
G75*
G02*
X184252000Y-19369750I0J-218750D01*
G01*
X184252000Y-19882250D01*
G75*
G02*
X184033250Y-20101000I-218750J0D01*
G01*
X183595750Y-20101000D01*
G75*
G02*
X183377000Y-19882250I0J218750D01*
G01*
G37*
G04 #@! TD.AperFunction*
G04 #@! TO.P,FB2,2*
G04 #@! TO.N,Net-(FB2-Pad2)*
G04 #@! TA.AperFunction,SMDPad,CuDef*
G36*
G01*
X184952000Y-19882250D02*
X184952000Y-19369750D01*
G75*
G02*
X185170750Y-19151000I218750J0D01*
G01*
X185608250Y-19151000D01*
G75*
G02*
X185827000Y-19369750I0J-218750D01*
G01*
X185827000Y-19882250D01*
G75*
G02*
X185608250Y-20101000I-218750J0D01*
G01*
X185170750Y-20101000D01*
G75*
G02*
X184952000Y-19882250I0J218750D01*
G01*
G37*
G04 #@! TD.AperFunction*
G04 #@! TD*
D14*
G04 #@! TO.P,J1,6*
G04 #@! TO.N,Earth_Protective*
X188337500Y-18600000D03*
X188337500Y-23600000D03*
D15*
X191037500Y-17600000D03*
X191037500Y-24600000D03*
G04 #@! TD*
D16*
G04 #@! TO.P,J2,1*
G04 #@! TO.N,/BAT+*
X104968000Y-19000000D03*
G04 #@! TD*
G04 #@! TO.P,J3,1*
G04 #@! TO.N,GND*
X15700000Y-2500000D03*
G04 #@! TD*
D17*
G04 #@! TO.P,J4,1*
G04 #@! TO.N,/KEY-C8*
X48400000Y-61600000D03*
G04 #@! TO.P,J4,2*
G04 #@! TO.N,/KEY-C7*
X49400000Y-61600000D03*
G04 #@! TO.P,J4,3*
G04 #@! TO.N,/KEY-C6*
X50400000Y-61600000D03*
G04 #@! TO.P,J4,4*
G04 #@! TO.N,/KEY-C5*
X51400000Y-61600000D03*
G04 #@! TO.P,J4,5*
G04 #@! TO.N,/KEY-C4*
X52400000Y-61600000D03*
G04 #@! TO.P,J4,6*
G04 #@! TO.N,/KEY-C3*
X53400000Y-61600000D03*
G04 #@! TO.P,J4,7*
G04 #@! TO.N,/KEY-C2*
X54400000Y-61600000D03*
G04 #@! TO.P,J4,8*
G04 #@! TO.N,/KEY-C1*
X55400000Y-61600000D03*
G04 #@! TO.P,J4,9*
G04 #@! TO.N,/KEY-R8*
X56400000Y-61600000D03*
G04 #@! TO.P,J4,10*
G04 #@! TO.N,/KEY-R7*
X57400000Y-61600000D03*
G04 #@! TO.P,J4,11*
G04 #@! TO.N,/KEY-R6*
X58400000Y-61600000D03*
G04 #@! TO.P,J4,12*
G04 #@! TO.N,/KEY-R5*
X59400000Y-61600000D03*
G04 #@! TO.P,J4,13*
G04 #@! TO.N,/KEY-R4*
X60400000Y-61600000D03*
G04 #@! TO.P,J4,14*
G04 #@! TO.N,/KEY-R3*
X61400000Y-61600000D03*
G04 #@! TO.P,J4,15*
G04 #@! TO.N,/KEY-R2*
X62400000Y-61600000D03*
G04 #@! TO.P,J4,16*
G04 #@! TO.N,/KEY-R1*
X63400000Y-61600000D03*
D18*
G04 #@! TO.P,J4,MP*
G04 #@! TO.N,N/C*
X45410000Y-64400000D03*
X66390000Y-64400000D03*
G04 #@! TD*
D17*
G04 #@! TO.P,J5,1*
G04 #@! TO.N,/LCD-5V*
X78074000Y-3300000D03*
G04 #@! TO.P,J5,2*
X79074000Y-3300000D03*
G04 #@! TO.P,J5,3*
X80074000Y-3300000D03*
G04 #@! TO.P,J5,4*
G04 #@! TO.N,/LCD-D0*
X81074000Y-3300000D03*
G04 #@! TO.P,J5,5*
G04 #@! TO.N,/LCD-D1*
X82074000Y-3300000D03*
G04 #@! TO.P,J5,6*
G04 #@! TO.N,/LCD-D2*
X83074000Y-3300000D03*
G04 #@! TO.P,J5,7*
G04 #@! TO.N,/LCD-D3*
X84074000Y-3300000D03*
G04 #@! TO.P,J5,8*
G04 #@! TO.N,/LCD-D4*
X85074000Y-3300000D03*
G04 #@! TO.P,J5,9*
G04 #@! TO.N,/LCD-D5*
X86074000Y-3300000D03*
G04 #@! TO.P,J5,10*
G04 #@! TO.N,/LCD-D6*
X87074000Y-3300000D03*
G04 #@! TO.P,J5,11*
G04 #@! TO.N,/LCD-D7*
X88074000Y-3300000D03*
G04 #@! TO.P,J5,12*
G04 #@! TO.N,/LCD-CTRPWM*
X89074000Y-3300000D03*
G04 #@! TO.P,J5,13*
G04 #@! TO.N,/SOUND-LATCH*
X90074000Y-3300000D03*
G04 #@! TO.P,J5,14*
G04 #@! TO.N,/LCD-RS*
X91074000Y-3300000D03*
G04 #@! TO.P,J5,15*
G04 #@! TO.N,/LCD-E*
X92074000Y-3300000D03*
G04 #@! TO.P,J5,16*
G04 #@! TO.N,/LCD-CS*
X93074000Y-3300000D03*
G04 #@! TO.P,J5,17*
G04 #@! TO.N,/LCD-R~W*
X94074000Y-3300000D03*
G04 #@! TO.P,J5,18*
G04 #@! TO.N,GND*
X95074000Y-3300000D03*
G04 #@! TO.P,J5,19*
X96074000Y-3300000D03*
G04 #@! TO.P,J5,20*
X97074000Y-3300000D03*
D18*
G04 #@! TO.P,J5,MP*
G04 #@! TO.N,N/C*
X75084000Y-6100000D03*
X100064000Y-6100000D03*
G04 #@! TD*
D16*
G04 #@! TO.P,J7,1*
G04 #@! TO.N,GND*
X172000000Y-51300000D03*
D19*
G04 #@! TO.P,J7,2*
G04 #@! TO.N,/RESET*
X172000000Y-53840000D03*
G04 #@! TO.P,J7,3*
G04 #@! TO.N,+3V3*
X172000000Y-56380000D03*
G04 #@! TO.P,J7,4*
G04 #@! TO.N,/BOOT0*
X172000000Y-58920000D03*
G04 #@! TO.P,J7,5*
G04 #@! TO.N,/SWDC*
X172000000Y-61460000D03*
G04 #@! TO.P,J7,6*
G04 #@! TO.N,/SWDIO*
X172000000Y-64000000D03*
G04 #@! TO.P,J7,7*
G04 #@! TO.N,/TRACE-RX*
X172000000Y-66540000D03*
G04 #@! TO.P,J7,8*
G04 #@! TO.N,/TRACE-TX*
X172000000Y-69080000D03*
G04 #@! TD*
D20*
G04 #@! TO.P,Q1,1*
G04 #@! TO.N,/CHARGE-PWM*
X124200000Y-20400000D03*
G04 #@! TO.P,Q1,2*
G04 #@! TO.N,Net-(D4-Pad1)*
X122300000Y-20400000D03*
G04 #@! TO.P,Q1,3*
G04 #@! TO.N,/USB5V*
X123250000Y-22400000D03*
G04 #@! TD*
D11*
G04 #@! TO.P,Q2,1*
G04 #@! TO.N,/LCD-ON*
X67429000Y-5642500D03*
G04 #@! TO.P,Q2,2*
G04 #@! TO.N,/LCD-5V*
X67429000Y-3742500D03*
G04 #@! TO.P,Q2,3*
G04 #@! TO.N,/5VINT*
X65429000Y-4692500D03*
G04 #@! TD*
G04 #@! TO.P,R1,2*
G04 #@! TO.N,+3V3*
G04 #@! TA.AperFunction,SMDPad,CuDef*
G36*
G01*
X87215500Y-39458500D02*
X87215500Y-38908500D01*
G75*
G02*
X87415500Y-38708500I200000J0D01*
G01*
X87815500Y-38708500D01*
G75*
G02*
X88015500Y-38908500I0J-200000D01*
G01*
X88015500Y-39458500D01*
G75*
G02*
X87815500Y-39658500I-200000J0D01*
G01*
X87415500Y-39658500D01*
G75*
G02*
X87215500Y-39458500I0J200000D01*
G01*
G37*
G04 #@! TD.AperFunction*
G04 #@! TO.P,R1,1*
G04 #@! TO.N,/RESET*
G04 #@! TA.AperFunction,SMDPad,CuDef*
G36*
G01*
X85565500Y-39458500D02*
X85565500Y-38908500D01*
G75*
G02*
X85765500Y-38708500I200000J0D01*
G01*
X86165500Y-38708500D01*
G75*
G02*
X86365500Y-38908500I0J-200000D01*
G01*
X86365500Y-39458500D01*
G75*
G02*
X86165500Y-39658500I-200000J0D01*
G01*
X85765500Y-39658500D01*
G75*
G02*
X85565500Y-39458500I0J200000D01*
G01*
G37*
G04 #@! TD.AperFunction*
G04 #@! TD*
G04 #@! TO.P,R2,2*
G04 #@! TO.N,Net-(R2-Pad2)*
G04 #@! TA.AperFunction,SMDPad,CuDef*
G36*
G01*
X131675000Y-38875000D02*
X131675000Y-38325000D01*
G75*
G02*
X131875000Y-38125000I200000J0D01*
G01*
X132275000Y-38125000D01*
G75*
G02*
X132475000Y-38325000I0J-200000D01*
G01*
X132475000Y-38875000D01*
G75*
G02*
X132275000Y-39075000I-200000J0D01*
G01*
X131875000Y-39075000D01*
G75*
G02*
X131675000Y-38875000I0J200000D01*
G01*
G37*
G04 #@! TD.AperFunction*
G04 #@! TO.P,R2,1*
G04 #@! TO.N,+3V3*
G04 #@! TA.AperFunction,SMDPad,CuDef*
G36*
G01*
X130025000Y-38875000D02*
X130025000Y-38325000D01*
G75*
G02*
X130225000Y-38125000I200000J0D01*
G01*
X130625000Y-38125000D01*
G75*
G02*
X130825000Y-38325000I0J-200000D01*
G01*
X130825000Y-38875000D01*
G75*
G02*
X130625000Y-39075000I-200000J0D01*
G01*
X130225000Y-39075000D01*
G75*
G02*
X130025000Y-38875000I0J200000D01*
G01*
G37*
G04 #@! TD.AperFunction*
G04 #@! TD*
G04 #@! TO.P,R3,1*
G04 #@! TO.N,/5VINT*
G04 #@! TA.AperFunction,SMDPad,CuDef*
G36*
G01*
X140025000Y-23315000D02*
X140025000Y-22765000D01*
G75*
G02*
X140225000Y-22565000I200000J0D01*
G01*
X140625000Y-22565000D01*
G75*
G02*
X140825000Y-22765000I0J-200000D01*
G01*
X140825000Y-23315000D01*
G75*
G02*
X140625000Y-23515000I-200000J0D01*
G01*
X140225000Y-23515000D01*
G75*
G02*
X140025000Y-23315000I0J200000D01*
G01*
G37*
G04 #@! TD.AperFunction*
G04 #@! TO.P,R3,2*
G04 #@! TO.N,Net-(R3-Pad2)*
G04 #@! TA.AperFunction,SMDPad,CuDef*
G36*
G01*
X141675000Y-23315000D02*
X141675000Y-22765000D01*
G75*
G02*
X141875000Y-22565000I200000J0D01*
G01*
X142275000Y-22565000D01*
G75*
G02*
X142475000Y-22765000I0J-200000D01*
G01*
X142475000Y-23315000D01*
G75*
G02*
X142275000Y-23515000I-200000J0D01*
G01*
X141875000Y-23515000D01*
G75*
G02*
X141675000Y-23315000I0J200000D01*
G01*
G37*
G04 #@! TD.AperFunction*
G04 #@! TD*
G04 #@! TO.P,R5,2*
G04 #@! TO.N,/BOOT0*
G04 #@! TA.AperFunction,SMDPad,CuDef*
G36*
G01*
X74975000Y-58025000D02*
X74975000Y-58575000D01*
G75*
G02*
X74775000Y-58775000I-200000J0D01*
G01*
X74375000Y-58775000D01*
G75*
G02*
X74175000Y-58575000I0J200000D01*
G01*
X74175000Y-58025000D01*
G75*
G02*
X74375000Y-57825000I200000J0D01*
G01*
X74775000Y-57825000D01*
G75*
G02*
X74975000Y-58025000I0J-200000D01*
G01*
G37*
G04 #@! TD.AperFunction*
G04 #@! TO.P,R5,1*
G04 #@! TO.N,GND*
G04 #@! TA.AperFunction,SMDPad,CuDef*
G36*
G01*
X76625000Y-58025000D02*
X76625000Y-58575000D01*
G75*
G02*
X76425000Y-58775000I-200000J0D01*
G01*
X76025000Y-58775000D01*
G75*
G02*
X75825000Y-58575000I0J200000D01*
G01*
X75825000Y-58025000D01*
G75*
G02*
X76025000Y-57825000I200000J0D01*
G01*
X76425000Y-57825000D01*
G75*
G02*
X76625000Y-58025000I0J-200000D01*
G01*
G37*
G04 #@! TD.AperFunction*
G04 #@! TD*
G04 #@! TO.P,R6,1*
G04 #@! TO.N,Net-(R2-Pad2)*
G04 #@! TA.AperFunction,SMDPad,CuDef*
G36*
G01*
X132475000Y-36575000D02*
X132475000Y-37125000D01*
G75*
G02*
X132275000Y-37325000I-200000J0D01*
G01*
X131875000Y-37325000D01*
G75*
G02*
X131675000Y-37125000I0J200000D01*
G01*
X131675000Y-36575000D01*
G75*
G02*
X131875000Y-36375000I200000J0D01*
G01*
X132275000Y-36375000D01*
G75*
G02*
X132475000Y-36575000I0J-200000D01*
G01*
G37*
G04 #@! TD.AperFunction*
G04 #@! TO.P,R6,2*
G04 #@! TO.N,GND*
G04 #@! TA.AperFunction,SMDPad,CuDef*
G36*
G01*
X130825000Y-36575000D02*
X130825000Y-37125000D01*
G75*
G02*
X130625000Y-37325000I-200000J0D01*
G01*
X130225000Y-37325000D01*
G75*
G02*
X130025000Y-37125000I0J200000D01*
G01*
X130025000Y-36575000D01*
G75*
G02*
X130225000Y-36375000I200000J0D01*
G01*
X130625000Y-36375000D01*
G75*
G02*
X130825000Y-36575000I0J-200000D01*
G01*
G37*
G04 #@! TD.AperFunction*
G04 #@! TD*
G04 #@! TO.P,R7,2*
G04 #@! TO.N,GND*
G04 #@! TA.AperFunction,SMDPad,CuDef*
G36*
G01*
X144925000Y-23315000D02*
X144925000Y-22765000D01*
G75*
G02*
X145125000Y-22565000I200000J0D01*
G01*
X145525000Y-22565000D01*
G75*
G02*
X145725000Y-22765000I0J-200000D01*
G01*
X145725000Y-23315000D01*
G75*
G02*
X145525000Y-23515000I-200000J0D01*
G01*
X145125000Y-23515000D01*
G75*
G02*
X144925000Y-23315000I0J200000D01*
G01*
G37*
G04 #@! TD.AperFunction*
G04 #@! TO.P,R7,1*
G04 #@! TO.N,Net-(R3-Pad2)*
G04 #@! TA.AperFunction,SMDPad,CuDef*
G36*
G01*
X143275000Y-23315000D02*
X143275000Y-22765000D01*
G75*
G02*
X143475000Y-22565000I200000J0D01*
G01*
X143875000Y-22565000D01*
G75*
G02*
X144075000Y-22765000I0J-200000D01*
G01*
X144075000Y-23315000D01*
G75*
G02*
X143875000Y-23515000I-200000J0D01*
G01*
X143475000Y-23515000D01*
G75*
G02*
X143275000Y-23315000I0J200000D01*
G01*
G37*
G04 #@! TD.AperFunction*
G04 #@! TD*
G04 #@! TO.P,R9,2*
G04 #@! TO.N,/USB5V*
G04 #@! TA.AperFunction,SMDPad,CuDef*
G36*
G01*
X125725000Y-21825000D02*
X126275000Y-21825000D01*
G75*
G02*
X126475000Y-22025000I0J-200000D01*
G01*
X126475000Y-22425000D01*
G75*
G02*
X126275000Y-22625000I-200000J0D01*
G01*
X125725000Y-22625000D01*
G75*
G02*
X125525000Y-22425000I0J200000D01*
G01*
X125525000Y-22025000D01*
G75*
G02*
X125725000Y-21825000I200000J0D01*
G01*
G37*
G04 #@! TD.AperFunction*
G04 #@! TO.P,R9,1*
G04 #@! TO.N,/CHARGE-PWM*
G04 #@! TA.AperFunction,SMDPad,CuDef*
G36*
G01*
X125725000Y-20175000D02*
X126275000Y-20175000D01*
G75*
G02*
X126475000Y-20375000I0J-200000D01*
G01*
X126475000Y-20775000D01*
G75*
G02*
X126275000Y-20975000I-200000J0D01*
G01*
X125725000Y-20975000D01*
G75*
G02*
X125525000Y-20775000I0J200000D01*
G01*
X125525000Y-20375000D01*
G75*
G02*
X125725000Y-20175000I200000J0D01*
G01*
G37*
G04 #@! TD.AperFunction*
G04 #@! TD*
G04 #@! TO.P,R11,1*
G04 #@! TO.N,/VDDA*
G04 #@! TA.AperFunction,SMDPad,CuDef*
G36*
G01*
X109025000Y-23975000D02*
X108475000Y-23975000D01*
G75*
G02*
X108275000Y-23775000I0J200000D01*
G01*
X108275000Y-23375000D01*
G75*
G02*
X108475000Y-23175000I200000J0D01*
G01*
X109025000Y-23175000D01*
G75*
G02*
X109225000Y-23375000I0J-200000D01*
G01*
X109225000Y-23775000D01*
G75*
G02*
X109025000Y-23975000I-200000J0D01*
G01*
G37*
G04 #@! TD.AperFunction*
G04 #@! TO.P,R11,2*
G04 #@! TO.N,Net-(R11-Pad2)*
G04 #@! TA.AperFunction,SMDPad,CuDef*
G36*
G01*
X109025000Y-22325000D02*
X108475000Y-22325000D01*
G75*
G02*
X108275000Y-22125000I0J200000D01*
G01*
X108275000Y-21725000D01*
G75*
G02*
X108475000Y-21525000I200000J0D01*
G01*
X109025000Y-21525000D01*
G75*
G02*
X109225000Y-21725000I0J-200000D01*
G01*
X109225000Y-22125000D01*
G75*
G02*
X109025000Y-22325000I-200000J0D01*
G01*
G37*
G04 #@! TD.AperFunction*
G04 #@! TD*
G04 #@! TO.P,R12,1*
G04 #@! TO.N,Net-(R11-Pad2)*
G04 #@! TA.AperFunction,SMDPad,CuDef*
G36*
G01*
X106725000Y-21525000D02*
X107275000Y-21525000D01*
G75*
G02*
X107475000Y-21725000I0J-200000D01*
G01*
X107475000Y-22125000D01*
G75*
G02*
X107275000Y-22325000I-200000J0D01*
G01*
X106725000Y-22325000D01*
G75*
G02*
X106525000Y-22125000I0J200000D01*
G01*
X106525000Y-21725000D01*
G75*
G02*
X106725000Y-21525000I200000J0D01*
G01*
G37*
G04 #@! TD.AperFunction*
G04 #@! TO.P,R12,2*
G04 #@! TO.N,GND*
G04 #@! TA.AperFunction,SMDPad,CuDef*
G36*
G01*
X106725000Y-23175000D02*
X107275000Y-23175000D01*
G75*
G02*
X107475000Y-23375000I0J-200000D01*
G01*
X107475000Y-23775000D01*
G75*
G02*
X107275000Y-23975000I-200000J0D01*
G01*
X106725000Y-23975000D01*
G75*
G02*
X106525000Y-23775000I0J200000D01*
G01*
X106525000Y-23375000D01*
G75*
G02*
X106725000Y-23175000I200000J0D01*
G01*
G37*
G04 #@! TD.AperFunction*
G04 #@! TD*
G04 #@! TO.P,R13,2*
G04 #@! TO.N,/ADC-BAT*
G04 #@! TA.AperFunction,SMDPad,CuDef*
G36*
G01*
X88927000Y-29801000D02*
X88927000Y-30351000D01*
G75*
G02*
X88727000Y-30551000I-200000J0D01*
G01*
X88327000Y-30551000D01*
G75*
G02*
X88127000Y-30351000I0J200000D01*
G01*
X88127000Y-29801000D01*
G75*
G02*
X88327000Y-29601000I200000J0D01*
G01*
X88727000Y-29601000D01*
G75*
G02*
X88927000Y-29801000I0J-200000D01*
G01*
G37*
G04 #@! TD.AperFunction*
G04 #@! TO.P,R13,1*
G04 #@! TO.N,/BAT+*
G04 #@! TA.AperFunction,SMDPad,CuDef*
G36*
G01*
X90577000Y-29801000D02*
X90577000Y-30351000D01*
G75*
G02*
X90377000Y-30551000I-200000J0D01*
G01*
X89977000Y-30551000D01*
G75*
G02*
X89777000Y-30351000I0J200000D01*
G01*
X89777000Y-29801000D01*
G75*
G02*
X89977000Y-29601000I200000J0D01*
G01*
X90377000Y-29601000D01*
G75*
G02*
X90577000Y-29801000I0J-200000D01*
G01*
G37*
G04 #@! TD.AperFunction*
G04 #@! TD*
G04 #@! TO.P,R14,1*
G04 #@! TO.N,/ADC-BAT*
G04 #@! TA.AperFunction,SMDPad,CuDef*
G36*
G01*
X87529000Y-29801000D02*
X87529000Y-30351000D01*
G75*
G02*
X87329000Y-30551000I-200000J0D01*
G01*
X86929000Y-30551000D01*
G75*
G02*
X86729000Y-30351000I0J200000D01*
G01*
X86729000Y-29801000D01*
G75*
G02*
X86929000Y-29601000I200000J0D01*
G01*
X87329000Y-29601000D01*
G75*
G02*
X87529000Y-29801000I0J-200000D01*
G01*
G37*
G04 #@! TD.AperFunction*
G04 #@! TO.P,R14,2*
G04 #@! TO.N,GND*
G04 #@! TA.AperFunction,SMDPad,CuDef*
G36*
G01*
X85879000Y-29801000D02*
X85879000Y-30351000D01*
G75*
G02*
X85679000Y-30551000I-200000J0D01*
G01*
X85279000Y-30551000D01*
G75*
G02*
X85079000Y-30351000I0J200000D01*
G01*
X85079000Y-29801000D01*
G75*
G02*
X85279000Y-29601000I200000J0D01*
G01*
X85679000Y-29601000D01*
G75*
G02*
X85879000Y-29801000I0J-200000D01*
G01*
G37*
G04 #@! TD.AperFunction*
G04 #@! TD*
G04 #@! TO.P,R15,1*
G04 #@! TO.N,/LCD-ON*
G04 #@! TA.AperFunction,SMDPad,CuDef*
G36*
G01*
X67654000Y-7417500D02*
X67654000Y-7967500D01*
G75*
G02*
X67454000Y-8167500I-200000J0D01*
G01*
X67054000Y-8167500D01*
G75*
G02*
X66854000Y-7967500I0J200000D01*
G01*
X66854000Y-7417500D01*
G75*
G02*
X67054000Y-7217500I200000J0D01*
G01*
X67454000Y-7217500D01*
G75*
G02*
X67654000Y-7417500I0J-200000D01*
G01*
G37*
G04 #@! TD.AperFunction*
G04 #@! TO.P,R15,2*
G04 #@! TO.N,/5VINT*
G04 #@! TA.AperFunction,SMDPad,CuDef*
G36*
G01*
X66004000Y-7417500D02*
X66004000Y-7967500D01*
G75*
G02*
X65804000Y-8167500I-200000J0D01*
G01*
X65404000Y-8167500D01*
G75*
G02*
X65204000Y-7967500I0J200000D01*
G01*
X65204000Y-7417500D01*
G75*
G02*
X65404000Y-7217500I200000J0D01*
G01*
X65804000Y-7217500D01*
G75*
G02*
X66004000Y-7417500I0J-200000D01*
G01*
G37*
G04 #@! TD.AperFunction*
G04 #@! TD*
G04 #@! TO.P,R20,2*
G04 #@! TO.N,+3V3*
G04 #@! TA.AperFunction,SMDPad,CuDef*
G36*
G01*
X172509000Y-35525000D02*
X172509000Y-36075000D01*
G75*
G02*
X172309000Y-36275000I-200000J0D01*
G01*
X171909000Y-36275000D01*
G75*
G02*
X171709000Y-36075000I0J200000D01*
G01*
X171709000Y-35525000D01*
G75*
G02*
X171909000Y-35325000I200000J0D01*
G01*
X172309000Y-35325000D01*
G75*
G02*
X172509000Y-35525000I0J-200000D01*
G01*
G37*
G04 #@! TD.AperFunction*
G04 #@! TO.P,R20,1*
G04 #@! TO.N,/SDCARD-D3*
G04 #@! TA.AperFunction,SMDPad,CuDef*
G36*
G01*
X174159000Y-35525000D02*
X174159000Y-36075000D01*
G75*
G02*
X173959000Y-36275000I-200000J0D01*
G01*
X173559000Y-36275000D01*
G75*
G02*
X173359000Y-36075000I0J200000D01*
G01*
X173359000Y-35525000D01*
G75*
G02*
X173559000Y-35325000I200000J0D01*
G01*
X173959000Y-35325000D01*
G75*
G02*
X174159000Y-35525000I0J-200000D01*
G01*
G37*
G04 #@! TD.AperFunction*
G04 #@! TD*
G04 #@! TO.P,R21,1*
G04 #@! TO.N,/SDCARD-D2*
G04 #@! TA.AperFunction,SMDPad,CuDef*
G36*
G01*
X174159000Y-37125000D02*
X174159000Y-37675000D01*
G75*
G02*
X173959000Y-37875000I-200000J0D01*
G01*
X173559000Y-37875000D01*
G75*
G02*
X173359000Y-37675000I0J200000D01*
G01*
X173359000Y-37125000D01*
G75*
G02*
X173559000Y-36925000I200000J0D01*
G01*
X173959000Y-36925000D01*
G75*
G02*
X174159000Y-37125000I0J-200000D01*
G01*
G37*
G04 #@! TD.AperFunction*
G04 #@! TO.P,R21,2*
G04 #@! TO.N,+3V3*
G04 #@! TA.AperFunction,SMDPad,CuDef*
G36*
G01*
X172509000Y-37125000D02*
X172509000Y-37675000D01*
G75*
G02*
X172309000Y-37875000I-200000J0D01*
G01*
X171909000Y-37875000D01*
G75*
G02*
X171709000Y-37675000I0J200000D01*
G01*
X171709000Y-37125000D01*
G75*
G02*
X171909000Y-36925000I200000J0D01*
G01*
X172309000Y-36925000D01*
G75*
G02*
X172509000Y-37125000I0J-200000D01*
G01*
G37*
G04 #@! TD.AperFunction*
G04 #@! TD*
G04 #@! TO.P,R22,2*
G04 #@! TO.N,+3V3*
G04 #@! TA.AperFunction,SMDPad,CuDef*
G36*
G01*
X172475000Y-28625000D02*
X172475000Y-29175000D01*
G75*
G02*
X172275000Y-29375000I-200000J0D01*
G01*
X171875000Y-29375000D01*
G75*
G02*
X171675000Y-29175000I0J200000D01*
G01*
X171675000Y-28625000D01*
G75*
G02*
X171875000Y-28425000I200000J0D01*
G01*
X172275000Y-28425000D01*
G75*
G02*
X172475000Y-28625000I0J-200000D01*
G01*
G37*
G04 #@! TD.AperFunction*
G04 #@! TO.P,R22,1*
G04 #@! TO.N,/SDCARD-D1*
G04 #@! TA.AperFunction,SMDPad,CuDef*
G36*
G01*
X174125000Y-28625000D02*
X174125000Y-29175000D01*
G75*
G02*
X173925000Y-29375000I-200000J0D01*
G01*
X173525000Y-29375000D01*
G75*
G02*
X173325000Y-29175000I0J200000D01*
G01*
X173325000Y-28625000D01*
G75*
G02*
X173525000Y-28425000I200000J0D01*
G01*
X173925000Y-28425000D01*
G75*
G02*
X174125000Y-28625000I0J-200000D01*
G01*
G37*
G04 #@! TD.AperFunction*
G04 #@! TD*
G04 #@! TO.P,R23,1*
G04 #@! TO.N,/SDCARD-D0*
G04 #@! TA.AperFunction,SMDPad,CuDef*
G36*
G01*
X174125000Y-30225000D02*
X174125000Y-30775000D01*
G75*
G02*
X173925000Y-30975000I-200000J0D01*
G01*
X173525000Y-30975000D01*
G75*
G02*
X173325000Y-30775000I0J200000D01*
G01*
X173325000Y-30225000D01*
G75*
G02*
X173525000Y-30025000I200000J0D01*
G01*
X173925000Y-30025000D01*
G75*
G02*
X174125000Y-30225000I0J-200000D01*
G01*
G37*
G04 #@! TD.AperFunction*
G04 #@! TO.P,R23,2*
G04 #@! TO.N,+3V3*
G04 #@! TA.AperFunction,SMDPad,CuDef*
G36*
G01*
X172475000Y-30225000D02*
X172475000Y-30775000D01*
G75*
G02*
X172275000Y-30975000I-200000J0D01*
G01*
X171875000Y-30975000D01*
G75*
G02*
X171675000Y-30775000I0J200000D01*
G01*
X171675000Y-30225000D01*
G75*
G02*
X171875000Y-30025000I200000J0D01*
G01*
X172275000Y-30025000D01*
G75*
G02*
X172475000Y-30225000I0J-200000D01*
G01*
G37*
G04 #@! TD.AperFunction*
G04 #@! TD*
G04 #@! TO.P,R24,2*
G04 #@! TO.N,+3V3*
G04 #@! TA.AperFunction,SMDPad,CuDef*
G36*
G01*
X172509000Y-33925000D02*
X172509000Y-34475000D01*
G75*
G02*
X172309000Y-34675000I-200000J0D01*
G01*
X171909000Y-34675000D01*
G75*
G02*
X171709000Y-34475000I0J200000D01*
G01*
X171709000Y-33925000D01*
G75*
G02*
X171909000Y-33725000I200000J0D01*
G01*
X172309000Y-33725000D01*
G75*
G02*
X172509000Y-33925000I0J-200000D01*
G01*
G37*
G04 #@! TD.AperFunction*
G04 #@! TO.P,R24,1*
G04 #@! TO.N,/SDCARD-CMD*
G04 #@! TA.AperFunction,SMDPad,CuDef*
G36*
G01*
X174159000Y-33925000D02*
X174159000Y-34475000D01*
G75*
G02*
X173959000Y-34675000I-200000J0D01*
G01*
X173559000Y-34675000D01*
G75*
G02*
X173359000Y-34475000I0J200000D01*
G01*
X173359000Y-33925000D01*
G75*
G02*
X173559000Y-33725000I200000J0D01*
G01*
X173959000Y-33725000D01*
G75*
G02*
X174159000Y-33925000I0J-200000D01*
G01*
G37*
G04 #@! TD.AperFunction*
G04 #@! TD*
G04 #@! TO.P,R25,1*
G04 #@! TO.N,/LED1*
G04 #@! TA.AperFunction,SMDPad,CuDef*
G36*
G01*
X176775000Y-47275000D02*
X176775000Y-46725000D01*
G75*
G02*
X176975000Y-46525000I200000J0D01*
G01*
X177375000Y-46525000D01*
G75*
G02*
X177575000Y-46725000I0J-200000D01*
G01*
X177575000Y-47275000D01*
G75*
G02*
X177375000Y-47475000I-200000J0D01*
G01*
X176975000Y-47475000D01*
G75*
G02*
X176775000Y-47275000I0J200000D01*
G01*
G37*
G04 #@! TD.AperFunction*
G04 #@! TO.P,R25,2*
G04 #@! TO.N,Net-(D3-Pad1)*
G04 #@! TA.AperFunction,SMDPad,CuDef*
G36*
G01*
X178425000Y-47275000D02*
X178425000Y-46725000D01*
G75*
G02*
X178625000Y-46525000I200000J0D01*
G01*
X179025000Y-46525000D01*
G75*
G02*
X179225000Y-46725000I0J-200000D01*
G01*
X179225000Y-47275000D01*
G75*
G02*
X179025000Y-47475000I-200000J0D01*
G01*
X178625000Y-47475000D01*
G75*
G02*
X178425000Y-47275000I0J200000D01*
G01*
G37*
G04 #@! TD.AperFunction*
G04 #@! TD*
G04 #@! TO.P,R26,1*
G04 #@! TO.N,/QSPI-CS*
G04 #@! TA.AperFunction,SMDPad,CuDef*
G36*
G01*
X36057000Y-17016000D02*
X36057000Y-16466000D01*
G75*
G02*
X36257000Y-16266000I200000J0D01*
G01*
X36657000Y-16266000D01*
G75*
G02*
X36857000Y-16466000I0J-200000D01*
G01*
X36857000Y-17016000D01*
G75*
G02*
X36657000Y-17216000I-200000J0D01*
G01*
X36257000Y-17216000D01*
G75*
G02*
X36057000Y-17016000I0J200000D01*
G01*
G37*
G04 #@! TD.AperFunction*
G04 #@! TO.P,R26,2*
G04 #@! TO.N,+3V3*
G04 #@! TA.AperFunction,SMDPad,CuDef*
G36*
G01*
X37707000Y-17016000D02*
X37707000Y-16466000D01*
G75*
G02*
X37907000Y-16266000I200000J0D01*
G01*
X38307000Y-16266000D01*
G75*
G02*
X38507000Y-16466000I0J-200000D01*
G01*
X38507000Y-17016000D01*
G75*
G02*
X38307000Y-17216000I-200000J0D01*
G01*
X37907000Y-17216000D01*
G75*
G02*
X37707000Y-17016000I0J200000D01*
G01*
G37*
G04 #@! TD.AperFunction*
G04 #@! TD*
D21*
G04 #@! TO.P,U2,1*
G04 #@! TO.N,/5VINT*
X132200000Y-32750000D03*
G04 #@! TO.P,U2,2*
G04 #@! TO.N,GND*
X131250000Y-32750000D03*
G04 #@! TO.P,U2,3*
G04 #@! TO.N,Net-(L2-Pad1)*
X130300000Y-32750000D03*
G04 #@! TO.P,U2,4*
G04 #@! TO.N,/5VINT*
X130300000Y-34950000D03*
G04 #@! TO.P,U2,5*
G04 #@! TO.N,Net-(R2-Pad2)*
X132200000Y-34950000D03*
G04 #@! TD*
D22*
G04 #@! TO.P,U3,1*
G04 #@! TO.N,Net-(R4-Pad1)*
X112850000Y-22700000D03*
G04 #@! TO.P,U3,2*
G04 #@! TO.N,GND*
X112850000Y-21750000D03*
G04 #@! TO.P,U3,3*
G04 #@! TO.N,Net-(C25-Pad1)*
X112850000Y-20800000D03*
G04 #@! TO.P,U3,4*
G04 #@! TO.N,/BAT+*
X110650000Y-20800000D03*
G04 #@! TO.P,U3,6*
G04 #@! TO.N,/VDDA*
X110650000Y-22700000D03*
G04 #@! TO.P,U3,5*
G04 #@! TO.N,Net-(R11-Pad2)*
X110650000Y-21750000D03*
G04 #@! TD*
D23*
G04 #@! TO.P,Y1,1*
G04 #@! TO.N,/OSC-OUT*
X75812000Y-38926000D03*
G04 #@! TO.P,Y1,2*
G04 #@! TO.N,GND*
X75812000Y-41126000D03*
G04 #@! TO.P,Y1,3*
G04 #@! TO.N,/OSC-IN*
X77512000Y-41126000D03*
G04 #@! TO.P,Y1,4*
G04 #@! TO.N,GND*
X77512000Y-38926000D03*
G04 #@! TD*
D24*
G04 #@! TO.P,Y2,1*
G04 #@! TO.N,Net-(C28-Pad1)*
X76896000Y-46060000D03*
G04 #@! TO.P,Y2,2*
G04 #@! TO.N,Net-(C29-Pad1)*
X76896000Y-44160000D03*
D25*
G04 #@! TO.P,Y2,3*
G04 #@! TO.N,N/C*
X82396000Y-45110000D03*
G04 #@! TD*
G04 #@! TO.P,U5,1*
G04 #@! TO.N,/QSPI-CS*
G04 #@! TA.AperFunction,SMDPad,CuDef*
G36*
G01*
X33108000Y-19744000D02*
X33108000Y-19444000D01*
G75*
G02*
X33258000Y-19294000I150000J0D01*
G01*
X34858000Y-19294000D01*
G75*
G02*
X35008000Y-19444000I0J-150000D01*
G01*
X35008000Y-19744000D01*
G75*
G02*
X34858000Y-19894000I-150000J0D01*
G01*
X33258000Y-19894000D01*
G75*
G02*
X33108000Y-19744000I0J150000D01*
G01*
G37*
G04 #@! TD.AperFunction*
G04 #@! TO.P,U5,2*
G04 #@! TO.N,/QSPI-IO1*
G04 #@! TA.AperFunction,SMDPad,CuDef*
G36*
G01*
X33108000Y-21014000D02*
X33108000Y-20714000D01*
G75*
G02*
X33258000Y-20564000I150000J0D01*
G01*
X34858000Y-20564000D01*
G75*
G02*
X35008000Y-20714000I0J-150000D01*
G01*
X35008000Y-21014000D01*
G75*
G02*
X34858000Y-21164000I-150000J0D01*
G01*
X33258000Y-21164000D01*
G75*
G02*
X33108000Y-21014000I0J150000D01*
G01*
G37*
G04 #@! TD.AperFunction*
G04 #@! TO.P,U5,3*
G04 #@! TO.N,/QSPI-IO2*
G04 #@! TA.AperFunction,SMDPad,CuDef*
G36*
G01*
X33108000Y-22284000D02*
X33108000Y-21984000D01*
G75*
G02*
X33258000Y-21834000I150000J0D01*
G01*
X34858000Y-21834000D01*
G75*
G02*
X35008000Y-21984000I0J-150000D01*
G01*
X35008000Y-22284000D01*
G75*
G02*
X34858000Y-22434000I-150000J0D01*
G01*
X33258000Y-22434000D01*
G75*
G02*
X33108000Y-22284000I0J150000D01*
G01*
G37*
G04 #@! TD.AperFunction*
G04 #@! TO.P,U5,4*
G04 #@! TO.N,GND*
G04 #@! TA.AperFunction,SMDPad,CuDef*
G36*
G01*
X33108000Y-23554000D02*
X33108000Y-23254000D01*
G75*
G02*
X33258000Y-23104000I150000J0D01*
G01*
X34858000Y-23104000D01*
G75*
G02*
X35008000Y-23254000I0J-150000D01*
G01*
X35008000Y-23554000D01*
G75*
G02*
X34858000Y-23704000I-150000J0D01*
G01*
X33258000Y-23704000D01*
G75*
G02*
X33108000Y-23554000I0J150000D01*
G01*
G37*
G04 #@! TD.AperFunction*
G04 #@! TO.P,U5,5*
G04 #@! TO.N,/QSPI-IO0*
G04 #@! TA.AperFunction,SMDPad,CuDef*
G36*
G01*
X40108000Y-23554000D02*
X40108000Y-23254000D01*
G75*
G02*
X40258000Y-23104000I150000J0D01*
G01*
X41858000Y-23104000D01*
G75*
G02*
X42008000Y-23254000I0J-150000D01*
G01*
X42008000Y-23554000D01*
G75*
G02*
X41858000Y-23704000I-150000J0D01*
G01*
X40258000Y-23704000D01*
G75*
G02*
X40108000Y-23554000I0J150000D01*
G01*
G37*
G04 #@! TD.AperFunction*
G04 #@! TO.P,U5,6*
G04 #@! TO.N,/QSPI-CLK*
G04 #@! TA.AperFunction,SMDPad,CuDef*
G36*
G01*
X40108000Y-22284000D02*
X40108000Y-21984000D01*
G75*
G02*
X40258000Y-21834000I150000J0D01*
G01*
X41858000Y-21834000D01*
G75*
G02*
X42008000Y-21984000I0J-150000D01*
G01*
X42008000Y-22284000D01*
G75*
G02*
X41858000Y-22434000I-150000J0D01*
G01*
X40258000Y-22434000D01*
G75*
G02*
X40108000Y-22284000I0J150000D01*
G01*
G37*
G04 #@! TD.AperFunction*
G04 #@! TO.P,U5,7*
G04 #@! TO.N,/QSPI-IO3*
G04 #@! TA.AperFunction,SMDPad,CuDef*
G36*
G01*
X40108000Y-21014000D02*
X40108000Y-20714000D01*
G75*
G02*
X40258000Y-20564000I150000J0D01*
G01*
X41858000Y-20564000D01*
G75*
G02*
X42008000Y-20714000I0J-150000D01*
G01*
X42008000Y-21014000D01*
G75*
G02*
X41858000Y-21164000I-150000J0D01*
G01*
X40258000Y-21164000D01*
G75*
G02*
X40108000Y-21014000I0J150000D01*
G01*
G37*
G04 #@! TD.AperFunction*
G04 #@! TO.P,U5,8*
G04 #@! TO.N,+3V3*
G04 #@! TA.AperFunction,SMDPad,CuDef*
G36*
G01*
X40108000Y-19744000D02*
X40108000Y-19444000D01*
G75*
G02*
X40258000Y-19294000I150000J0D01*
G01*
X41858000Y-19294000D01*
G75*
G02*
X42008000Y-19444000I0J-150000D01*
G01*
X42008000Y-19744000D01*
G75*
G02*
X41858000Y-19894000I-150000J0D01*
G01*
X40258000Y-19894000D01*
G75*
G02*
X40108000Y-19744000I0J150000D01*
G01*
G37*
G04 #@! TD.AperFunction*
G04 #@! TD*
D26*
G04 #@! TO.P,J6,1*
G04 #@! TO.N,/5VINT*
X9900000Y-13100000D03*
G04 #@! TO.P,J6,3*
G04 #@! TO.N,GND*
X9900000Y-15640000D03*
G04 #@! TO.P,J6,5*
G04 #@! TO.N,+3V3*
X9900000Y-18180000D03*
G04 #@! TO.P,J6,7*
G04 #@! TO.N,/PA1*
X9900000Y-20720000D03*
G04 #@! TO.P,J6,9*
G04 #@! TO.N,/PA3*
X9900000Y-23260000D03*
G04 #@! TO.P,J6,11*
G04 #@! TO.N,/PA5*
X9900000Y-25800000D03*
G04 #@! TO.P,J6,13*
G04 #@! TO.N,/PA7*
X9900000Y-28340000D03*
G04 #@! TO.P,J6,15*
G04 #@! TO.N,/PB5*
X9900000Y-30880000D03*
G04 #@! TO.P,J6,17*
G04 #@! TO.N,/PB7*
X9900000Y-33420000D03*
G04 #@! TO.P,J6,19*
G04 #@! TO.N,/PB12*
X9900000Y-35960000D03*
G04 #@! TO.P,J6,21*
G04 #@! TO.N,/PB14*
X9900000Y-38500000D03*
G04 #@! TO.P,J6,23*
G04 #@! TO.N,/PC1*
X9900000Y-41040000D03*
G04 #@! TO.P,J6,25*
G04 #@! TO.N,/PC5*
X9900000Y-43580000D03*
G04 #@! TO.P,J6,27*
G04 #@! TO.N,/PD1*
X9900000Y-46120000D03*
G04 #@! TO.P,J6,29*
G04 #@! TO.N,+3V3*
X9900000Y-48660000D03*
G04 #@! TO.P,J6,31*
G04 #@! TO.N,GND*
X9900000Y-51200000D03*
G04 #@! TD*
G04 #@! TO.P,C32,1*
G04 #@! TO.N,/I-CHARGE*
G04 #@! TA.AperFunction,SMDPad,CuDef*
G36*
G01*
X87529000Y-32874000D02*
X87529000Y-33374000D01*
G75*
G02*
X87304000Y-33599000I-225000J0D01*
G01*
X86854000Y-33599000D01*
G75*
G02*
X86629000Y-33374000I0J225000D01*
G01*
X86629000Y-32874000D01*
G75*
G02*
X86854000Y-32649000I225000J0D01*
G01*
X87304000Y-32649000D01*
G75*
G02*
X87529000Y-32874000I0J-225000D01*
G01*
G37*
G04 #@! TD.AperFunction*
G04 #@! TO.P,C32,2*
G04 #@! TO.N,GND*
G04 #@! TA.AperFunction,SMDPad,CuDef*
G36*
G01*
X85979000Y-32874000D02*
X85979000Y-33374000D01*
G75*
G02*
X85754000Y-33599000I-225000J0D01*
G01*
X85304000Y-33599000D01*
G75*
G02*
X85079000Y-33374000I0J225000D01*
G01*
X85079000Y-32874000D01*
G75*
G02*
X85304000Y-32649000I225000J0D01*
G01*
X85754000Y-32649000D01*
G75*
G02*
X85979000Y-32874000I0J-225000D01*
G01*
G37*
G04 #@! TD.AperFunction*
G04 #@! TD*
G04 #@! TO.P,R19,2*
G04 #@! TO.N,/ADC-5V*
G04 #@! TA.AperFunction,SMDPad,CuDef*
G36*
G01*
X88927000Y-35897000D02*
X88927000Y-36447000D01*
G75*
G02*
X88727000Y-36647000I-200000J0D01*
G01*
X88327000Y-36647000D01*
G75*
G02*
X88127000Y-36447000I0J200000D01*
G01*
X88127000Y-35897000D01*
G75*
G02*
X88327000Y-35697000I200000J0D01*
G01*
X88727000Y-35697000D01*
G75*
G02*
X88927000Y-35897000I0J-200000D01*
G01*
G37*
G04 #@! TD.AperFunction*
G04 #@! TO.P,R19,1*
G04 #@! TO.N,/USB5V*
G04 #@! TA.AperFunction,SMDPad,CuDef*
G36*
G01*
X90577000Y-35897000D02*
X90577000Y-36447000D01*
G75*
G02*
X90377000Y-36647000I-200000J0D01*
G01*
X89977000Y-36647000D01*
G75*
G02*
X89777000Y-36447000I0J200000D01*
G01*
X89777000Y-35897000D01*
G75*
G02*
X89977000Y-35697000I200000J0D01*
G01*
X90377000Y-35697000D01*
G75*
G02*
X90577000Y-35897000I0J-200000D01*
G01*
G37*
G04 #@! TD.AperFunction*
G04 #@! TD*
G04 #@! TO.P,R27,1*
G04 #@! TO.N,/ADC-5V*
G04 #@! TA.AperFunction,SMDPad,CuDef*
G36*
G01*
X87529000Y-35897000D02*
X87529000Y-36447000D01*
G75*
G02*
X87329000Y-36647000I-200000J0D01*
G01*
X86929000Y-36647000D01*
G75*
G02*
X86729000Y-36447000I0J200000D01*
G01*
X86729000Y-35897000D01*
G75*
G02*
X86929000Y-35697000I200000J0D01*
G01*
X87329000Y-35697000D01*
G75*
G02*
X87529000Y-35897000I0J-200000D01*
G01*
G37*
G04 #@! TD.AperFunction*
G04 #@! TO.P,R27,2*
G04 #@! TO.N,GND*
G04 #@! TA.AperFunction,SMDPad,CuDef*
G36*
G01*
X85879000Y-35897000D02*
X85879000Y-36447000D01*
G75*
G02*
X85679000Y-36647000I-200000J0D01*
G01*
X85279000Y-36647000D01*
G75*
G02*
X85079000Y-36447000I0J200000D01*
G01*
X85079000Y-35897000D01*
G75*
G02*
X85279000Y-35697000I200000J0D01*
G01*
X85679000Y-35697000D01*
G75*
G02*
X85879000Y-35897000I0J-200000D01*
G01*
G37*
G04 #@! TD.AperFunction*
G04 #@! TD*
G04 #@! TO.P,D4,1*
G04 #@! TO.N,Net-(D4-Pad1)*
G04 #@! TA.AperFunction,SMDPad,CuDef*
G36*
G01*
X118625000Y-21675000D02*
X119875000Y-21675000D01*
G75*
G02*
X120125000Y-21925000I0J-250000D01*
G01*
X120125000Y-22675000D01*
G75*
G02*
X119875000Y-22925000I-250000J0D01*
G01*
X118625000Y-22925000D01*
G75*
G02*
X118375000Y-22675000I0J250000D01*
G01*
X118375000Y-21925000D01*
G75*
G02*
X118625000Y-21675000I250000J0D01*
G01*
G37*
G04 #@! TD.AperFunction*
G04 #@! TO.P,D4,2*
G04 #@! TO.N,GND*
G04 #@! TA.AperFunction,SMDPad,CuDef*
G36*
G01*
X118625000Y-24475000D02*
X119875000Y-24475000D01*
G75*
G02*
X120125000Y-24725000I0J-250000D01*
G01*
X120125000Y-25475000D01*
G75*
G02*
X119875000Y-25725000I-250000J0D01*
G01*
X118625000Y-25725000D01*
G75*
G02*
X118375000Y-25475000I0J250000D01*
G01*
X118375000Y-24725000D01*
G75*
G02*
X118625000Y-24475000I250000J0D01*
G01*
G37*
G04 #@! TD.AperFunction*
G04 #@! TD*
D16*
G04 #@! TO.P,J9,1*
G04 #@! TO.N,GND*
X20700000Y-2500000D03*
G04 #@! TD*
G04 #@! TO.P,C33,1*
G04 #@! TO.N,Net-(C33-Pad1)*
G04 #@! TA.AperFunction,SMDPad,CuDef*
G36*
G01*
X149225000Y-21790000D02*
X149225000Y-22290000D01*
G75*
G02*
X149000000Y-22515000I-225000J0D01*
G01*
X148550000Y-22515000D01*
G75*
G02*
X148325000Y-22290000I0J225000D01*
G01*
X148325000Y-21790000D01*
G75*
G02*
X148550000Y-21565000I225000J0D01*
G01*
X149000000Y-21565000D01*
G75*
G02*
X149225000Y-21790000I0J-225000D01*
G01*
G37*
G04 #@! TD.AperFunction*
G04 #@! TO.P,C33,2*
G04 #@! TO.N,GND*
G04 #@! TA.AperFunction,SMDPad,CuDef*
G36*
G01*
X147675000Y-21790000D02*
X147675000Y-22290000D01*
G75*
G02*
X147450000Y-22515000I-225000J0D01*
G01*
X147000000Y-22515000D01*
G75*
G02*
X146775000Y-22290000I0J225000D01*
G01*
X146775000Y-21790000D01*
G75*
G02*
X147000000Y-21565000I225000J0D01*
G01*
X147450000Y-21565000D01*
G75*
G02*
X147675000Y-21790000I0J-225000D01*
G01*
G37*
G04 #@! TD.AperFunction*
G04 #@! TD*
G04 #@! TO.P,U1,1*
G04 #@! TO.N,/5VINT*
G04 #@! TA.AperFunction,SMDPad,CuDef*
G36*
G01*
X147062500Y-26665000D02*
X146937500Y-26665000D01*
G75*
G02*
X146875000Y-26602500I0J62500D01*
G01*
X146875000Y-25902500D01*
G75*
G02*
X146937500Y-25840000I62500J0D01*
G01*
X147062500Y-25840000D01*
G75*
G02*
X147125000Y-25902500I0J-62500D01*
G01*
X147125000Y-26602500D01*
G75*
G02*
X147062500Y-26665000I-62500J0D01*
G01*
G37*
G04 #@! TD.AperFunction*
G04 #@! TO.P,U1,2*
G04 #@! TO.N,Net-(L1-Pad2)*
G04 #@! TA.AperFunction,SMDPad,CuDef*
G36*
G01*
X147562500Y-26665000D02*
X147437500Y-26665000D01*
G75*
G02*
X147375000Y-26602500I0J62500D01*
G01*
X147375000Y-25902500D01*
G75*
G02*
X147437500Y-25840000I62500J0D01*
G01*
X147562500Y-25840000D01*
G75*
G02*
X147625000Y-25902500I0J-62500D01*
G01*
X147625000Y-26602500D01*
G75*
G02*
X147562500Y-26665000I-62500J0D01*
G01*
G37*
G04 #@! TD.AperFunction*
G04 #@! TO.P,U1,3*
G04 #@! TO.N,GND*
G04 #@! TA.AperFunction,SMDPad,CuDef*
G36*
G01*
X148062500Y-26665000D02*
X147937500Y-26665000D01*
G75*
G02*
X147875000Y-26602500I0J62500D01*
G01*
X147875000Y-25902500D01*
G75*
G02*
X147937500Y-25840000I62500J0D01*
G01*
X148062500Y-25840000D01*
G75*
G02*
X148125000Y-25902500I0J-62500D01*
G01*
X148125000Y-26602500D01*
G75*
G02*
X148062500Y-26665000I-62500J0D01*
G01*
G37*
G04 #@! TD.AperFunction*
G04 #@! TO.P,U1,4*
G04 #@! TO.N,Net-(L1-Pad1)*
G04 #@! TA.AperFunction,SMDPad,CuDef*
G36*
G01*
X148562500Y-26665000D02*
X148437500Y-26665000D01*
G75*
G02*
X148375000Y-26602500I0J62500D01*
G01*
X148375000Y-25902500D01*
G75*
G02*
X148437500Y-25840000I62500J0D01*
G01*
X148562500Y-25840000D01*
G75*
G02*
X148625000Y-25902500I0J-62500D01*
G01*
X148625000Y-26602500D01*
G75*
G02*
X148562500Y-26665000I-62500J0D01*
G01*
G37*
G04 #@! TD.AperFunction*
G04 #@! TO.P,U1,5*
G04 #@! TO.N,/3-5V*
G04 #@! TA.AperFunction,SMDPad,CuDef*
G36*
G01*
X149062500Y-26665000D02*
X148937500Y-26665000D01*
G75*
G02*
X148875000Y-26602500I0J62500D01*
G01*
X148875000Y-25902500D01*
G75*
G02*
X148937500Y-25840000I62500J0D01*
G01*
X149062500Y-25840000D01*
G75*
G02*
X149125000Y-25902500I0J-62500D01*
G01*
X149125000Y-26602500D01*
G75*
G02*
X149062500Y-26665000I-62500J0D01*
G01*
G37*
G04 #@! TD.AperFunction*
G04 #@! TO.P,U1,6*
G04 #@! TO.N,Net-(C33-Pad1)*
G04 #@! TA.AperFunction,SMDPad,CuDef*
G36*
G01*
X149062500Y-24240000D02*
X148937500Y-24240000D01*
G75*
G02*
X148875000Y-24177500I0J62500D01*
G01*
X148875000Y-23477500D01*
G75*
G02*
X148937500Y-23415000I62500J0D01*
G01*
X149062500Y-23415000D01*
G75*
G02*
X149125000Y-23477500I0J-62500D01*
G01*
X149125000Y-24177500D01*
G75*
G02*
X149062500Y-24240000I-62500J0D01*
G01*
G37*
G04 #@! TD.AperFunction*
G04 #@! TO.P,U1,7*
G04 #@! TA.AperFunction,SMDPad,CuDef*
G36*
G01*
X148562500Y-24240000D02*
X148437500Y-24240000D01*
G75*
G02*
X148375000Y-24177500I0J62500D01*
G01*
X148375000Y-23477500D01*
G75*
G02*
X148437500Y-23415000I62500J0D01*
G01*
X148562500Y-23415000D01*
G75*
G02*
X148625000Y-23477500I0J-62500D01*
G01*
X148625000Y-24177500D01*
G75*
G02*
X148562500Y-24240000I-62500J0D01*
G01*
G37*
G04 #@! TD.AperFunction*
G04 #@! TO.P,U1,8*
G04 #@! TA.AperFunction,SMDPad,CuDef*
G36*
G01*
X148062500Y-24240000D02*
X147937500Y-24240000D01*
G75*
G02*
X147875000Y-24177500I0J62500D01*
G01*
X147875000Y-23477500D01*
G75*
G02*
X147937500Y-23415000I62500J0D01*
G01*
X148062500Y-23415000D01*
G75*
G02*
X148125000Y-23477500I0J-62500D01*
G01*
X148125000Y-24177500D01*
G75*
G02*
X148062500Y-24240000I-62500J0D01*
G01*
G37*
G04 #@! TD.AperFunction*
G04 #@! TO.P,U1,9*
G04 #@! TO.N,GND*
G04 #@! TA.AperFunction,SMDPad,CuDef*
G36*
G01*
X147562500Y-24240000D02*
X147437500Y-24240000D01*
G75*
G02*
X147375000Y-24177500I0J62500D01*
G01*
X147375000Y-23477500D01*
G75*
G02*
X147437500Y-23415000I62500J0D01*
G01*
X147562500Y-23415000D01*
G75*
G02*
X147625000Y-23477500I0J-62500D01*
G01*
X147625000Y-24177500D01*
G75*
G02*
X147562500Y-24240000I-62500J0D01*
G01*
G37*
G04 #@! TD.AperFunction*
G04 #@! TO.P,U1,10*
G04 #@! TO.N,Net-(R3-Pad2)*
G04 #@! TA.AperFunction,SMDPad,CuDef*
G36*
G01*
X147062500Y-24240000D02*
X146937500Y-24240000D01*
G75*
G02*
X146875000Y-24177500I0J62500D01*
G01*
X146875000Y-23477500D01*
G75*
G02*
X146937500Y-23415000I62500J0D01*
G01*
X147062500Y-23415000D01*
G75*
G02*
X147125000Y-23477500I0J-62500D01*
G01*
X147125000Y-24177500D01*
G75*
G02*
X147062500Y-24240000I-62500J0D01*
G01*
G37*
G04 #@! TD.AperFunction*
D27*
G04 #@! TO.P,U1,11*
G04 #@! TO.N,GND*
X148000000Y-25040000D03*
G04 #@! TD*
G04 #@! TO.P,R4,1*
G04 #@! TO.N,Net-(R4-Pad1)*
G04 #@! TA.AperFunction,SMDPad,CuDef*
G36*
G01*
X90577000Y-32849000D02*
X90577000Y-33399000D01*
G75*
G02*
X90377000Y-33599000I-200000J0D01*
G01*
X89977000Y-33599000D01*
G75*
G02*
X89777000Y-33399000I0J200000D01*
G01*
X89777000Y-32849000D01*
G75*
G02*
X89977000Y-32649000I200000J0D01*
G01*
X90377000Y-32649000D01*
G75*
G02*
X90577000Y-32849000I0J-200000D01*
G01*
G37*
G04 #@! TD.AperFunction*
G04 #@! TO.P,R4,2*
G04 #@! TO.N,/I-CHARGE*
G04 #@! TA.AperFunction,SMDPad,CuDef*
G36*
G01*
X88927000Y-32849000D02*
X88927000Y-33399000D01*
G75*
G02*
X88727000Y-33599000I-200000J0D01*
G01*
X88327000Y-33599000D01*
G75*
G02*
X88127000Y-33399000I0J200000D01*
G01*
X88127000Y-32849000D01*
G75*
G02*
X88327000Y-32649000I200000J0D01*
G01*
X88727000Y-32649000D01*
G75*
G02*
X88927000Y-32849000I0J-200000D01*
G01*
G37*
G04 #@! TD.AperFunction*
G04 #@! TD*
G04 #@! TO.P,R10,1*
G04 #@! TO.N,/BAT+*
G04 #@! TA.AperFunction,SMDPad,CuDef*
G36*
G01*
X109725000Y-18875001D02*
X109725000Y-17624999D01*
G75*
G02*
X109974999Y-17375000I249999J0D01*
G01*
X110600001Y-17375000D01*
G75*
G02*
X110850000Y-17624999I0J-249999D01*
G01*
X110850000Y-18875001D01*
G75*
G02*
X110600001Y-19125000I-249999J0D01*
G01*
X109974999Y-19125000D01*
G75*
G02*
X109725000Y-18875001I0J249999D01*
G01*
G37*
G04 #@! TD.AperFunction*
G04 #@! TO.P,R10,2*
G04 #@! TO.N,Net-(C25-Pad1)*
G04 #@! TA.AperFunction,SMDPad,CuDef*
G36*
G01*
X112650000Y-18875001D02*
X112650000Y-17624999D01*
G75*
G02*
X112899999Y-17375000I249999J0D01*
G01*
X113525001Y-17375000D01*
G75*
G02*
X113775000Y-17624999I0J-249999D01*
G01*
X113775000Y-18875001D01*
G75*
G02*
X113525001Y-19125000I-249999J0D01*
G01*
X112899999Y-19125000D01*
G75*
G02*
X112650000Y-18875001I0J249999D01*
G01*
G37*
G04 #@! TD.AperFunction*
G04 #@! TD*
D28*
G04 #@! TO.P,J10,1*
G04 #@! TO.N,/KEY-R1*
X65400000Y-58500000D03*
D29*
G04 #@! TO.P,J10,2*
G04 #@! TO.N,/KEY-R2*
X64130000Y-58500000D03*
G04 #@! TO.P,J10,3*
G04 #@! TO.N,/KEY-R3*
X62860000Y-58500000D03*
G04 #@! TO.P,J10,4*
G04 #@! TO.N,/KEY-R4*
X61590000Y-58500000D03*
G04 #@! TO.P,J10,5*
G04 #@! TO.N,/KEY-R5*
X60320000Y-58500000D03*
G04 #@! TO.P,J10,6*
G04 #@! TO.N,/KEY-R6*
X59050000Y-58500000D03*
G04 #@! TO.P,J10,7*
G04 #@! TO.N,/KEY-R7*
X57780000Y-58500000D03*
G04 #@! TO.P,J10,8*
G04 #@! TO.N,/KEY-R8*
X56510000Y-58500000D03*
G04 #@! TO.P,J10,9*
G04 #@! TO.N,/KEY-C1*
X55240000Y-58500000D03*
G04 #@! TO.P,J10,10*
G04 #@! TO.N,/KEY-C2*
X53970000Y-58500000D03*
G04 #@! TO.P,J10,11*
G04 #@! TO.N,/KEY-C3*
X52700000Y-58500000D03*
G04 #@! TO.P,J10,12*
G04 #@! TO.N,/KEY-C4*
X51430000Y-58500000D03*
G04 #@! TO.P,J10,13*
G04 #@! TO.N,/KEY-C5*
X50160000Y-58500000D03*
G04 #@! TO.P,J10,14*
G04 #@! TO.N,/KEY-C6*
X48890000Y-58500000D03*
G04 #@! TO.P,J10,15*
G04 #@! TO.N,/KEY-C7*
X47620000Y-58500000D03*
G04 #@! TO.P,J10,16*
G04 #@! TO.N,/KEY-C8*
X46350000Y-58500000D03*
G04 #@! TD*
D10*
G04 #@! TO.P,L1,1*
G04 #@! TO.N,Net-(L1-Pad1)*
X149700000Y-30000000D03*
G04 #@! TO.P,L1,2*
G04 #@! TO.N,Net-(L1-Pad2)*
X145900000Y-30000000D03*
G04 #@! TD*
G04 #@! TO.P,L3,1*
G04 #@! TO.N,Net-(D4-Pad1)*
X119900000Y-18900000D03*
G04 #@! TO.P,L3,2*
G04 #@! TO.N,Net-(C25-Pad1)*
X116100000Y-18900000D03*
G04 #@! TD*
D30*
G04 #@! TO.N,GND*
X8961000Y-51221500D03*
X10802500Y-51221500D03*
X10866000Y-15661500D03*
X12100000Y-15700000D03*
X8961000Y-15661500D03*
X9913500Y-51221500D03*
X63817500Y-41275000D03*
X71056500Y-41148000D03*
X71056500Y-43180000D03*
X73621000Y-45187500D03*
X78568500Y-39351000D03*
X74782500Y-40851000D03*
X71120000Y-35814000D03*
X81788000Y-39179500D03*
X84653000Y-36172000D03*
X84653000Y-30076000D03*
X84653000Y-33124000D03*
X50807500Y-27409000D03*
X113799500Y-21757500D03*
X107000000Y-24366000D03*
X161830750Y-26113750D03*
X162307000Y-26590000D03*
X149442500Y-25040000D03*
X150566000Y-24488000D03*
X146267500Y-25040000D03*
X144460500Y-24815000D03*
X141031500Y-24815000D03*
X130500000Y-29906000D03*
X131250000Y-31823000D03*
X129293500Y-33779500D03*
X129368000Y-36816500D03*
X65031500Y-28044000D03*
X42489000Y-16741000D03*
X32646500Y-23408500D03*
X45717500Y-45707000D03*
X44958000Y-45006000D03*
X9900000Y-15640000D03*
X12500038Y-50500000D03*
X63511772Y-51534728D03*
X77000000Y-58300000D03*
X98000000Y-3300000D03*
X118318500Y-23925000D03*
X117302500Y-23925000D03*
X186800000Y-23100000D03*
X165200000Y-51300000D03*
X175400000Y-31699996D03*
G04 #@! TO.N,+3V3*
X8961000Y-18201500D03*
X10866000Y-18201500D03*
X9024500Y-48681500D03*
X10802500Y-48681500D03*
X9913500Y-48681500D03*
X9913500Y-18201500D03*
X69278500Y-43942000D03*
X88526500Y-39156500D03*
X48966000Y-27790000D03*
X48700000Y-21200000D03*
X65031500Y-51475500D03*
X70111500Y-31854000D03*
X63507500Y-28044000D03*
X46489500Y-48173500D03*
X69068164Y-40644179D03*
X39169950Y-16869952D03*
X78171000Y-47729000D03*
X79171000Y-47729000D03*
X70565250Y-30765250D03*
X48700000Y-20300000D03*
X12000000Y-48700000D03*
X12098500Y-18201500D03*
X170900000Y-29000000D03*
X170900000Y-30500000D03*
X170900000Y-32100000D03*
X170900000Y-34100000D03*
X170900000Y-35800000D03*
X170900000Y-37400000D03*
X176600000Y-33800000D03*
X154300000Y-39300000D03*
X168000000Y-56400000D03*
X182400000Y-44700000D03*
X167800000Y-45300000D03*
G04 #@! TO.N,/RESET*
X108000000Y-38400000D03*
X108100000Y-53400000D03*
G04 #@! TO.N,/5VINT*
X8961000Y-13121500D03*
X10866000Y-13121500D03*
X9913500Y-13121500D03*
X65539500Y-8994000D03*
X12074990Y-13125010D03*
X65100000Y-20500000D03*
X74000000Y-27500000D03*
X74000000Y-23800000D03*
X72800000Y-23800000D03*
X75300000Y-27500000D03*
X65100000Y-21700000D03*
G04 #@! TO.N,/USB5V*
X123300000Y-26500000D03*
X119300000Y-31900000D03*
G04 #@! TO.N,Net-(C25-Pad1)*
X116512500Y-21032000D03*
X155646000Y-22392500D03*
G04 #@! TO.N,/LED1*
X61900000Y-39300000D03*
X70368415Y-48278223D03*
X97400000Y-52400000D03*
X92100000Y-48100006D03*
G04 #@! TO.N,Net-(FB2-Pad2)*
X186598711Y-19796648D03*
G04 #@! TO.N,/USB-DM*
X60100000Y-43400000D03*
X70500237Y-51475296D03*
G04 #@! TO.N,/USB-DP*
X71100000Y-52100000D03*
X61415148Y-44364656D03*
G04 #@! TO.N,/BAT+*
X93606500Y-30012500D03*
X93670000Y-25549990D03*
G04 #@! TO.N,/LCD-5V*
X78100000Y-8500000D03*
X79100000Y-8500000D03*
X80100000Y-8500000D03*
G04 #@! TO.N,/LCD-D0*
X81074000Y-8526000D03*
G04 #@! TO.N,/LCD-D1*
X56776500Y-12677000D03*
X58300000Y-12900000D03*
X82074000Y-8526000D03*
G04 #@! TO.N,/LCD-D2*
X56395500Y-13502500D03*
X58899998Y-13800000D03*
X83074000Y-8526000D03*
G04 #@! TO.N,/LCD-D3*
X55845586Y-14247586D03*
X58264940Y-14445904D03*
X84074000Y-8526000D03*
G04 #@! TO.N,/LCD-D4*
X55215833Y-14740972D03*
X59103874Y-15154345D03*
X85074000Y-8526000D03*
G04 #@! TO.N,/LCD-D5*
X54940310Y-15492041D03*
X58467163Y-15645916D03*
X86074000Y-8526000D03*
G04 #@! TO.N,/LCD-D6*
X54429816Y-16108008D03*
X58200000Y-16500004D03*
X87074000Y-8526000D03*
G04 #@! TO.N,/LCD-D7*
X54071363Y-16823222D03*
X58838810Y-16981602D03*
X88074000Y-8526000D03*
G04 #@! TO.N,/SOUND-LATCH*
X63698000Y-37188000D03*
X66682500Y-34838500D03*
X90074000Y-8526000D03*
X90000000Y-12700000D03*
X95800000Y-12800000D03*
G04 #@! TO.N,/LCD-RS*
X91074000Y-8526000D03*
G04 #@! TO.N,/LCD-E*
X92074000Y-8526000D03*
G04 #@! TO.N,/LCD-CS*
X61539000Y-36163990D03*
X65984000Y-32933500D03*
X93074000Y-8526000D03*
G04 #@! TO.N,/LCD-R~W*
X62999500Y-36235500D03*
X66682500Y-33886000D03*
X94074000Y-8526000D03*
G04 #@! TO.N,/PA0*
X51300000Y-35100000D03*
X46500000Y-32400000D03*
X11900000Y-19500000D03*
X20100000Y-31400000D03*
X19400000Y-20000001D03*
G04 #@! TO.N,/PB5*
X16900000Y-30900000D03*
X17300000Y-44799996D03*
X58700000Y-53500000D03*
X47700000Y-53200000D03*
G04 #@! TO.N,/PA1*
X47600000Y-32400000D03*
X51221282Y-34172738D03*
X18000000Y-20800000D03*
X19100000Y-30600000D03*
G04 #@! TO.N,/PB6*
X18000000Y-33300000D03*
X17500000Y-45900000D03*
X11779104Y-32331971D03*
X59400000Y-54200000D03*
X46600000Y-53800000D03*
G04 #@! TO.N,/PA2*
X52100000Y-33900000D03*
X48500000Y-32300000D03*
X20800000Y-29100000D03*
X20800000Y-22500002D03*
X11800000Y-22100000D03*
G04 #@! TO.N,/PB7*
X16500000Y-33600000D03*
X16700000Y-46400000D03*
X58900000Y-55000000D03*
X46100000Y-54600000D03*
G04 #@! TO.N,/PA3*
X53500000Y-33600000D03*
X49600000Y-32199968D03*
X18500000Y-27800000D03*
X17700000Y-23200000D03*
G04 #@! TO.N,/PB11*
X11754749Y-34845616D03*
G04 #@! TO.N,/PA4*
X52141000Y-22138500D03*
X60523000Y-22738510D03*
X11791715Y-24600000D03*
G04 #@! TO.N,/PA5*
X61094500Y-23408500D03*
X52599979Y-22801728D03*
G04 #@! TO.N,/PB13*
X11844804Y-37355198D03*
G04 #@! TO.N,/PA6*
X61856500Y-24170500D03*
X52599979Y-23702553D03*
X11800000Y-27100002D03*
G04 #@! TO.N,/PA7*
X61221500Y-24869000D03*
X52599979Y-24669060D03*
G04 #@! TO.N,/PB15*
X11900000Y-39800000D03*
G04 #@! TO.N,/PA8*
X23700000Y-32300000D03*
X23800000Y-40700000D03*
X11743132Y-29754280D03*
G04 #@! TO.N,/PC1*
X51379000Y-38394500D03*
X48077000Y-39029500D03*
G04 #@! TO.N,/PD0*
X11900000Y-44900000D03*
X50600000Y-49800000D03*
X53887839Y-49785419D03*
G04 #@! TO.N,/PC4*
X60650000Y-25631000D03*
X52585500Y-25567500D03*
X11800000Y-42400000D03*
X24600000Y-39700000D03*
X23999500Y-27599500D03*
G04 #@! TO.N,/PD1*
X54400000Y-50400000D03*
X49868887Y-50900010D03*
G04 #@! TO.N,/PC5*
X51887000Y-26012000D03*
X60100010Y-26380454D03*
X15600000Y-42100000D03*
X15900000Y-28200000D03*
G04 #@! TO.N,/BOOT0*
X74600000Y-59800000D03*
X60499979Y-53400000D03*
G04 #@! TO.N,/SWDC*
X50600000Y-51700000D03*
X71200000Y-57800034D03*
G04 #@! TO.N,/SWDIO*
X70500000Y-52700000D03*
X80200000Y-52900000D03*
X80200000Y-63400000D03*
X61100000Y-45099979D03*
G04 #@! TO.N,/TRACE-RX*
X60900000Y-43200000D03*
X71093979Y-50899989D03*
X80100000Y-50900000D03*
X80700000Y-65900000D03*
G04 #@! TO.N,/TRACE-TX*
X60900000Y-42300000D03*
X70400000Y-50275284D03*
X81100000Y-50400000D03*
X81500000Y-68300000D03*
G04 #@! TO.N,/SDCARD-D0*
X61800000Y-41100000D03*
X70437202Y-49075273D03*
X176600000Y-30600000D03*
X94600000Y-50799998D03*
X92700000Y-48900000D03*
G04 #@! TO.N,/SDCARD-D1*
X61000000Y-41500000D03*
X69600000Y-49675274D03*
X176600000Y-29400000D03*
X93600000Y-50700000D03*
X91800000Y-49600020D03*
G04 #@! TO.N,/SDCARD-CK*
X53600010Y-51100010D03*
X70254684Y-56085363D03*
X176600000Y-32700000D03*
G04 #@! TO.N,/SDCARD-D2*
X52400000Y-52200000D03*
X70327426Y-57308272D03*
X176600000Y-37100000D03*
G04 #@! TO.N,/SDCARD-D3*
X53034310Y-51665698D03*
X69598020Y-56542322D03*
X176600000Y-36000000D03*
G04 #@! TO.N,/SDCARD-CMD*
X55208442Y-50199990D03*
X71100000Y-55800000D03*
X176600002Y-34900000D03*
X94300000Y-52900000D03*
X92750000Y-52500001D03*
G04 #@! TO.N,/CHARGE-PWM*
X63444000Y-38966000D03*
X66682500Y-38267500D03*
X114000000Y-26300000D03*
X113900000Y-30200000D03*
G04 #@! TO.N,/LCD-ON*
X53100000Y-39600000D03*
X53200000Y-30100000D03*
G04 #@! TO.N,/WAKEUP*
X41300000Y-55700000D03*
X47300000Y-50100000D03*
G04 #@! TO.N,/QSPI-CS*
X36399996Y-17600000D03*
X53300000Y-17800000D03*
G04 #@! TO.N,/QSPI-IO2*
X36500000Y-25300000D03*
X37100000Y-42900000D03*
G04 #@! TO.N,/QSPI-CLK*
X58427500Y-22075000D03*
X52516143Y-21052691D03*
G04 #@! TO.N,/QSPI-IO0*
X42500000Y-25100000D03*
X42700000Y-37000000D03*
G04 #@! TO.N,/QSPI-IO1*
X36300000Y-37200000D03*
X35600000Y-21500000D03*
G04 #@! TO.N,/QSPI-IO3*
X41500000Y-25300000D03*
X42800000Y-38400000D03*
G04 #@! TO.N,Net-(J1-Pad2)*
X186600004Y-20800000D03*
G04 #@! TO.N,Net-(J1-Pad3)*
X186699994Y-21900000D03*
G04 #@! TO.N,Net-(D3-Pad1)*
X181500000Y-47400000D03*
G04 #@! TO.N,Net-(R4-Pad1)*
X112850006Y-26150000D03*
X112900000Y-29899999D03*
G04 #@! TO.N,/LCD-CTRPWM*
X86200006Y-15800000D03*
X86200001Y-19399999D03*
X89074000Y-8526000D03*
G04 #@! TD*
D31*
G04 #@! TO.N,GND*
X12061500Y-15661500D02*
X12100000Y-15700000D01*
X10866000Y-15661500D02*
X12061500Y-15661500D01*
D32*
X73621000Y-44310000D02*
X73621000Y-45187500D01*
X65175000Y-41264000D02*
X63828500Y-41264000D01*
X63828500Y-41264000D02*
X63817500Y-41275000D01*
X70117000Y-41148000D02*
X71056500Y-41148000D01*
X70117000Y-43180000D02*
X71056500Y-43180000D01*
X73621000Y-45187500D02*
X73621000Y-46060000D01*
X75537000Y-40851000D02*
X75812000Y-41126000D01*
X73862000Y-40851000D02*
X74782500Y-40851000D01*
X75812000Y-41028000D02*
X75812000Y-41126000D01*
X77512000Y-38926000D02*
X77512000Y-39010500D01*
X76644500Y-40195500D02*
X75812000Y-41028000D01*
X76644500Y-39878000D02*
X76644500Y-40195500D01*
X77512000Y-39010500D02*
X76644500Y-39878000D01*
X77937000Y-39351000D02*
X77512000Y-38926000D01*
X79462000Y-39351000D02*
X78568500Y-39351000D01*
X78568500Y-39351000D02*
X77937000Y-39351000D01*
X74782500Y-40851000D02*
X75537000Y-40851000D01*
D33*
X70117000Y-35814000D02*
X70117000Y-34290000D01*
X70117000Y-35814000D02*
X71120000Y-35814000D01*
D32*
X82713500Y-39183500D02*
X81792000Y-39183500D01*
X81792000Y-39183500D02*
X81788000Y-39179500D01*
X85479000Y-36172000D02*
X84653000Y-36172000D01*
X85479000Y-30076000D02*
X84653000Y-30076000D01*
X85529000Y-33124000D02*
X84653000Y-33124000D01*
D33*
X50807500Y-27409000D02*
X50807500Y-28501500D01*
X50807500Y-28501500D02*
X50503000Y-28806000D01*
X50947500Y-27269000D02*
X50807500Y-27409000D01*
X52268000Y-27269000D02*
X50947500Y-27269000D01*
X63000000Y-50059000D02*
X63487000Y-50546000D01*
X63000000Y-47439000D02*
X63000000Y-50059000D01*
D32*
X107000000Y-25225000D02*
X106975000Y-25250000D01*
X107000000Y-23575000D02*
X107000000Y-24366000D01*
X112850000Y-21750000D02*
X113792000Y-21750000D01*
X113792000Y-21750000D02*
X113799500Y-21757500D01*
X107000000Y-24366000D02*
X107000000Y-25225000D01*
D33*
X148000000Y-26252500D02*
X148000000Y-25040000D01*
X147500000Y-24540000D02*
X148000000Y-25040000D01*
X147500000Y-23827500D02*
X147500000Y-24540000D01*
D34*
X139250000Y-24815000D02*
X141031500Y-24815000D01*
X145200000Y-24815000D02*
X145250000Y-24765000D01*
X142750000Y-24815000D02*
X144460500Y-24815000D01*
X145250000Y-23115000D02*
X145325000Y-23040000D01*
X145250000Y-24765000D02*
X145250000Y-23115000D01*
X145525000Y-25040000D02*
X146267500Y-25040000D01*
X145250000Y-24765000D02*
X145525000Y-25040000D01*
D33*
X147500000Y-22315000D02*
X147225000Y-22040000D01*
X147500000Y-23827500D02*
X147500000Y-22315000D01*
D34*
X148000000Y-25040000D02*
X149442500Y-25040000D01*
X150014000Y-25040000D02*
X150566000Y-24488000D01*
X151239000Y-23815000D02*
X152250000Y-23815000D01*
X162482000Y-26765000D02*
X162307000Y-26590000D01*
X164000000Y-26765000D02*
X162482000Y-26765000D01*
X161830750Y-26113750D02*
X161234000Y-25517000D01*
X162307000Y-26590000D02*
X161830750Y-26113750D01*
X149442500Y-25040000D02*
X150014000Y-25040000D01*
X150566000Y-24488000D02*
X151239000Y-23815000D01*
X146267500Y-25040000D02*
X148000000Y-25040000D01*
X144460500Y-24815000D02*
X145200000Y-24815000D01*
X141031500Y-24815000D02*
X142750000Y-24815000D01*
D35*
X131250000Y-31625000D02*
X131250000Y-31823000D01*
X130475000Y-30850000D02*
X131250000Y-31625000D01*
X130475000Y-30850000D02*
X130475000Y-29931000D01*
X130475000Y-29931000D02*
X130500000Y-29906000D01*
X131250000Y-31823000D02*
X131250000Y-32750000D01*
D36*
X131250000Y-33274104D02*
X131250000Y-32750000D01*
X130744604Y-33779500D02*
X131250000Y-33274104D01*
X128225000Y-35100000D02*
X128225000Y-34340000D01*
X128785500Y-33779500D02*
X129293500Y-33779500D01*
X128225000Y-34340000D02*
X128785500Y-33779500D01*
X129293500Y-33779500D02*
X130744604Y-33779500D01*
D34*
X128225000Y-41050000D02*
X128275000Y-41100000D01*
X128225000Y-38600000D02*
X128225000Y-41050000D01*
X130391500Y-36816500D02*
X130425000Y-36850000D01*
X128225000Y-36816500D02*
X129368000Y-36816500D01*
X128225000Y-35100000D02*
X128225000Y-36816500D01*
X128225000Y-36816500D02*
X128225000Y-38600000D01*
X129368000Y-36816500D02*
X130391500Y-36816500D01*
D31*
X15700000Y-2500000D02*
X20700000Y-2500000D01*
D33*
X46925000Y-45264000D02*
X46482000Y-45707000D01*
X49825000Y-45264000D02*
X46925000Y-45264000D01*
X44971000Y-45707000D02*
X44958000Y-45720000D01*
X46482000Y-45707000D02*
X45717500Y-45707000D01*
X44958000Y-44201000D02*
X44963000Y-44196000D01*
X44958000Y-45720000D02*
X44958000Y-45006000D01*
X63500000Y-30493000D02*
X65037000Y-28956000D01*
X63500000Y-32089000D02*
X63500000Y-30493000D01*
X65037000Y-28956000D02*
X65037000Y-28049500D01*
X65037000Y-28049500D02*
X65031500Y-28044000D01*
D32*
X41613000Y-16741000D02*
X42489000Y-16741000D01*
X34058000Y-23404000D02*
X32651000Y-23404000D01*
X32651000Y-23404000D02*
X32646500Y-23408500D01*
D33*
X45717500Y-45707000D02*
X44971000Y-45707000D01*
X44958000Y-45006000D02*
X44958000Y-44201000D01*
X66863220Y-36763469D02*
X69167531Y-36763469D01*
X69167531Y-36763469D02*
X70117000Y-35814000D01*
X66862689Y-36764000D02*
X66863220Y-36763469D01*
X65175000Y-36764000D02*
X66862689Y-36764000D01*
X50503000Y-29003000D02*
X50503000Y-28806000D01*
X52000000Y-32089000D02*
X52000000Y-30500000D01*
X52000000Y-30500000D02*
X50503000Y-29003000D01*
D32*
X10960827Y-51063173D02*
X10802500Y-51221500D01*
D31*
X11900000Y-50500000D02*
X12500038Y-50500000D01*
X11400000Y-51000000D02*
X11900000Y-50500000D01*
X10960827Y-51063173D02*
X11024000Y-51000000D01*
X11024000Y-51000000D02*
X11400000Y-51000000D01*
D33*
X63487000Y-51509956D02*
X63511772Y-51534728D01*
X63487000Y-50546000D02*
X63487000Y-51509956D01*
D32*
X76225000Y-58300000D02*
X77000000Y-58300000D01*
D35*
X95074000Y-3300000D02*
X97074000Y-3300000D01*
X97074000Y-3300000D02*
X98000000Y-3300000D01*
D34*
X118318500Y-23925000D02*
X118375000Y-23925000D01*
X117302500Y-23925000D02*
X118318500Y-23925000D01*
X116500000Y-23925000D02*
X117302500Y-23925000D01*
X118318500Y-24168500D02*
X119250000Y-25100000D01*
X118318500Y-23925000D02*
X118318500Y-24168500D01*
D31*
X172000000Y-51300000D02*
X165200000Y-51300000D01*
D35*
X173975000Y-32100000D02*
X174999996Y-32100000D01*
X174999996Y-32100000D02*
X175400000Y-31699996D01*
D33*
G04 #@! TO.N,+3V3*
X68183000Y-40764000D02*
X68567000Y-41148000D01*
X65175000Y-40764000D02*
X68183000Y-40764000D01*
D35*
X68567000Y-43230500D02*
X69278500Y-43942000D01*
X68567000Y-43180000D02*
X68567000Y-43230500D01*
D34*
X88499500Y-39183500D02*
X88526500Y-39156500D01*
X87615500Y-39183500D02*
X88499500Y-39183500D01*
D33*
X51500000Y-32089000D02*
X51500000Y-30895500D01*
X50617000Y-30012500D02*
X50159500Y-30012500D01*
X50159500Y-30012500D02*
X48953000Y-28806000D01*
X51500000Y-30895500D02*
X50617000Y-30012500D01*
D34*
X48700000Y-18700000D02*
X48700000Y-21200000D01*
X47900000Y-17900000D02*
X48700000Y-18700000D01*
X46800000Y-17900000D02*
X47900000Y-17900000D01*
X44200000Y-15300000D02*
X46800000Y-17900000D01*
X40600000Y-15300000D02*
X44200000Y-15300000D01*
X40063000Y-15837000D02*
X40600000Y-15300000D01*
X40063000Y-16741000D02*
X40063000Y-15837000D01*
X48953000Y-27803000D02*
X48966000Y-27790000D01*
X48953000Y-28806000D02*
X48953000Y-27803000D01*
D33*
X64991000Y-50546000D02*
X65037000Y-50546000D01*
X63500000Y-49055000D02*
X64991000Y-50546000D01*
X63500000Y-47439000D02*
X63500000Y-49055000D01*
D34*
X65037000Y-51470000D02*
X65031500Y-51475500D01*
X65037000Y-50546000D02*
X65037000Y-51470000D01*
D31*
X125275000Y-35100000D02*
X125275000Y-38600000D01*
X125275000Y-39650000D02*
X126725000Y-41100000D01*
X125275000Y-38600000D02*
X125275000Y-39650000D01*
D34*
X126690000Y-41971000D02*
X126690000Y-41135000D01*
X126690000Y-41135000D02*
X126725000Y-41100000D01*
X127261500Y-42542500D02*
X126690000Y-41971000D01*
X129293500Y-42542500D02*
X127261500Y-42542500D01*
X130425000Y-38600000D02*
X130425000Y-41411000D01*
X130425000Y-41411000D02*
X129293500Y-42542500D01*
X70129500Y-32766000D02*
X70129500Y-31872000D01*
X70129500Y-31872000D02*
X70111500Y-31854000D01*
D33*
X46517000Y-47257000D02*
X46482000Y-47257000D01*
X48010000Y-45764000D02*
X46517000Y-47257000D01*
X49825000Y-45764000D02*
X48010000Y-45764000D01*
D34*
X44971000Y-47257000D02*
X44958000Y-47270000D01*
X46482000Y-47257000D02*
X44971000Y-47257000D01*
D33*
X63000000Y-29443000D02*
X63487000Y-28956000D01*
X63000000Y-32089000D02*
X63000000Y-29443000D01*
X63487000Y-28956000D02*
X63487000Y-28064500D01*
X63487000Y-28064500D02*
X63507500Y-28044000D01*
D35*
X40579500Y-19594000D02*
X41058000Y-19594000D01*
X40063000Y-19077500D02*
X40579500Y-19594000D01*
X40063000Y-16741000D02*
X40063000Y-19077500D01*
D33*
X66624498Y-43426002D02*
X68320998Y-43426002D01*
X65175000Y-43264000D02*
X66462496Y-43264000D01*
X66462496Y-43264000D02*
X66624498Y-43426002D01*
X68320998Y-43426002D02*
X68567000Y-43180000D01*
D34*
X46482000Y-48166000D02*
X46489500Y-48173500D01*
X46482000Y-47257000D02*
X46482000Y-48166000D01*
D35*
X68567000Y-41148000D02*
X69068164Y-40646836D01*
X69068164Y-40646836D02*
X69068164Y-40644179D01*
D34*
X34500001Y-14499999D02*
X30798500Y-18201500D01*
X37132001Y-14499999D02*
X34500001Y-14499999D01*
X38107000Y-16741000D02*
X38107000Y-15474998D01*
X38107000Y-15474998D02*
X37132001Y-14499999D01*
X39040998Y-16741000D02*
X39169950Y-16869952D01*
X38107000Y-16741000D02*
X39040998Y-16741000D01*
X39298902Y-16741000D02*
X39169950Y-16869952D01*
X40063000Y-16741000D02*
X39298902Y-16741000D01*
D35*
X69573000Y-44236500D02*
X71000500Y-44236500D01*
X69278500Y-43942000D02*
X69573000Y-44236500D01*
X71000500Y-44236500D02*
X71699000Y-44935000D01*
X71699000Y-44935000D02*
X71699000Y-46903500D01*
X71699000Y-46903500D02*
X72524500Y-47729000D01*
X72524500Y-47729000D02*
X78171000Y-47729000D01*
D34*
X78171000Y-47729000D02*
X78171000Y-47729000D01*
X125275000Y-39225000D02*
X125275000Y-38600000D01*
X85971000Y-47729000D02*
X88700000Y-45000000D01*
X79171000Y-47729000D02*
X85971000Y-47729000D01*
X88700000Y-39330000D02*
X88526500Y-39156500D01*
X88700000Y-45000000D02*
X88700000Y-39330000D01*
X9940000Y-48700000D02*
X9900000Y-48660000D01*
X12000000Y-48700000D02*
X9940000Y-48700000D01*
D31*
X125200000Y-35025000D02*
X125275000Y-35100000D01*
D34*
X124100000Y-30200000D02*
X124100000Y-31100000D01*
X122642500Y-28742500D02*
X124100000Y-30200000D01*
X72588000Y-28742500D02*
X122642500Y-28742500D01*
X70111500Y-31854000D02*
X70111500Y-31219000D01*
X70111500Y-31219000D02*
X72588000Y-28742500D01*
D31*
X124100000Y-31100000D02*
X124100000Y-31900000D01*
X124100000Y-31900000D02*
X125275000Y-33075000D01*
X125275000Y-33075000D02*
X125275000Y-35100000D01*
D34*
X125025000Y-39900000D02*
X125275000Y-39650000D01*
X88526500Y-39156500D02*
X89270000Y-39900000D01*
X89270000Y-39900000D02*
X125025000Y-39900000D01*
X9913500Y-18201500D02*
X12098500Y-18201500D01*
X30798500Y-18201500D02*
X12098500Y-18201500D01*
X12098500Y-18201500D02*
X12098500Y-18201500D01*
X171975000Y-29000000D02*
X172075000Y-28900000D01*
X170900000Y-29000000D02*
X171975000Y-29000000D01*
X170900000Y-30500000D02*
X172075000Y-30500000D01*
X170900000Y-32100000D02*
X172125000Y-32100000D01*
X172009000Y-34100000D02*
X172109000Y-34200000D01*
X170900000Y-34100000D02*
X172009000Y-34100000D01*
X170900000Y-35800000D02*
X172109000Y-35800000D01*
X170900000Y-37400000D02*
X172109000Y-37400000D01*
D37*
X172909000Y-33400000D02*
X172109000Y-34200000D01*
X176600000Y-33800000D02*
X176200000Y-33400000D01*
X176200000Y-33400000D02*
X172909000Y-33400000D01*
D34*
X154300000Y-39300000D02*
X152189000Y-41411000D01*
X133789000Y-41411000D02*
X130425000Y-41411000D01*
X152189000Y-41411000D02*
X133789000Y-41411000D01*
X171980000Y-56400000D02*
X172000000Y-56380000D01*
X168000000Y-56400000D02*
X171980000Y-56400000D01*
D32*
X182400000Y-44700000D02*
X181800000Y-45300000D01*
X181800000Y-45300000D02*
X167800000Y-45300000D01*
D33*
G04 #@! TO.N,/VDDA*
X68567000Y-34290000D02*
X68567000Y-35814000D01*
X68440000Y-35941000D02*
X68567000Y-35814000D01*
X66738500Y-35941000D02*
X68440000Y-35941000D01*
X65175000Y-36264000D02*
X66415500Y-36264000D01*
X66415500Y-36264000D02*
X66738500Y-35941000D01*
X66561500Y-35764000D02*
X66738500Y-35941000D01*
X65175000Y-35764000D02*
X66561500Y-35764000D01*
X68567000Y-32778500D02*
X68554500Y-32766000D01*
X68567000Y-34290000D02*
X68567000Y-32778500D01*
D35*
X108750000Y-25025000D02*
X108525000Y-25250000D01*
X108750000Y-23575000D02*
X108750000Y-25025000D01*
X109625000Y-22700000D02*
X108750000Y-23575000D01*
X110650000Y-22700000D02*
X109625000Y-22700000D01*
X107475000Y-26300000D02*
X108525000Y-25250000D01*
X68554500Y-30871000D02*
X73125500Y-26300000D01*
X68554500Y-32766000D02*
X68554500Y-30871000D01*
X73125500Y-26300000D02*
X107475000Y-26300000D01*
D32*
G04 #@! TO.N,/RESET*
X84263500Y-39183500D02*
X85965500Y-39183500D01*
X73806901Y-37925999D02*
X78417599Y-37925999D01*
X78479620Y-37988020D02*
X83543020Y-37988020D01*
X72665378Y-39067522D02*
X73806901Y-37925999D01*
X84263500Y-38708500D02*
X84263500Y-39183500D01*
X83543020Y-37988020D02*
X84263500Y-38708500D01*
X78417599Y-37925999D02*
X78479620Y-37988020D01*
X68464888Y-39267512D02*
X68664878Y-39067522D01*
X68664878Y-39067522D02*
X72665378Y-39067522D01*
X65175000Y-39264000D02*
X65178512Y-39267512D01*
X65178512Y-39267512D02*
X68464888Y-39267512D01*
X85965500Y-39183500D02*
X85965500Y-39034500D01*
X85965500Y-39034500D02*
X86600000Y-38400000D01*
X86600000Y-38400000D02*
X108000000Y-38400000D01*
X108540000Y-53840000D02*
X108100000Y-53400000D01*
X172000000Y-53840000D02*
X108540000Y-53840000D01*
D35*
G04 #@! TO.N,/5VINT*
X65429000Y-7517500D02*
X65604000Y-7692500D01*
X65429000Y-4692500D02*
X65429000Y-7517500D01*
D34*
X143542500Y-27765000D02*
X142750000Y-27765000D01*
X144992500Y-26315000D02*
X143542500Y-27765000D01*
X145250000Y-26315000D02*
X144992500Y-26315000D01*
X142750000Y-27765000D02*
X139250000Y-27765000D01*
D35*
X132214500Y-32735500D02*
X132200000Y-32750000D01*
X132025000Y-30850000D02*
X132214500Y-31039500D01*
X132214500Y-31039500D02*
X132214500Y-32735500D01*
X140425000Y-23040000D02*
X137536000Y-23040000D01*
X137536000Y-23040000D02*
X137129000Y-23447000D01*
X137129000Y-23447000D02*
X137129000Y-27765000D01*
D34*
X139250000Y-27765000D02*
X137129000Y-27765000D01*
D36*
X132200000Y-32750000D02*
X132200000Y-33050000D01*
D38*
X132200000Y-33349500D02*
X132200000Y-32750000D01*
D36*
X130870491Y-34379509D02*
X131169991Y-34379509D01*
X130300000Y-34950000D02*
X130870491Y-34379509D01*
X131169991Y-34379509D02*
X132200000Y-33349500D01*
D34*
X11816103Y-13100000D02*
X11841113Y-13125010D01*
X9900000Y-13100000D02*
X11816103Y-13100000D01*
X11841113Y-13125010D02*
X12074990Y-13125010D01*
X16962000Y-13121500D02*
X17851000Y-13121500D01*
X16958490Y-13125010D02*
X16962000Y-13121500D01*
X23280000Y-7692500D02*
X65604000Y-7692500D01*
X17851000Y-13121500D02*
X23280000Y-7692500D01*
X65539500Y-7757000D02*
X65604000Y-7692500D01*
X65539500Y-8994000D02*
X65539500Y-7757000D01*
X137129000Y-27765000D02*
X134735000Y-27765000D01*
X134735000Y-27765000D02*
X134735000Y-28765000D01*
X134735000Y-28765000D02*
X133750000Y-29750000D01*
X12074990Y-13125010D02*
X16958490Y-13125010D01*
X65104000Y-19514500D02*
X65104000Y-20496000D01*
X65104000Y-20496000D02*
X65100000Y-20500000D01*
X65100000Y-22309000D02*
X65309000Y-22518000D01*
X65100000Y-21600000D02*
X65100000Y-22309000D01*
X65309000Y-22809000D02*
X65309000Y-22518000D01*
X66300000Y-23800000D02*
X65309000Y-22809000D01*
X73000000Y-23800000D02*
X66300000Y-23800000D01*
X65100000Y-20500000D02*
X65100000Y-21600000D01*
X75000000Y-27500000D02*
X74000000Y-27500000D01*
X134735000Y-27765000D02*
X134470000Y-27500000D01*
X134470000Y-27500000D02*
X75000000Y-27500000D01*
X73000000Y-23800000D02*
X74000000Y-23800000D01*
X133125000Y-29750000D02*
X132025000Y-30850000D01*
X133750000Y-29750000D02*
X133125000Y-29750000D01*
D35*
G04 #@! TO.N,/USB5V*
X164752000Y-23815000D02*
X164000000Y-23815000D01*
X161386000Y-23815000D02*
X161234000Y-23967000D01*
X164000000Y-23815000D02*
X161386000Y-23815000D01*
X158827000Y-23967000D02*
X158750000Y-23890000D01*
X161234000Y-23967000D02*
X158827000Y-23967000D01*
X125825000Y-22400000D02*
X126000000Y-22225000D01*
X123250000Y-22400000D02*
X125825000Y-22400000D01*
X123300000Y-22450000D02*
X123250000Y-22400000D01*
X123300000Y-26500000D02*
X123300000Y-22450000D01*
X90177000Y-36172000D02*
X115028000Y-36172000D01*
X115028000Y-36172000D02*
X119300000Y-31900000D01*
X135375000Y-22225000D02*
X126000000Y-22225000D01*
X136541000Y-21059000D02*
X135375000Y-22225000D01*
X155836500Y-21059000D02*
X136541000Y-21059000D01*
X158750000Y-23890000D02*
X158667500Y-23890000D01*
X158667500Y-23890000D02*
X155836500Y-21059000D01*
X164000000Y-23815000D02*
X164885000Y-23815000D01*
X164885000Y-23815000D02*
X169074000Y-19626000D01*
X169074000Y-19626000D02*
X183814500Y-19626000D01*
D33*
G04 #@! TO.N,Net-(C21-Pad1)*
X52500000Y-29051000D02*
X52268000Y-28819000D01*
X52500000Y-32089000D02*
X52500000Y-29051000D01*
G04 #@! TO.N,Net-(C22-Pad1)*
X46513000Y-44196000D02*
X47655500Y-44196000D01*
X47655500Y-44196000D02*
X48223500Y-44764000D01*
X48223500Y-44764000D02*
X49825000Y-44764000D01*
D32*
G04 #@! TO.N,/OSC-IN*
X77737000Y-40901000D02*
X77512000Y-41126000D01*
X79462000Y-40901000D02*
X77737000Y-40901000D01*
X68599800Y-40264000D02*
X68996256Y-39867544D01*
X70792044Y-39867544D02*
X73342500Y-42418000D01*
X77512000Y-42026000D02*
X77512000Y-41126000D01*
X77120000Y-42418000D02*
X77512000Y-42026000D01*
X73342500Y-42418000D02*
X77120000Y-42418000D01*
X68996256Y-39867544D02*
X70792044Y-39867544D01*
X65175000Y-40264000D02*
X68599800Y-40264000D01*
D34*
G04 #@! TO.N,Net-(C25-Pad1)*
X116262500Y-18650000D02*
X116512500Y-18900000D01*
X116512500Y-22362500D02*
X116500000Y-22375000D01*
X116512500Y-18900000D02*
X116512500Y-21032000D01*
D35*
X113212500Y-20437500D02*
X112850000Y-20800000D01*
X113212500Y-18250000D02*
X113212500Y-20437500D01*
D34*
X116512500Y-21032000D02*
X116512500Y-22362500D01*
X155646000Y-23786000D02*
X155750000Y-23890000D01*
X155646000Y-22392500D02*
X155646000Y-23786000D01*
D35*
X115450000Y-18250000D02*
X116100000Y-18900000D01*
X113212500Y-18250000D02*
X115450000Y-18250000D01*
D32*
G04 #@! TO.N,/OSC-OUT*
X75437000Y-39301000D02*
X75812000Y-38926000D01*
X73862000Y-39301000D02*
X75437000Y-39301000D01*
X65175000Y-39764000D02*
X68534100Y-39764000D01*
X68534100Y-39764000D02*
X68830567Y-39467533D01*
X68830567Y-39467533D02*
X73695467Y-39467533D01*
X73695467Y-39467533D02*
X73862000Y-39301000D01*
G04 #@! TO.N,Net-(C28-Pad1)*
X75171000Y-46060000D02*
X76896000Y-46060000D01*
X65175000Y-42264000D02*
X66560496Y-42264000D01*
X66560496Y-42264000D02*
X66648498Y-42175998D01*
X66648498Y-42175998D02*
X67224502Y-42175998D01*
X72249011Y-46374011D02*
X72928500Y-47053500D01*
X74177500Y-47053500D02*
X75171000Y-46060000D01*
X67224502Y-42175998D02*
X67453494Y-42404990D01*
X72249011Y-43166011D02*
X72249011Y-46374011D01*
X71487990Y-42404990D02*
X72249011Y-43166011D01*
X72928500Y-47053500D02*
X74177500Y-47053500D01*
X67453494Y-42404990D02*
X71487990Y-42404990D01*
G04 #@! TO.N,Net-(C29-Pad1)*
X76746000Y-44310000D02*
X76896000Y-44160000D01*
X75171000Y-44310000D02*
X76746000Y-44310000D01*
X73850500Y-42989500D02*
X75171000Y-44310000D01*
X73025000Y-42989500D02*
X73850500Y-42989500D01*
X71958510Y-41923010D02*
X73025000Y-42989500D01*
X67577010Y-41923010D02*
X71958510Y-41923010D01*
X65175000Y-41764000D02*
X67418000Y-41764000D01*
X67418000Y-41764000D02*
X67577010Y-41923010D01*
G04 #@! TO.N,/LED1*
X52811998Y-38999998D02*
X53571998Y-38999998D01*
X53571998Y-38999998D02*
X53836000Y-39264000D01*
X52547996Y-39264000D02*
X52811998Y-38999998D01*
X49825000Y-39264000D02*
X52547996Y-39264000D01*
X53836000Y-39264000D02*
X61864000Y-39264000D01*
X61864000Y-39264000D02*
X61900000Y-39300000D01*
X71114455Y-48599999D02*
X91600007Y-48599999D01*
X70792679Y-48278223D02*
X71114455Y-48599999D01*
X91600007Y-48599999D02*
X92100000Y-48100006D01*
X70368415Y-48278223D02*
X70792679Y-48278223D01*
X158100000Y-52400000D02*
X97400000Y-52400000D01*
X177175000Y-47000000D02*
X163500000Y-47000000D01*
X163500000Y-47000000D02*
X158100000Y-52400000D01*
D36*
G04 #@! TO.N,Net-(FB2-Pad2)*
X186428063Y-19626000D02*
X186598711Y-19796648D01*
X185389500Y-19626000D02*
X186428063Y-19626000D01*
D32*
G04 #@! TO.N,/USB-DM*
X49825000Y-43264000D02*
X55042000Y-43264000D01*
X55042000Y-43264000D02*
X59964000Y-43264000D01*
X59964000Y-43264000D02*
X60100000Y-43400000D01*
X70524940Y-51499999D02*
X70500237Y-51475296D01*
X79811995Y-51499999D02*
X70524940Y-51499999D01*
X79811998Y-51500002D02*
X79811995Y-51499999D01*
X91088002Y-51500002D02*
X79811998Y-51500002D01*
X174250000Y-21250000D02*
X149800000Y-45700000D01*
X183805000Y-21250000D02*
X174250000Y-21250000D01*
X149800000Y-45700000D02*
X96800000Y-45700000D01*
X96800000Y-45700000D02*
X92500002Y-49999998D01*
X92500002Y-49999998D02*
X92500002Y-50088002D01*
X92500002Y-50088002D02*
X91088002Y-51500002D01*
G04 #@! TO.N,/USB-DP*
X49825000Y-43764000D02*
X59464000Y-43764000D01*
X60064656Y-44364656D02*
X61415148Y-44364656D01*
X59464000Y-43764000D02*
X60064656Y-44364656D01*
X91200000Y-52100000D02*
X71100000Y-52100000D01*
X150199989Y-46100011D02*
X97199989Y-46100011D01*
X173500000Y-22800000D02*
X150199989Y-46100011D01*
X97199989Y-46100011D02*
X91200000Y-52100000D01*
X183805000Y-22800000D02*
X173500000Y-22800000D01*
D35*
G04 #@! TO.N,/BAT+*
X109537500Y-19000000D02*
X110287500Y-18250000D01*
X104968000Y-19000000D02*
X109537500Y-19000000D01*
X109799000Y-19949000D02*
X110650000Y-20800000D01*
X110287500Y-18250000D02*
X109799000Y-18738500D01*
X109799000Y-18738500D02*
X109799000Y-19949000D01*
D36*
X90177000Y-30076000D02*
X93543000Y-30076000D01*
X93543000Y-30076000D02*
X93606500Y-30012500D01*
X104968000Y-19000000D02*
X100219990Y-19000000D01*
X100219990Y-19000000D02*
X93670000Y-25549990D01*
D32*
G04 #@! TO.N,/KEY-R1*
X66326085Y-43764000D02*
X66438098Y-43876013D01*
X65175000Y-43764000D02*
X66326085Y-43764000D01*
X66438098Y-43876013D02*
X67084013Y-43876013D01*
X65400000Y-55300000D02*
X65400000Y-58500000D01*
X67084013Y-43876013D02*
X68778000Y-45570000D01*
X68778000Y-45570000D02*
X68778000Y-51922000D01*
X68778000Y-51922000D02*
X65400000Y-55300000D01*
X63400000Y-60900000D02*
X63400000Y-61600000D01*
X65400000Y-58500000D02*
X65400000Y-58900000D01*
X65400000Y-58900000D02*
X63400000Y-60900000D01*
G04 #@! TO.N,/KEY-R2*
X64130000Y-55770000D02*
X64130000Y-58500000D01*
X68132222Y-51767778D02*
X64130000Y-55770000D01*
X68132222Y-45622722D02*
X68132222Y-51767778D01*
X66785524Y-44276024D02*
X68132222Y-45622722D01*
X65175000Y-44264000D02*
X65187024Y-44276024D01*
X65187024Y-44276024D02*
X66785524Y-44276024D01*
X62400000Y-60230000D02*
X62400000Y-61600000D01*
X64130000Y-58500000D02*
X62400000Y-60230000D01*
G04 #@! TO.N,/KEY-R3*
X62860000Y-56140000D02*
X62860000Y-58500000D01*
X67381000Y-51619000D02*
X62860000Y-56140000D01*
X65175000Y-44764000D02*
X66702000Y-44764000D01*
X67381000Y-45443000D02*
X67381000Y-51619000D01*
X66702000Y-44764000D02*
X67381000Y-45443000D01*
X61400000Y-59960000D02*
X61400000Y-61600000D01*
X62860000Y-58500000D02*
X61400000Y-59960000D01*
G04 #@! TO.N,/KEY-R4*
X61600000Y-56600000D02*
X61600000Y-58490000D01*
X61600000Y-58490000D02*
X61590000Y-58500000D01*
X66746000Y-51454000D02*
X61600000Y-56600000D01*
X66746000Y-45760500D02*
X66746000Y-51454000D01*
X65175000Y-45264000D02*
X66249500Y-45264000D01*
X66249500Y-45264000D02*
X66746000Y-45760500D01*
X60400000Y-59690000D02*
X60400000Y-61600000D01*
X61590000Y-58500000D02*
X60400000Y-59690000D01*
G04 #@! TO.N,/KEY-R5*
X60320000Y-56980000D02*
X60320000Y-58500000D01*
X62500000Y-47439000D02*
X62500000Y-54800000D01*
X62500000Y-54800000D02*
X60320000Y-56980000D01*
X59400000Y-59420000D02*
X59400000Y-61600000D01*
X60320000Y-58500000D02*
X59400000Y-59420000D01*
G04 #@! TO.N,/KEY-R6*
X62000000Y-54700000D02*
X59100000Y-57600000D01*
X62000000Y-47439000D02*
X62000000Y-54700000D01*
X59100000Y-58450000D02*
X59050000Y-58500000D01*
X59100000Y-57600000D02*
X59100000Y-58450000D01*
X58400000Y-59150000D02*
X58400000Y-61600000D01*
X59050000Y-58500000D02*
X58400000Y-59150000D01*
G04 #@! TO.N,/KEY-R7*
X61500000Y-47439000D02*
X61500000Y-52946296D01*
X61500000Y-52946296D02*
X61500013Y-52946309D01*
X61500000Y-52946296D02*
X61500000Y-54600000D01*
X61500000Y-54600000D02*
X59100000Y-57000000D01*
X59100000Y-57000000D02*
X58500000Y-57000000D01*
X57780000Y-57720000D02*
X57780000Y-58500000D01*
X58500000Y-57000000D02*
X57780000Y-57720000D01*
X57780000Y-58500000D02*
X57780000Y-59120000D01*
X57400000Y-59500000D02*
X57400000Y-61600000D01*
X57780000Y-59120000D02*
X57400000Y-59500000D01*
G04 #@! TO.N,/KEY-R8*
X61000000Y-47439000D02*
X61000000Y-53011996D01*
X57702905Y-56599989D02*
X56510000Y-57792894D01*
X58700011Y-56599989D02*
X57702905Y-56599989D01*
X61099989Y-54200011D02*
X58700011Y-56599989D01*
X56510000Y-57792894D02*
X56510000Y-58500000D01*
X61099989Y-53111985D02*
X61099989Y-54200011D01*
X61000000Y-53011996D02*
X61099989Y-53111985D01*
X56510000Y-61490000D02*
X56400000Y-61600000D01*
X56510000Y-58500000D02*
X56510000Y-61490000D01*
G04 #@! TO.N,/KEY-C1*
X55300000Y-58440000D02*
X55240000Y-58500000D01*
X55300000Y-56000000D02*
X55300000Y-58440000D01*
X58500000Y-47439000D02*
X58500000Y-52800000D01*
X58500000Y-52800000D02*
X55300000Y-56000000D01*
X55240000Y-61440000D02*
X55400000Y-61600000D01*
X55240000Y-58500000D02*
X55240000Y-61440000D01*
G04 #@! TO.N,/KEY-C2*
X53970000Y-56430000D02*
X53970000Y-58500000D01*
X58000000Y-47439000D02*
X58000000Y-52400000D01*
X58000000Y-52400000D02*
X53970000Y-56430000D01*
X53970000Y-58500000D02*
X54500000Y-59030000D01*
X54500000Y-61500000D02*
X54400000Y-61600000D01*
X54500000Y-59030000D02*
X54500000Y-61500000D01*
G04 #@! TO.N,/KEY-C3*
X52700000Y-56900000D02*
X52700000Y-58500000D01*
X57500000Y-47439000D02*
X57500000Y-52100000D01*
X57500000Y-52100000D02*
X52700000Y-56900000D01*
X53400000Y-59200000D02*
X53400000Y-61600000D01*
X52700000Y-58500000D02*
X53400000Y-59200000D01*
G04 #@! TO.N,/KEY-C4*
X51430000Y-56370000D02*
X51430000Y-58500000D01*
X53300000Y-55500000D02*
X52300000Y-55500000D01*
X57008476Y-51791524D02*
X53300000Y-55500000D01*
X52300000Y-55500000D02*
X51430000Y-56370000D01*
X57000000Y-47439000D02*
X57008476Y-47447476D01*
X57008476Y-47447476D02*
X57008476Y-51791524D01*
X52400000Y-59470000D02*
X52400000Y-61600000D01*
X51430000Y-58500000D02*
X52400000Y-59470000D01*
G04 #@! TO.N,/KEY-C5*
X56500000Y-49482026D02*
X56608465Y-49590491D01*
X56608465Y-49590491D02*
X56608465Y-51391535D01*
X56608465Y-51391535D02*
X53100000Y-54900000D01*
X56500000Y-47439000D02*
X56500000Y-49482026D01*
X50160000Y-56040000D02*
X50160000Y-58500000D01*
X53100000Y-54900000D02*
X51300000Y-54900000D01*
X51300000Y-54900000D02*
X50160000Y-56040000D01*
X51400000Y-59740000D02*
X51400000Y-61600000D01*
X50160000Y-58500000D02*
X51400000Y-59740000D01*
G04 #@! TO.N,/KEY-C6*
X48890000Y-55810000D02*
X48890000Y-58500000D01*
X56208454Y-50991546D02*
X53100000Y-54100000D01*
X53100000Y-54100000D02*
X50600000Y-54100000D01*
X56000000Y-49547726D02*
X56208454Y-49756180D01*
X56000000Y-47439000D02*
X56000000Y-49547726D01*
X56208454Y-49756180D02*
X56208454Y-50991546D01*
X50600000Y-54100000D02*
X48890000Y-55810000D01*
X50400000Y-60010000D02*
X50400000Y-61600000D01*
X48890000Y-58500000D02*
X50400000Y-60010000D01*
G04 #@! TO.N,/KEY-C7*
X47620000Y-55880000D02*
X47620000Y-58500000D01*
X55500000Y-49613426D02*
X55808443Y-49921869D01*
X55500000Y-47439000D02*
X55500000Y-49613426D01*
X55808443Y-49921869D02*
X55808443Y-50591557D01*
X55808443Y-50591557D02*
X52900000Y-53500000D01*
X52900000Y-53500000D02*
X50000000Y-53500000D01*
X50000000Y-53500000D02*
X47620000Y-55880000D01*
X49400000Y-60280000D02*
X49400000Y-61600000D01*
X47620000Y-58500000D02*
X49400000Y-60280000D01*
X49400000Y-62800000D02*
X49400000Y-61600000D01*
X49000000Y-63200000D02*
X49400000Y-62800000D01*
X42825000Y-58800000D02*
X43700000Y-58800000D01*
X48100000Y-63200000D02*
X49000000Y-63200000D01*
X43700000Y-58800000D02*
X48100000Y-63200000D01*
G04 #@! TO.N,/KEY-C8*
X46350000Y-55850000D02*
X46350000Y-58500000D01*
X50800000Y-52600000D02*
X49600000Y-52600000D01*
X52000000Y-47439000D02*
X52000000Y-51400000D01*
X49600000Y-52600000D02*
X46350000Y-55850000D01*
X52000000Y-51400000D02*
X50800000Y-52600000D01*
X48400000Y-60900000D02*
X48400000Y-61600000D01*
X46350000Y-58500000D02*
X46350000Y-58850000D01*
X46350000Y-58850000D02*
X48400000Y-60900000D01*
D35*
G04 #@! TO.N,/LCD-5V*
X77694000Y-2920000D02*
X78074000Y-3300000D01*
X72248500Y-2920000D02*
X77694000Y-2920000D01*
X67429000Y-3742500D02*
X71426000Y-3742500D01*
X71426000Y-3742500D02*
X72248500Y-2920000D01*
X78074000Y-3300000D02*
X80074000Y-3300000D01*
D32*
X78074000Y-3300000D02*
X78074000Y-8474000D01*
X78074000Y-8474000D02*
X78100000Y-8500000D01*
X79074000Y-3300000D02*
X79074000Y-8474000D01*
X79074000Y-8474000D02*
X79100000Y-8500000D01*
X80074000Y-3300000D02*
X80074000Y-8474000D01*
X80074000Y-8474000D02*
X80100000Y-8500000D01*
G04 #@! TO.N,/LCD-D0*
X81074000Y-6200000D02*
X81074000Y-3300000D01*
X80440768Y-12259232D02*
X81074000Y-11626000D01*
X59636255Y-12259232D02*
X80440768Y-12259232D01*
X81074000Y-11626000D02*
X81074000Y-8526000D01*
X59394373Y-12017350D02*
X59636255Y-12259232D01*
X57411500Y-22837000D02*
X57411500Y-15483950D01*
X58259388Y-12017350D02*
X59394373Y-12017350D01*
X57411500Y-15483950D02*
X57395878Y-15468328D01*
X57395878Y-15468328D02*
X57395878Y-12880860D01*
X57500000Y-22925500D02*
X57411500Y-22837000D01*
X57500000Y-32089000D02*
X57500000Y-22925500D01*
X57395878Y-12880860D02*
X58259388Y-12017350D01*
X81074000Y-8526000D02*
X81074000Y-6200000D01*
G04 #@! TO.N,/LCD-D1*
X57000000Y-15638150D02*
X56995867Y-15634017D01*
X56995867Y-12896367D02*
X56776500Y-12677000D01*
X57000000Y-32089000D02*
X57000000Y-15638150D01*
X56995867Y-15634017D02*
X56995867Y-12896367D01*
X82074000Y-6200000D02*
X82074000Y-3300000D01*
X82074000Y-12026000D02*
X82074000Y-8526000D01*
X58300000Y-12900000D02*
X81200000Y-12900000D01*
X81200000Y-12900000D02*
X82074000Y-12026000D01*
X82074000Y-8526000D02*
X82074000Y-6200000D01*
G04 #@! TO.N,/LCD-D2*
X56500000Y-31289000D02*
X56500000Y-32089000D01*
X56551001Y-31237999D02*
X56500000Y-31289000D01*
X56467398Y-17026814D02*
X56551001Y-17110417D01*
X56395500Y-13502500D02*
X56467398Y-13574398D01*
X56551001Y-17110417D02*
X56551001Y-31237999D01*
X56467398Y-13574398D02*
X56467398Y-17026814D01*
X83074000Y-6200000D02*
X83074000Y-3300000D01*
X83074000Y-12026000D02*
X83074000Y-8526000D01*
X58899998Y-13800000D02*
X81300000Y-13800000D01*
X81300000Y-13800000D02*
X83074000Y-12026000D01*
X83074000Y-8526000D02*
X83074000Y-6200000D01*
G04 #@! TO.N,/LCD-D3*
X56000000Y-32089000D02*
X56000000Y-17125116D01*
X55971752Y-17096868D02*
X55971752Y-14373752D01*
X55971752Y-14373752D02*
X55845586Y-14247586D01*
X56000000Y-17125116D02*
X55971752Y-17096868D01*
X84074000Y-12326000D02*
X84074000Y-8526000D01*
X59437533Y-14600000D02*
X81800000Y-14600000D01*
X81800000Y-14600000D02*
X84074000Y-12326000D01*
X58264940Y-14445904D02*
X59283437Y-14445904D01*
X84074000Y-6200000D02*
X84074000Y-3300000D01*
X59283437Y-14445904D02*
X59437533Y-14600000D01*
X84074000Y-8526000D02*
X84074000Y-6200000D01*
G04 #@! TO.N,/LCD-D4*
X55540312Y-15780043D02*
X55540312Y-15065451D01*
X55500000Y-15820355D02*
X55540312Y-15780043D01*
X55500000Y-32089000D02*
X55500000Y-15820355D01*
X55540312Y-15065451D02*
X55215833Y-14740972D01*
X85074000Y-6200000D02*
X85074000Y-3300000D01*
X85074000Y-12326000D02*
X85074000Y-8526000D01*
X59103874Y-15154345D02*
X82245655Y-15154345D01*
X82245655Y-15154345D02*
X85074000Y-12326000D01*
X85074000Y-8526000D02*
X85074000Y-6200000D01*
G04 #@! TO.N,/LCD-D5*
X55000034Y-29314932D02*
X55000001Y-29314899D01*
X55000000Y-32089000D02*
X55000034Y-32088966D01*
X55000034Y-32088966D02*
X55000034Y-29314932D01*
X55000001Y-20119403D02*
X55071510Y-20047894D01*
X55071510Y-15623241D02*
X54940310Y-15492041D01*
X55071510Y-20047894D02*
X55071510Y-15623241D01*
X55000001Y-29314899D02*
X55000001Y-20119403D01*
X86074000Y-6200000D02*
X86074000Y-3300000D01*
X58678412Y-15857165D02*
X59246311Y-15857165D01*
X58467163Y-15645916D02*
X58678412Y-15857165D01*
X59361322Y-15742154D02*
X82757846Y-15742154D01*
X82757846Y-15742154D02*
X86074000Y-12426000D01*
X59246311Y-15857165D02*
X59361322Y-15742154D01*
X86074000Y-12426000D02*
X86074000Y-8526000D01*
X86074000Y-8526000D02*
X86074000Y-6200000D01*
G04 #@! TO.N,/LCD-D6*
X54671499Y-16349691D02*
X54429816Y-16108008D01*
X54671499Y-19882205D02*
X54671499Y-16349691D01*
X54500000Y-31258654D02*
X54600023Y-31158631D01*
X54600023Y-31158631D02*
X54600023Y-29480621D01*
X54599990Y-29480588D02*
X54599990Y-19953714D01*
X54599990Y-19953714D02*
X54671499Y-19882205D01*
X54600023Y-29480621D02*
X54599990Y-29480588D01*
X54500000Y-32089000D02*
X54500000Y-31258654D01*
X87074000Y-6200000D02*
X87074000Y-3300000D01*
X58430277Y-16269727D02*
X59399449Y-16269727D01*
X58200000Y-16500004D02*
X58430277Y-16269727D01*
X83342186Y-16157814D02*
X87074000Y-12426000D01*
X87074000Y-12426000D02*
X87074000Y-8526000D01*
X59399449Y-16269727D02*
X59511362Y-16157814D01*
X59511362Y-16157814D02*
X83342186Y-16157814D01*
X87074000Y-8526000D02*
X87074000Y-6200000D01*
G04 #@! TO.N,/LCD-D7*
X54199979Y-19788025D02*
X54200002Y-19788002D01*
X54200002Y-19788002D02*
X54200002Y-16951861D01*
X54200012Y-30992942D02*
X54200012Y-29646310D01*
X54000000Y-32089000D02*
X54000000Y-31192954D01*
X54199979Y-29646277D02*
X54199979Y-19788025D01*
X54200002Y-16951861D02*
X54071363Y-16823222D01*
X54000000Y-31192954D02*
X54200012Y-30992942D01*
X54200012Y-29646310D02*
X54199979Y-29646277D01*
X88074000Y-6200000D02*
X88074000Y-3300000D01*
X88074000Y-12526000D02*
X88074000Y-8526000D01*
X83918397Y-16681603D02*
X88074000Y-12526000D01*
X58838810Y-16981602D02*
X59138809Y-16681603D01*
X59138809Y-16681603D02*
X83918397Y-16681603D01*
X88074000Y-8526000D02*
X88074000Y-6200000D01*
G04 #@! TO.N,/SOUND-LATCH*
X49825000Y-36764000D02*
X62321500Y-36764000D01*
X62321500Y-36764000D02*
X62745500Y-37188000D01*
X62745500Y-37188000D02*
X63698000Y-37188000D01*
X90074000Y-6200000D02*
X90074000Y-8526000D01*
X90074000Y-6200000D02*
X90074000Y-3300000D01*
X90074000Y-12626000D02*
X90000000Y-12700000D01*
X90074000Y-8526000D02*
X90074000Y-12626000D01*
X66682500Y-34838500D02*
X67317500Y-34203500D01*
X67317500Y-31330167D02*
X72897678Y-25749989D01*
X67317500Y-34203500D02*
X67317500Y-31330167D01*
X90497211Y-25749989D02*
X96699999Y-19547201D01*
X96699999Y-19547201D02*
X96699999Y-13699999D01*
X72897678Y-25749989D02*
X90497211Y-25749989D01*
X96699999Y-13699999D02*
X95800000Y-12800000D01*
G04 #@! TO.N,/LCD-RS*
X91074000Y-6200000D02*
X91074000Y-3300000D01*
X91074000Y-8526000D02*
X91074000Y-6200000D01*
X60213578Y-17160022D02*
X86839978Y-17160022D01*
X57827498Y-19546102D02*
X60213578Y-17160022D01*
X58000000Y-22535504D02*
X57827498Y-22363002D01*
X86839978Y-17160022D02*
X91074000Y-12926000D01*
X57827498Y-22363002D02*
X57827498Y-19546102D01*
X91074000Y-12926000D02*
X91074000Y-8526000D01*
X58000000Y-32089000D02*
X58000000Y-22535504D01*
G04 #@! TO.N,/LCD-E*
X92074000Y-6200000D02*
X92074000Y-3300000D01*
X92074000Y-8526000D02*
X92074000Y-6200000D01*
X59000000Y-32089000D02*
X59000000Y-22390504D01*
X86751667Y-17814033D02*
X92074000Y-12491700D01*
X59027502Y-20472498D02*
X61685967Y-17814033D01*
X59000000Y-22390504D02*
X59027502Y-22363002D01*
X92074000Y-12491700D02*
X92074000Y-8526000D01*
X61685967Y-17814033D02*
X86751667Y-17814033D01*
X59027502Y-22363002D02*
X59027502Y-20472498D01*
G04 #@! TO.N,/LCD-CS*
X49825000Y-36264000D02*
X61438990Y-36264000D01*
X61438990Y-36264000D02*
X61539000Y-36163990D01*
X93074000Y-12374000D02*
X93074000Y-8526000D01*
X95321000Y-19344500D02*
X95321000Y-14621000D01*
X95321000Y-14621000D02*
X93074000Y-12374000D01*
X65984000Y-28806000D02*
X69840033Y-24949967D01*
X69840033Y-24949967D02*
X89715533Y-24949967D01*
X65984000Y-32933500D02*
X65984000Y-28806000D01*
X89715533Y-24949967D02*
X95321000Y-19344500D01*
X93074000Y-8526000D02*
X93074000Y-3300000D01*
G04 #@! TO.N,/LCD-R~W*
X62999500Y-36235500D02*
X62498512Y-36235500D01*
X61050988Y-35764000D02*
X50625000Y-35764000D01*
X50625000Y-35764000D02*
X49825000Y-35764000D01*
X61250999Y-35563989D02*
X61050988Y-35764000D01*
X61827001Y-35563989D02*
X61250999Y-35563989D01*
X62498512Y-36235500D02*
X61827001Y-35563989D01*
X94074000Y-12274000D02*
X94074000Y-8526000D01*
X66682500Y-31399467D02*
X72731989Y-25349978D01*
X72731989Y-25349978D02*
X90077522Y-25349978D01*
X96210000Y-19217500D02*
X96210000Y-14410000D01*
X90077522Y-25349978D02*
X96210000Y-19217500D01*
X66682500Y-33886000D02*
X66682500Y-31399467D01*
X96210000Y-14410000D02*
X94074000Y-12274000D01*
X94074000Y-8526000D02*
X94074000Y-3300000D01*
G04 #@! TO.N,/PA0*
X65175000Y-35264000D02*
X62092712Y-35264000D01*
X61992690Y-35163978D02*
X61085310Y-35163978D01*
X60985288Y-35264000D02*
X52249000Y-35264000D01*
X61085310Y-35163978D02*
X60985288Y-35264000D01*
X62092712Y-35264000D02*
X61992690Y-35163978D01*
X52249000Y-35264000D02*
X51464000Y-35264000D01*
X51464000Y-35264000D02*
X51300000Y-35100000D01*
X46500000Y-32400000D02*
X45500000Y-31400000D01*
X45500000Y-31400000D02*
X25600000Y-31400000D01*
X25600000Y-31400000D02*
X20100000Y-31400000D01*
X11900000Y-19500000D02*
X18899999Y-19500000D01*
X18899999Y-19500000D02*
X19400000Y-20000001D01*
G04 #@! TO.N,/PB5*
X9900000Y-30880000D02*
X16880000Y-30880000D01*
X16880000Y-30880000D02*
X16900000Y-30900000D01*
X59000000Y-47439000D02*
X59000000Y-53200000D01*
X59000000Y-53200000D02*
X58700000Y-53500000D01*
X25700004Y-53200000D02*
X17300000Y-44799996D01*
X47700000Y-53200000D02*
X25700004Y-53200000D01*
G04 #@! TO.N,/PA1*
X65147978Y-34736978D02*
X51785522Y-34736978D01*
X51785522Y-34736978D02*
X51221282Y-34172738D01*
X65175000Y-34764000D02*
X65147978Y-34736978D01*
X9900000Y-20720000D02*
X17920000Y-20720000D01*
X17920000Y-20720000D02*
X18000000Y-20800000D01*
X21300000Y-30900000D02*
X46100000Y-30900000D01*
X46100000Y-30900000D02*
X47600000Y-32400000D01*
X19100000Y-30600000D02*
X21000000Y-30600000D01*
X21000000Y-30600000D02*
X21300000Y-30900000D01*
G04 #@! TO.N,/PB6*
X18000000Y-33300000D02*
X17031971Y-32331971D01*
X17031971Y-32331971D02*
X11779104Y-32331971D01*
X25400000Y-53800000D02*
X17500000Y-45900000D01*
X46600000Y-53800000D02*
X25400000Y-53800000D01*
X59400000Y-53046296D02*
X59400000Y-54200000D01*
X59500000Y-47439000D02*
X59500000Y-52946296D01*
X59500000Y-52946296D02*
X59400000Y-53046296D01*
G04 #@! TO.N,/PA2*
X60914933Y-34209967D02*
X60860900Y-34264000D01*
X65175000Y-34264000D02*
X62725100Y-34264000D01*
X62671067Y-34209967D02*
X60914933Y-34209967D01*
X60860900Y-34264000D02*
X52328500Y-34264000D01*
X62725100Y-34264000D02*
X62671067Y-34209967D01*
X52328500Y-34128500D02*
X52100000Y-33900000D01*
X52328500Y-34264000D02*
X52328500Y-34128500D01*
X21700000Y-30500000D02*
X46700000Y-30500000D01*
X20800000Y-29100000D02*
X20800000Y-29600000D01*
X46700000Y-30500000D02*
X48500000Y-32300000D01*
X20800000Y-29600000D02*
X21700000Y-30500000D01*
X20800000Y-22500002D02*
X12200002Y-22500002D01*
X12200002Y-22500002D02*
X11800000Y-22100000D01*
G04 #@! TO.N,/PB7*
X9900000Y-33420000D02*
X16320000Y-33420000D01*
X16320000Y-33420000D02*
X16500000Y-33600000D01*
X17200000Y-46600000D02*
X16900000Y-46600000D01*
X46100000Y-54600000D02*
X46000000Y-54500000D01*
X16900000Y-46600000D02*
X16700000Y-46400000D01*
X25100000Y-54500000D02*
X17200000Y-46600000D01*
X46000000Y-54500000D02*
X25100000Y-54500000D01*
X59899978Y-53688001D02*
X60000000Y-53788023D01*
X59899978Y-53111999D02*
X59899978Y-53688001D01*
X60000000Y-47439000D02*
X60000000Y-53011977D01*
X59600000Y-55000000D02*
X58900000Y-55000000D01*
X60000000Y-53011977D02*
X59899978Y-53111999D01*
X60000000Y-54600000D02*
X59600000Y-55000000D01*
X60000000Y-53788023D02*
X60000000Y-54600000D01*
G04 #@! TO.N,/PA3*
X53664000Y-33764000D02*
X53500000Y-33600000D01*
X65175000Y-33764000D02*
X53664000Y-33764000D01*
X49600000Y-32199968D02*
X47500032Y-30100000D01*
X47500032Y-30100000D02*
X22800000Y-30100000D01*
X22800000Y-30100000D02*
X20500000Y-27800000D01*
X20500000Y-27800000D02*
X18500000Y-27800000D01*
X17640000Y-23260000D02*
X17700000Y-23200000D01*
X9900000Y-23260000D02*
X17640000Y-23260000D01*
G04 #@! TO.N,/PB11*
X19249000Y-33251000D02*
X17654384Y-34845616D01*
X17654384Y-34845616D02*
X11754749Y-34845616D01*
X52668346Y-33251000D02*
X19249000Y-33251000D01*
X53000000Y-32919346D02*
X52668346Y-33251000D01*
X53000000Y-32089000D02*
X53000000Y-32919346D01*
G04 #@! TO.N,/PA4*
X62500000Y-28162500D02*
X62936000Y-27726500D01*
X62936000Y-23662500D02*
X62012010Y-22738510D01*
X62500000Y-32089000D02*
X62500000Y-28162500D01*
X62936000Y-27726500D02*
X62936000Y-23662500D01*
X62012010Y-22738510D02*
X60523000Y-22738510D01*
X52141000Y-22138500D02*
X50934500Y-23345000D01*
X26692990Y-25992990D02*
X24800001Y-24100001D01*
X50934500Y-23345000D02*
X45981500Y-23345000D01*
X45981500Y-23345000D02*
X43333510Y-25992990D01*
X12291714Y-24100001D02*
X11791715Y-24600000D01*
X43333510Y-25992990D02*
X26692990Y-25992990D01*
X24800001Y-24100001D02*
X12291714Y-24100001D01*
G04 #@! TO.N,/PB12*
X49825000Y-33764000D02*
X19770300Y-33764000D01*
X17574300Y-35960000D02*
X9900000Y-35960000D01*
X19770300Y-33764000D02*
X17574300Y-35960000D01*
G04 #@! TO.N,/PA5*
X62535989Y-23828189D02*
X62116300Y-23408500D01*
X62000000Y-32089000D02*
X62000000Y-27837000D01*
X62000000Y-27837000D02*
X62535989Y-27301011D01*
X62535989Y-27301011D02*
X62535989Y-23828189D01*
X62116300Y-23408500D02*
X61094500Y-23408500D01*
X15900000Y-24600000D02*
X14700000Y-25800000D01*
X52599979Y-22801728D02*
X51548707Y-23853000D01*
X51548707Y-23853000D02*
X46299000Y-23853000D01*
X46299000Y-23853000D02*
X43759000Y-26393000D01*
X43759000Y-26393000D02*
X25993000Y-26393000D01*
X14700000Y-25800000D02*
X9900000Y-25800000D01*
X25993000Y-26393000D02*
X24200000Y-24600000D01*
X24200000Y-24600000D02*
X15900000Y-24600000D01*
G04 #@! TO.N,/PB13*
X49825000Y-34264000D02*
X20536000Y-34264000D01*
X20536000Y-34264000D02*
X17444802Y-37355198D01*
X17444802Y-37355198D02*
X11844804Y-37355198D01*
G04 #@! TO.N,/PA6*
X61500000Y-32089000D02*
X61500000Y-27511500D01*
X61500000Y-27511500D02*
X62110500Y-26901000D01*
X62110500Y-26901000D02*
X62110500Y-24424500D01*
X62110500Y-24424500D02*
X61856500Y-24170500D01*
X14299998Y-27100002D02*
X11800000Y-27100002D01*
X16200000Y-25200000D02*
X14299998Y-27100002D01*
X25165180Y-26799480D02*
X23565700Y-25200000D01*
X46787989Y-24253011D02*
X44241519Y-26799480D01*
X52049521Y-24253011D02*
X46787989Y-24253011D01*
X52599979Y-23702553D02*
X52049521Y-24253011D01*
X23565700Y-25200000D02*
X16200000Y-25200000D01*
X44241519Y-26799480D02*
X25165180Y-26799480D01*
G04 #@! TO.N,/PB14*
X17300000Y-38500000D02*
X9900000Y-38500000D01*
X49825000Y-34764000D02*
X21036000Y-34764000D01*
X21036000Y-34764000D02*
X17300000Y-38500000D01*
G04 #@! TO.N,/PA7*
X61000000Y-32089000D02*
X61000000Y-27249500D01*
X61000000Y-27249500D02*
X61475500Y-26774000D01*
X61475500Y-26774000D02*
X61475500Y-25123000D01*
X61475500Y-25123000D02*
X61221500Y-24869000D01*
X16800000Y-25700000D02*
X14160000Y-28340000D01*
X25037509Y-27237509D02*
X23500000Y-25700000D01*
X47260940Y-24669060D02*
X44692491Y-27237509D01*
X52599979Y-24669060D02*
X47260940Y-24669060D01*
X23500000Y-25700000D02*
X16800000Y-25700000D01*
X44692491Y-27237509D02*
X25037509Y-27237509D01*
X14160000Y-28340000D02*
X9900000Y-28340000D01*
G04 #@! TO.N,/PB15*
X49825000Y-35264000D02*
X22036000Y-35264000D01*
X17500000Y-39800000D02*
X11900000Y-39800000D01*
X22036000Y-35264000D02*
X17500000Y-39800000D01*
G04 #@! TO.N,/PA8*
X24864000Y-41764000D02*
X23800000Y-40700000D01*
X49825000Y-41764000D02*
X24864000Y-41764000D01*
X17654281Y-29754281D02*
X12167396Y-29754280D01*
X12167396Y-29754280D02*
X11743132Y-29754280D01*
X18200000Y-30300000D02*
X17654281Y-29754281D01*
X18200000Y-31900000D02*
X18200000Y-30300000D01*
X18600000Y-32300000D02*
X18200000Y-31900000D01*
X23700000Y-32300000D02*
X18600000Y-32300000D01*
G04 #@! TO.N,/PC1*
X65175000Y-38264000D02*
X51629500Y-38264000D01*
X51629500Y-38264000D02*
X51509500Y-38264000D01*
X51509500Y-38264000D02*
X51379000Y-38394500D01*
X18960000Y-41040000D02*
X9900000Y-41040000D01*
X48077000Y-39029500D02*
X20970500Y-39029500D01*
X20970500Y-39029500D02*
X18960000Y-41040000D01*
G04 #@! TO.N,/PD0*
X54000000Y-49673258D02*
X53887839Y-49785419D01*
X54000000Y-47439000D02*
X54000000Y-49673258D01*
X12199999Y-44600001D02*
X11900000Y-44900000D01*
X49800000Y-49800000D02*
X48499988Y-51100012D01*
X48499988Y-51100012D02*
X35000012Y-51100012D01*
X35000012Y-51100012D02*
X27400000Y-43500000D01*
X13300000Y-43500000D02*
X12199999Y-44600001D01*
X50600000Y-49800000D02*
X49800000Y-49800000D01*
X27400000Y-43500000D02*
X13300000Y-43500000D01*
G04 #@! TO.N,/PC4*
X60949999Y-25930999D02*
X60650000Y-25631000D01*
X60500000Y-32089000D02*
X60500000Y-26831257D01*
X60500000Y-26831257D02*
X60949999Y-26381258D01*
X60949999Y-26381258D02*
X60949999Y-25930999D01*
X47505500Y-25567500D02*
X49855996Y-25567500D01*
X49855996Y-25567500D02*
X50155995Y-25267501D01*
X52285501Y-25267501D02*
X52585500Y-25567500D01*
X24299499Y-27899499D02*
X45173501Y-27899499D01*
X23999500Y-27599500D02*
X24299499Y-27899499D01*
X50155995Y-25267501D02*
X52285501Y-25267501D01*
X45173501Y-27899499D02*
X47505500Y-25567500D01*
X11800000Y-42400000D02*
X12700000Y-41500000D01*
X21100000Y-39700000D02*
X24600000Y-39700000D01*
X19300000Y-41500000D02*
X21100000Y-39700000D01*
X12700000Y-41500000D02*
X19300000Y-41500000D01*
G04 #@! TO.N,/PD1*
X54500000Y-47439000D02*
X54500000Y-49411996D01*
X54500000Y-49411996D02*
X54500000Y-50300000D01*
X54500000Y-50300000D02*
X54400000Y-50400000D01*
X49268874Y-51500023D02*
X49868887Y-50900010D01*
X26300000Y-44000000D02*
X33800023Y-51500023D01*
X33800023Y-51500023D02*
X49268874Y-51500023D01*
X9900000Y-46120000D02*
X12780000Y-46120000D01*
X14900000Y-44000000D02*
X26300000Y-44000000D01*
X12780000Y-46120000D02*
X14900000Y-44000000D01*
G04 #@! TO.N,/PC5*
X60000000Y-26480464D02*
X60100010Y-26380454D01*
X60000000Y-32089000D02*
X60000000Y-26480464D01*
X51633000Y-26266000D02*
X51887000Y-26012000D01*
X48077000Y-26266000D02*
X51633000Y-26266000D01*
X15900000Y-27700000D02*
X16600000Y-27000000D01*
X45981500Y-28361500D02*
X48077000Y-26266000D01*
X15900000Y-28200000D02*
X15900000Y-27700000D01*
X16600000Y-27000000D02*
X21500000Y-27000000D01*
X21500000Y-27000000D02*
X22861500Y-28361500D01*
X22861500Y-28361500D02*
X45981500Y-28361500D01*
X15000000Y-42700000D02*
X15600000Y-42100000D01*
X13534300Y-42700000D02*
X15000000Y-42700000D01*
X9900000Y-43580000D02*
X12654300Y-43580000D01*
X12654300Y-43580000D02*
X13534300Y-42700000D01*
G04 #@! TO.N,/BOOT0*
X171120000Y-59800000D02*
X74600000Y-59800000D01*
X172000000Y-58920000D02*
X171120000Y-59800000D01*
X60500000Y-53399979D02*
X60499979Y-53400000D01*
X60500000Y-47439000D02*
X60500000Y-53399979D01*
X74575000Y-59775000D02*
X74600000Y-59800000D01*
X74575000Y-58300000D02*
X74575000Y-59775000D01*
G04 #@! TO.N,/SWDC*
X91603998Y-61460000D02*
X91588998Y-61445000D01*
X172000000Y-61460000D02*
X91603998Y-61460000D01*
X51500000Y-47439000D02*
X51500000Y-49703500D01*
X51500000Y-49703500D02*
X51500000Y-50800000D01*
X51500000Y-50800000D02*
X50600000Y-51700000D01*
X91603998Y-61460000D02*
X74859966Y-61460000D01*
X74859966Y-61460000D02*
X71499999Y-58100033D01*
X71499999Y-58100033D02*
X71200000Y-57800034D01*
G04 #@! TO.N,/SWDIO*
X70500000Y-52700000D02*
X76800000Y-52700000D01*
X76800000Y-52700000D02*
X80000000Y-52700000D01*
X80000000Y-52700000D02*
X80200000Y-52900000D01*
X80800000Y-64000000D02*
X80200000Y-63400000D01*
X172000000Y-64000000D02*
X80800000Y-64000000D01*
X59264000Y-44264000D02*
X60099979Y-45099979D01*
X49825000Y-44264000D02*
X59264000Y-44264000D01*
X60099979Y-45099979D02*
X61100000Y-45099979D01*
G04 #@! TO.N,/TRACE-RX*
X49825000Y-42764000D02*
X54796000Y-42764000D01*
X54796000Y-42764000D02*
X60464000Y-42764000D01*
X60464000Y-42764000D02*
X60900000Y-43200000D01*
X71518243Y-50899989D02*
X71093979Y-50899989D01*
X76999989Y-50899989D02*
X71518243Y-50899989D01*
X76999989Y-50899989D02*
X80099989Y-50899989D01*
X80099989Y-50899989D02*
X80100000Y-50900000D01*
X81340000Y-66540000D02*
X80700000Y-65900000D01*
X172000000Y-66540000D02*
X81340000Y-66540000D01*
G04 #@! TO.N,/TRACE-TX*
X49825000Y-42264000D02*
X54613500Y-42264000D01*
X54613500Y-42264000D02*
X60864000Y-42264000D01*
X60864000Y-42264000D02*
X60900000Y-42300000D01*
X70824264Y-50275284D02*
X70400000Y-50275284D01*
X77075284Y-50275284D02*
X70824264Y-50275284D01*
X77075284Y-50275284D02*
X80975284Y-50275284D01*
X80975284Y-50275284D02*
X81100000Y-50400000D01*
X82280000Y-69080000D02*
X81500000Y-68300000D01*
X172000000Y-69080000D02*
X82280000Y-69080000D01*
G04 #@! TO.N,/SDCARD-D0*
X49825000Y-40764000D02*
X53875500Y-40764000D01*
X53875500Y-40764000D02*
X61464000Y-40764000D01*
X61464000Y-40764000D02*
X61800000Y-41100000D01*
X173725000Y-30800000D02*
X176400000Y-30800000D01*
X176400000Y-30800000D02*
X176600000Y-30600000D01*
X173725000Y-30500000D02*
X172949990Y-31275010D01*
X91565690Y-49000010D02*
X92599990Y-49000010D01*
X92599990Y-49000010D02*
X92700000Y-48900000D01*
X91490427Y-49075273D02*
X91565690Y-49000010D01*
X70437202Y-49075273D02*
X91490427Y-49075273D01*
X97299998Y-48100000D02*
X94600000Y-50799998D01*
X152400000Y-48100000D02*
X97299998Y-48100000D01*
X169224990Y-31275010D02*
X152400000Y-48100000D01*
X169224990Y-31275010D02*
X172949990Y-31275010D01*
G04 #@! TO.N,/SDCARD-D1*
X49825000Y-41264000D02*
X53994500Y-41264000D01*
X53994500Y-41264000D02*
X60764000Y-41264000D01*
X60764000Y-41264000D02*
X61000000Y-41500000D01*
X173725000Y-29200000D02*
X176400000Y-29200000D01*
X176400000Y-29200000D02*
X176600000Y-29400000D01*
X91724746Y-49675274D02*
X91800000Y-49600020D01*
X69600000Y-49675274D02*
X91724746Y-49675274D01*
X173700000Y-28900000D02*
X173725000Y-28900000D01*
X172875010Y-29724990D02*
X173700000Y-28900000D01*
X169575010Y-29724990D02*
X172875010Y-29724990D01*
X151900000Y-47400000D02*
X169575010Y-29724990D01*
X93600000Y-50700000D02*
X96900000Y-47400000D01*
X96900000Y-47400000D02*
X151900000Y-47400000D01*
G04 #@! TO.N,/SDCARD-CK*
X53287838Y-50787838D02*
X53600010Y-51100010D01*
X53500000Y-47439000D02*
X53500000Y-49285256D01*
X53500000Y-49285256D02*
X53287838Y-49497418D01*
X53287838Y-49497418D02*
X53287838Y-50787838D01*
X97311996Y-49000000D02*
X153700000Y-49000000D01*
X70499998Y-56085363D02*
X70814637Y-56400002D01*
X70254684Y-56085363D02*
X70499998Y-56085363D01*
X70814637Y-56400002D02*
X79399998Y-56400002D01*
X79399998Y-56400002D02*
X82699989Y-53100011D01*
X93211985Y-53100011D02*
X97311996Y-49000000D01*
X153700000Y-49000000D02*
X169800000Y-32900000D01*
X82699989Y-53100011D02*
X93211985Y-53100011D01*
X176175736Y-32700000D02*
X176600000Y-32700000D01*
X175975736Y-32900000D02*
X176175736Y-32700000D01*
X169800000Y-32900000D02*
X175975736Y-32900000D01*
G04 #@! TO.N,/SDCARD-D2*
X52400000Y-49253856D02*
X52400000Y-52200000D01*
X52500000Y-47439000D02*
X52500000Y-49153856D01*
X52500000Y-49153856D02*
X52400000Y-49253856D01*
X173759000Y-37400000D02*
X176300000Y-37400000D01*
X176300000Y-37400000D02*
X176600000Y-37100000D01*
X173759000Y-37541000D02*
X173759000Y-37400000D01*
X172900000Y-38400000D02*
X173759000Y-37541000D01*
X70435674Y-57200024D02*
X80099976Y-57200024D01*
X70327426Y-57308272D02*
X70435674Y-57200024D01*
X153900000Y-51500000D02*
X167000000Y-38400000D01*
X80099976Y-57200024D02*
X83200000Y-54100000D01*
X83200000Y-54100000D02*
X94600000Y-54100000D01*
X94600000Y-54100000D02*
X97200000Y-51500000D01*
X97200000Y-51500000D02*
X153900000Y-51500000D01*
X167000000Y-38400000D02*
X172900000Y-38400000D01*
G04 #@! TO.N,/SDCARD-D3*
X53000000Y-47439000D02*
X53000000Y-49219556D01*
X52800011Y-51431399D02*
X53034310Y-51665698D01*
X52800011Y-49419545D02*
X52800011Y-51431399D01*
X53000000Y-49219556D02*
X52800011Y-49419545D01*
X173759000Y-35800000D02*
X176400000Y-35800000D01*
X176400000Y-35800000D02*
X176600000Y-36000000D01*
X173759000Y-35800000D02*
X173759000Y-35841000D01*
X173759000Y-35841000D02*
X172975010Y-36624990D01*
X70646309Y-56800013D02*
X79799987Y-56800013D01*
X97288004Y-50800000D02*
X153600000Y-50800000D01*
X69741062Y-56685364D02*
X70531660Y-56685364D01*
X79799987Y-56800013D02*
X83000000Y-53600000D01*
X153600000Y-50800000D02*
X167775010Y-36624990D01*
X69598020Y-56542322D02*
X69741062Y-56685364D01*
X70531660Y-56685364D02*
X70646309Y-56800013D01*
X94488004Y-53600000D02*
X97288004Y-50800000D01*
X83000000Y-53600000D02*
X94488004Y-53600000D01*
X167775010Y-36624990D02*
X172975010Y-36624990D01*
G04 #@! TO.N,/SDCARD-CMD*
X55000000Y-47439000D02*
X55000013Y-47439013D01*
X55000013Y-49991561D02*
X55208442Y-50199990D01*
X55000013Y-47439013D02*
X55000013Y-49991561D01*
X175900002Y-34200000D02*
X176600002Y-34900000D01*
X173759000Y-34200000D02*
X175900002Y-34200000D01*
X71100000Y-55800000D02*
X79400000Y-55800000D01*
X82699999Y-52500001D02*
X92750000Y-52500001D01*
X79400000Y-55800000D02*
X82699999Y-52500001D01*
X173759000Y-34241000D02*
X173759000Y-34200000D01*
X172975010Y-35024990D02*
X173759000Y-34241000D01*
X168575010Y-35024990D02*
X172975010Y-35024990D01*
X153800000Y-49800000D02*
X168575010Y-35024990D01*
X94300000Y-52900000D02*
X97400000Y-49800000D01*
X97400000Y-49800000D02*
X153800000Y-49800000D01*
D33*
G04 #@! TO.N,Net-(L1-Pad2)*
X145900000Y-29100000D02*
X145900000Y-30000000D01*
D35*
X147500000Y-27500000D02*
X145900000Y-29100000D01*
D33*
X147500000Y-26252500D02*
X147500000Y-26900000D01*
D35*
X147500000Y-27500000D02*
X147500000Y-26900000D01*
D33*
G04 #@! TO.N,Net-(L1-Pad1)*
X149700000Y-29200000D02*
X149700000Y-30000000D01*
D35*
X148500000Y-28000000D02*
X149700000Y-29200000D01*
D33*
X148500000Y-26252500D02*
X148500000Y-27000000D01*
D35*
X148500000Y-28000000D02*
X148500000Y-27000000D01*
G04 #@! TO.N,Net-(L2-Pad1)*
X130300000Y-32750000D02*
X129050000Y-32750000D01*
X127900000Y-31600000D02*
X127900000Y-31100000D01*
X129050000Y-32750000D02*
X127900000Y-31600000D01*
D32*
G04 #@! TO.N,/CHARGE-PWM*
X124375000Y-20575000D02*
X124200000Y-20400000D01*
X126000000Y-20575000D02*
X124375000Y-20575000D01*
X49825000Y-40264000D02*
X52975996Y-40264000D01*
X52975996Y-40264000D02*
X53011998Y-40300002D01*
X62109998Y-40300002D02*
X63144001Y-39265999D01*
X63144001Y-39265999D02*
X63444000Y-38966000D01*
X53011998Y-40300002D02*
X62109998Y-40300002D01*
X72080000Y-38267500D02*
X66682500Y-38267500D01*
X73221523Y-37125977D02*
X72080000Y-38267500D01*
X81540023Y-37125977D02*
X73221523Y-37125977D01*
X113900000Y-30200000D02*
X113900000Y-30300000D01*
X113900000Y-30300000D02*
X110441000Y-33759000D01*
X110441000Y-33759000D02*
X94241500Y-33759000D01*
X94241500Y-33759000D02*
X92971500Y-35029000D01*
X92971500Y-35029000D02*
X83637000Y-35029000D01*
X83637000Y-35029000D02*
X81540023Y-37125977D01*
X124200000Y-20464000D02*
X124200000Y-20400000D01*
X120500000Y-26300000D02*
X121912000Y-24888000D01*
X121912000Y-24888000D02*
X121912000Y-22053500D01*
X114000000Y-26300000D02*
X120500000Y-26300000D01*
X122610500Y-21355000D02*
X123309000Y-21355000D01*
X123309000Y-21355000D02*
X124200000Y-20464000D01*
X121912000Y-22053500D02*
X122610500Y-21355000D01*
G04 #@! TO.N,/LCD-ON*
X67429000Y-7517500D02*
X67254000Y-7692500D01*
X67429000Y-5642500D02*
X67429000Y-7517500D01*
X49825000Y-39764000D02*
X52558000Y-39764000D01*
X52558000Y-39764000D02*
X52936000Y-39764000D01*
X52936000Y-39764000D02*
X53100000Y-39600000D01*
X52499998Y-15800002D02*
X57210500Y-11089500D01*
X57210500Y-11089500D02*
X65539500Y-11089500D01*
X67254000Y-9375000D02*
X67254000Y-7692500D01*
X65539500Y-11089500D02*
X67254000Y-9375000D01*
X53200000Y-30100000D02*
X53200000Y-20888004D01*
X53200000Y-20888004D02*
X52499998Y-20188002D01*
X52499998Y-20188002D02*
X52499998Y-15800002D01*
G04 #@! TO.N,/LCD-CON-PWM*
X59500000Y-23479000D02*
X59507000Y-23472000D01*
X59500000Y-32089000D02*
X59500000Y-23479000D01*
X66959000Y-22582000D02*
X66959000Y-22518000D01*
X66959000Y-22518000D02*
X69119000Y-22518000D01*
X69119000Y-22518000D02*
X69182000Y-22581000D01*
X67104000Y-20464500D02*
X67104000Y-22373000D01*
X67104000Y-22373000D02*
X66959000Y-22518000D01*
X62100000Y-18500000D02*
X59500000Y-21100000D01*
X67104000Y-20464500D02*
X67104000Y-20004000D01*
X59500000Y-22526500D02*
X59500000Y-23479000D01*
X59500000Y-21100000D02*
X59500000Y-22526500D01*
X67104000Y-20004000D02*
X65600000Y-18500000D01*
X65600000Y-18500000D02*
X62100000Y-18500000D01*
G04 #@! TO.N,Net-(R2-Pad2)*
X132200000Y-36725000D02*
X132075000Y-36850000D01*
X132200000Y-34950000D02*
X132200000Y-36725000D01*
X132075000Y-36850000D02*
X132075000Y-38600000D01*
D35*
G04 #@! TO.N,Net-(R3-Pad2)*
X142075000Y-23040000D02*
X143675000Y-23040000D01*
D32*
X147000000Y-23271500D02*
X147000000Y-23827500D01*
X143675000Y-22997000D02*
X144597000Y-22075000D01*
X143675000Y-23040000D02*
X143675000Y-22997000D01*
X144597000Y-22075000D02*
X145803500Y-22075000D01*
X145803500Y-22075000D02*
X147000000Y-23271500D01*
G04 #@! TO.N,Net-(R11-Pad2)*
X108925000Y-21750000D02*
X108750000Y-21925000D01*
X110650000Y-21750000D02*
X108925000Y-21750000D01*
X108750000Y-21925000D02*
X107000000Y-21925000D01*
G04 #@! TO.N,/ADC-BAT*
X87129000Y-30076000D02*
X88527000Y-30076000D01*
X71952100Y-37264000D02*
X73272620Y-35943480D01*
X73272620Y-35943480D02*
X80861520Y-35943480D01*
X65175000Y-37264000D02*
X71952100Y-37264000D01*
X86729000Y-30076000D02*
X87129000Y-30076000D01*
X80861520Y-35943480D02*
X86729000Y-30076000D01*
G04 #@! TO.N,/WAKEUP*
X41300000Y-58675000D02*
X41175000Y-58800000D01*
X41300000Y-55700000D02*
X41300000Y-58675000D01*
X51234311Y-45699989D02*
X47300000Y-49634300D01*
X64336000Y-42764000D02*
X61400011Y-45699989D01*
X61400011Y-45699989D02*
X51234311Y-45699989D01*
X47300000Y-49634300D02*
X47300000Y-50100000D01*
X65175000Y-42764000D02*
X64336000Y-42764000D01*
G04 #@! TO.N,/QSPI-CS*
X34683000Y-19594000D02*
X34058000Y-19594000D01*
X35504000Y-17693500D02*
X35504000Y-18773000D01*
X35504000Y-18773000D02*
X34683000Y-19594000D01*
X36456500Y-16741000D02*
X35504000Y-17693500D01*
X36457000Y-16741000D02*
X36456500Y-16741000D01*
X36456500Y-17543496D02*
X36399996Y-17600000D01*
X36456500Y-16741000D02*
X36456500Y-17543496D01*
X53500000Y-32089000D02*
X53500000Y-30688002D01*
X53500000Y-30688002D02*
X53800001Y-30388001D01*
X53699999Y-18199999D02*
X53300000Y-17800000D01*
X53699999Y-29711997D02*
X53699999Y-18199999D01*
X53800001Y-29811999D02*
X53699999Y-29711997D01*
X53800001Y-30388001D02*
X53800001Y-29811999D01*
G04 #@! TO.N,/I-CHARGE*
X87079000Y-33124000D02*
X88527000Y-33124000D01*
X85701009Y-34501991D02*
X87079000Y-33124000D01*
X81756809Y-36343491D02*
X83598309Y-34501991D01*
X83598309Y-34501991D02*
X85701009Y-34501991D01*
X65175000Y-37764000D02*
X66297998Y-37764000D01*
X66394499Y-37667499D02*
X72114301Y-37667499D01*
X73438309Y-36343491D02*
X81756809Y-36343491D01*
X72114301Y-37667499D02*
X73438309Y-36343491D01*
X66297998Y-37764000D02*
X66394499Y-37667499D01*
G04 #@! TO.N,/QSPI-IO2*
X34058000Y-22134000D02*
X35334000Y-22134000D01*
X35334000Y-22134000D02*
X36500000Y-23300000D01*
X36500000Y-23300000D02*
X36500000Y-25300000D01*
X37524264Y-43024264D02*
X37524264Y-42900000D01*
X45200001Y-50700001D02*
X37524264Y-43024264D01*
X64839000Y-46100000D02*
X51400000Y-46100000D01*
X37524264Y-42900000D02*
X37100000Y-42900000D01*
X65175000Y-45764000D02*
X64839000Y-46100000D01*
X51400000Y-46100000D02*
X48100000Y-49400000D01*
X48100000Y-49400000D02*
X48100000Y-50188002D01*
X48100000Y-50188002D02*
X47588001Y-50700001D01*
X47588001Y-50700001D02*
X45200001Y-50700001D01*
G04 #@! TO.N,/QSPI-CLK*
X58500000Y-22147500D02*
X58427500Y-22075000D01*
X58500000Y-32089000D02*
X58500000Y-22147500D01*
X51747309Y-21052691D02*
X52516143Y-21052691D01*
X50666000Y-22134000D02*
X51747309Y-21052691D01*
X41058000Y-22134000D02*
X50666000Y-22134000D01*
G04 #@! TO.N,/QSPI-IO0*
X41704000Y-23404000D02*
X41058000Y-23404000D01*
X42500000Y-25100000D02*
X42500000Y-24200000D01*
X42500000Y-24200000D02*
X41704000Y-23404000D01*
X49825000Y-37264000D02*
X42964000Y-37264000D01*
X42964000Y-37264000D02*
X42700000Y-37000000D01*
G04 #@! TO.N,/QSPI-IO1*
X49825000Y-37764000D02*
X48018000Y-37764000D01*
X48018000Y-37764000D02*
X36864000Y-37764000D01*
X36864000Y-37764000D02*
X36300000Y-37200000D01*
X34664000Y-20864000D02*
X34058000Y-20864000D01*
X35600000Y-21500000D02*
X35300000Y-21500000D01*
X35300000Y-21500000D02*
X34664000Y-20864000D01*
G04 #@! TO.N,/QSPI-IO3*
X49825000Y-38264000D02*
X48017000Y-38264000D01*
X41058000Y-20864000D02*
X39736000Y-20864000D01*
X39736000Y-20864000D02*
X39500000Y-21100000D01*
X39500000Y-21100000D02*
X39500000Y-24000000D01*
X39500000Y-24000000D02*
X40800000Y-25300000D01*
X40800000Y-25300000D02*
X41500000Y-25300000D01*
X47881000Y-38400000D02*
X48017000Y-38264000D01*
X42800000Y-38400000D02*
X47881000Y-38400000D01*
G04 #@! TO.N,/ADC-5V*
X87129000Y-36172000D02*
X88527000Y-36172000D01*
X82278689Y-37524511D02*
X86251489Y-37524511D01*
X68299199Y-38867501D02*
X68499189Y-38667511D01*
X87129000Y-36647000D02*
X87129000Y-36172000D01*
X72499689Y-38667511D02*
X73641212Y-37525988D01*
X73641212Y-37525988D02*
X82277212Y-37525988D01*
X68499189Y-38667511D02*
X72499689Y-38667511D01*
X66290998Y-38764000D02*
X66394499Y-38867501D01*
X65175000Y-38764000D02*
X66290998Y-38764000D01*
X66394499Y-38867501D02*
X68299199Y-38867501D01*
X86251489Y-37524511D02*
X87129000Y-36647000D01*
X82277212Y-37525988D02*
X82278689Y-37524511D01*
D34*
G04 #@! TO.N,/3-5V*
X158750000Y-26690000D02*
X155750000Y-26690000D01*
X152325000Y-26690000D02*
X152250000Y-26765000D01*
X155750000Y-26690000D02*
X152325000Y-26690000D01*
G04 #@! TO.N,Net-(D4-Pad1)*
X119487500Y-18900000D02*
X119705000Y-19117500D01*
X119487500Y-19781000D02*
X119487500Y-18900000D01*
X120086000Y-20379500D02*
X119487500Y-19781000D01*
X122300000Y-20400000D02*
X122279500Y-20379500D01*
X119900000Y-20000000D02*
X119900000Y-18900000D01*
X122300000Y-20400000D02*
X120300000Y-20400000D01*
X120300000Y-20400000D02*
X119900000Y-20000000D01*
X119900000Y-21650000D02*
X119250000Y-22300000D01*
X119900000Y-18900000D02*
X119900000Y-21650000D01*
D36*
G04 #@! TO.N,Net-(J1-Pad2)*
X186150004Y-21250000D02*
X186600004Y-20800000D01*
X185455000Y-21250000D02*
X186150004Y-21250000D01*
G04 #@! TO.N,Net-(J1-Pad3)*
X185455000Y-22800000D02*
X185799994Y-22800000D01*
X185799994Y-22800000D02*
X186699994Y-21900000D01*
D32*
G04 #@! TO.N,Net-(C33-Pad1)*
X148775000Y-22040000D02*
X148775000Y-22723000D01*
X148500000Y-22998000D02*
X148500000Y-23827500D01*
X148775000Y-22723000D02*
X148500000Y-22998000D01*
X148500000Y-23827500D02*
X148000000Y-23827500D01*
X148500000Y-23827500D02*
X149000000Y-23827500D01*
G04 #@! TO.N,Net-(D3-Pad1)*
X179225000Y-47400000D02*
X178825000Y-47000000D01*
X181500000Y-47400000D02*
X179225000Y-47400000D01*
G04 #@! TO.N,Net-(R4-Pad1)*
X112850000Y-26149994D02*
X112850006Y-26150000D01*
X112850000Y-22700000D02*
X112850000Y-26149994D01*
X90177000Y-33124000D02*
X109675999Y-33124000D01*
X109675999Y-33124000D02*
X112900000Y-29899999D01*
G04 #@! TO.N,/LCD-CTRPWM*
X67133500Y-18564500D02*
X68356500Y-19787500D01*
X67104000Y-18564500D02*
X67133500Y-18564500D01*
X68356500Y-20200500D02*
X69087000Y-20931000D01*
X68356500Y-19787500D02*
X68356500Y-20200500D01*
X69087000Y-20931000D02*
X69182000Y-20931000D01*
X67104000Y-18564500D02*
X67260500Y-18564500D01*
X89074000Y-3300000D02*
X89074000Y-8526000D01*
X89074000Y-12926006D02*
X86200006Y-15800000D01*
X69182000Y-20931000D02*
X84669000Y-20931000D01*
X84669000Y-20931000D02*
X86200001Y-19399999D01*
X89074000Y-8526000D02*
X89074000Y-12926006D01*
G04 #@! TD*
G04 #@! TO.N,/5VINT*
X146941190Y-25935659D02*
X147000000Y-25941451D01*
X147037000Y-25941451D01*
X147037000Y-26599469D01*
X147031104Y-26610500D01*
X144824000Y-26610500D01*
X144824000Y-25921500D01*
X146894516Y-25921500D01*
X146941190Y-25935659D01*
G04 #@! TA.AperFunction,Conductor*
D39*
G36*
X146941190Y-25935659D02*
G01*
X147000000Y-25941451D01*
X147037000Y-25941451D01*
X147037000Y-26599469D01*
X147031104Y-26610500D01*
X144824000Y-26610500D01*
X144824000Y-25921500D01*
X146894516Y-25921500D01*
X146941190Y-25935659D01*
G37*
G04 #@! TD.AperFunction*
G04 #@! TD*
D32*
G04 #@! TO.N,/3-5V*
X150924838Y-26300013D02*
X150947000Y-26302500D01*
X153450500Y-26302500D01*
X153450500Y-27245500D01*
X150405777Y-27245500D01*
X149478470Y-26627295D01*
X149461172Y-26618072D01*
X149442406Y-26612401D01*
X149423000Y-26610500D01*
X148951500Y-26610500D01*
X148951500Y-25985000D01*
X149538781Y-25985000D01*
X150924838Y-26300013D01*
G04 #@! TA.AperFunction,Conductor*
D39*
G36*
X150924838Y-26300013D02*
G01*
X150947000Y-26302500D01*
X153450500Y-26302500D01*
X153450500Y-27245500D01*
X150405777Y-27245500D01*
X149478470Y-26627295D01*
X149461172Y-26618072D01*
X149442406Y-26612401D01*
X149423000Y-26610500D01*
X148951500Y-26610500D01*
X148951500Y-25985000D01*
X149538781Y-25985000D01*
X150924838Y-26300013D01*
G37*
G04 #@! TD.AperFunction*
G04 #@! TD*
M02*
