G04 #@! TF.GenerationSoftware,KiCad,Pcbnew,5.1.8+dfsg1-1~bpo10+1*
G04 #@! TF.CreationDate,2020-11-24T20:11:20+01:00*
G04 #@! TF.ProjectId,armpofo_cpu,61726d70-6f66-46f5-9f63-70752e6b6963,rev?*
G04 #@! TF.SameCoordinates,PX3938700PY42c1d80*
G04 #@! TF.FileFunction,Soldermask,Bot*
G04 #@! TF.FilePolarity,Negative*
%FSLAX46Y46*%
G04 Gerber Fmt 4.6, Leading zero omitted, Abs format (unit mm)*
G04 Created by KiCad (PCBNEW 5.1.8+dfsg1-1~bpo10+1) date 2020-11-24 20:11:20*
%MOMM*%
%LPD*%
G01*
G04 APERTURE LIST*
%ADD10R,2.200000X1.200000*%
%ADD11R,1.400000X1.600000*%
%ADD12R,1.400000X1.200000*%
%ADD13R,1.600000X0.700000*%
%ADD14C,3.000000*%
%ADD15C,3.800000*%
%ADD16R,1.900000X1.500000*%
%ADD17C,1.450000*%
%ADD18R,1.350000X0.400000*%
%ADD19O,1.900000X1.200000*%
%ADD20R,1.900000X1.200000*%
%ADD21R,1.700000X1.700000*%
%ADD22O,1.700000X1.700000*%
%ADD23C,1.000000*%
%ADD24R,3.000000X1.524000*%
%ADD25R,1.000000X1.000000*%
%ADD26O,1.000000X1.000000*%
%ADD27R,0.610000X2.000000*%
%ADD28R,2.680000X3.600000*%
G04 APERTURE END LIST*
D10*
G04 #@! TO.C,J8*
X188100000Y-42650000D03*
X188100000Y-27150000D03*
D11*
X178500000Y-41750000D03*
D12*
X178500000Y-27150000D03*
D13*
X178000000Y-28300000D03*
X178000000Y-30500000D03*
X178000000Y-29400000D03*
X178000000Y-31600000D03*
X178000000Y-32700000D03*
X178000000Y-33800000D03*
X178000000Y-37100000D03*
X178000000Y-36000000D03*
X178000000Y-34900000D03*
G04 #@! TD*
D14*
G04 #@! TO.C,H4*
X92100000Y-16100000D03*
G04 #@! TD*
D15*
G04 #@! TO.C,H3*
X90100000Y-56700000D03*
G04 #@! TD*
G04 #@! TO.C,H2*
X16100000Y-70000000D03*
G04 #@! TD*
G04 #@! TO.C,H1*
X44200000Y-3300000D03*
G04 #@! TD*
G04 #@! TO.C,D3*
G36*
G01*
X182064990Y-47297403D02*
X181702597Y-46935010D01*
G75*
G02*
X181702597Y-46625650I154680J154680D01*
G01*
X182011956Y-46316291D01*
G75*
G02*
X182321316Y-46316291I154680J-154680D01*
G01*
X182683709Y-46678684D01*
G75*
G02*
X182683709Y-46988044I-154680J-154680D01*
G01*
X182374350Y-47297403D01*
G75*
G02*
X182064990Y-47297403I-154680J154680D01*
G01*
G37*
G36*
G01*
X183178684Y-46183709D02*
X182816291Y-45821316D01*
G75*
G02*
X182816291Y-45511956I154680J154680D01*
G01*
X183125650Y-45202597D01*
G75*
G02*
X183435010Y-45202597I154680J-154680D01*
G01*
X183797403Y-45564990D01*
G75*
G02*
X183797403Y-45874350I-154680J-154680D01*
G01*
X183488044Y-46183709D01*
G75*
G02*
X183178684Y-46183709I-154680J154680D01*
G01*
G37*
G04 #@! TD*
D16*
G04 #@! TO.C,J1*
X191037500Y-22100000D03*
D17*
X188337500Y-18600000D03*
D18*
X188337500Y-20450000D03*
X188337500Y-19800000D03*
X188337500Y-22400000D03*
X188337500Y-21750000D03*
X188337500Y-21100000D03*
D17*
X188337500Y-23600000D03*
D16*
X191037500Y-20100000D03*
D19*
X191037500Y-17600000D03*
X191037500Y-24600000D03*
D20*
X191037500Y-24000000D03*
X191037500Y-18200000D03*
G04 #@! TD*
D21*
G04 #@! TO.C,J2*
X104968000Y-19000000D03*
G04 #@! TD*
G04 #@! TO.C,J3*
X15700000Y-2500000D03*
G04 #@! TD*
G04 #@! TO.C,J7*
X172000000Y-51300000D03*
D22*
X172000000Y-53840000D03*
X172000000Y-56380000D03*
X172000000Y-58920000D03*
X172000000Y-61460000D03*
X172000000Y-64000000D03*
X172000000Y-66540000D03*
X172000000Y-69080000D03*
G04 #@! TD*
D23*
G04 #@! TO.C,Y2*
X76896000Y-46060000D03*
X76896000Y-44160000D03*
G04 #@! TD*
D24*
G04 #@! TO.C,J6*
X9900000Y-13100000D03*
X9900000Y-15640000D03*
X9900000Y-18180000D03*
X9900000Y-20720000D03*
X9900000Y-23260000D03*
X9900000Y-25800000D03*
X9900000Y-28340000D03*
X9900000Y-30880000D03*
X9900000Y-33420000D03*
X9900000Y-35960000D03*
X9900000Y-38500000D03*
X9900000Y-41040000D03*
X9900000Y-43580000D03*
X9900000Y-46120000D03*
X9900000Y-48660000D03*
X9900000Y-51200000D03*
G04 #@! TD*
D21*
G04 #@! TO.C,J9*
X20700000Y-2500000D03*
G04 #@! TD*
D25*
G04 #@! TO.C,J10*
X65400000Y-58500000D03*
D26*
X64130000Y-58500000D03*
X62860000Y-58500000D03*
X61590000Y-58500000D03*
X60320000Y-58500000D03*
X59050000Y-58500000D03*
X57780000Y-58500000D03*
X56510000Y-58500000D03*
X55240000Y-58500000D03*
X53970000Y-58500000D03*
X52700000Y-58500000D03*
X51430000Y-58500000D03*
X50160000Y-58500000D03*
X48890000Y-58500000D03*
X47620000Y-58500000D03*
X46350000Y-58500000D03*
G04 #@! TD*
D27*
G04 #@! TO.C,J11*
X78100000Y-10900000D03*
X79100000Y-10900000D03*
X80100000Y-10900000D03*
X81100000Y-10900000D03*
X82100000Y-10900000D03*
X83100000Y-10900000D03*
X84100000Y-10900000D03*
X85100000Y-10900000D03*
X86100000Y-10900000D03*
X87100000Y-10900000D03*
X88100000Y-10900000D03*
X89100000Y-10900000D03*
X90100000Y-10900000D03*
X91100000Y-10900000D03*
X92100000Y-10900000D03*
X93100000Y-10900000D03*
X94100000Y-10900000D03*
X95100000Y-10900000D03*
X96100000Y-10900000D03*
X97100000Y-10900000D03*
D28*
X75110000Y-8100000D03*
X100090000Y-8100000D03*
G04 #@! TD*
M02*
