M48
; DRILL file {KiCad 5.1.8+dfsg1-1~bpo10+1} date Tue Nov 24 20:11:36 2020
; FORMAT={-:-/ absolute / metric / decimal}
; #@! TF.CreationDate,2020-11-24T20:11:36+01:00
; #@! TF.GenerationSoftware,Kicad,Pcbnew,5.1.8+dfsg1-1~bpo10+1
; #@! TF.FileFunction,Plated,1,2,PTH
FMAT,2
METRIC
T1C0.300
T2C0.500
T3C0.600
T4C0.650
T5C0.850
T6C1.000
T7C1.800
T8C2.200
%
G90
G05
T1
X8.961Y-13.121
X8.961Y-15.661
X8.961Y-18.201
X8.961Y-51.221
X9.024Y-48.681
X9.9Y-15.64
X9.913Y-13.121
X9.913Y-18.201
X9.913Y-48.681
X9.913Y-51.221
X10.803Y-48.681
X10.803Y-51.221
X10.866Y-13.121
X10.866Y-15.661
X10.866Y-18.201
X11.743Y-29.754
X11.755Y-34.846
X11.779Y-32.332
X11.792Y-24.6
X11.8Y-22.1
X11.8Y-27.1
X11.8Y-42.4
X11.845Y-37.355
X11.9Y-19.5
X11.9Y-39.8
X11.9Y-44.9
X12.0Y-48.7
X12.075Y-13.125
X12.098Y-18.201
X12.1Y-15.7
X12.5Y-50.5
X15.6Y-42.1
X15.9Y-28.2
X16.5Y-33.6
X16.7Y-46.4
X16.9Y-30.9
X17.3Y-44.8
X17.5Y-45.9
X17.7Y-23.2
X18.0Y-20.8
X18.0Y-33.3
X18.5Y-27.8
X19.1Y-30.6
X19.4Y-20.0
X20.1Y-31.4
X20.8Y-22.5
X20.8Y-29.1
X23.7Y-32.3
X23.8Y-40.7
X23.999Y-27.599
X24.6Y-39.7
X32.646Y-23.409
X35.6Y-21.5
X36.3Y-37.2
X36.4Y-17.6
X36.5Y-25.3
X37.1Y-42.9
X39.17Y-16.87
X41.3Y-55.7
X41.5Y-25.3
X42.489Y-16.741
X42.5Y-25.1
X42.7Y-37.0
X42.8Y-38.4
X44.958Y-45.006
X45.718Y-45.707
X46.1Y-54.6
X46.489Y-48.173
X46.5Y-32.4
X46.6Y-53.8
X47.3Y-50.1
X47.6Y-32.4
X47.7Y-53.2
X48.077Y-39.029
X48.5Y-32.3
X48.7Y-20.3
X48.7Y-21.2
X48.966Y-27.79
X49.6Y-32.2
X49.869Y-50.9
X50.6Y-49.8
X50.6Y-51.7
X50.807Y-27.409
X51.221Y-34.173
X51.3Y-35.1
X51.379Y-38.395
X51.887Y-26.012
X52.1Y-33.9
X52.141Y-22.139
X52.4Y-52.2
X52.516Y-21.053
X52.585Y-25.567
X52.6Y-22.802
X52.6Y-23.703
X52.6Y-24.669
X53.034Y-51.666
X53.1Y-39.6
X53.2Y-30.1
X53.3Y-17.8
X53.5Y-33.6
X53.6Y-51.1
X53.888Y-49.785
X54.071Y-16.823
X54.4Y-50.4
X54.43Y-16.108
X54.94Y-15.492
X55.208Y-50.2
X55.216Y-14.741
X55.846Y-14.248
X56.395Y-13.502
X56.776Y-12.677
X58.2Y-16.5
X58.265Y-14.446
X58.3Y-12.9
X58.427Y-22.075
X58.467Y-15.646
X58.7Y-53.5
X58.839Y-16.982
X58.9Y-13.8
X58.9Y-55.0
X59.104Y-15.154
X59.4Y-54.2
X60.1Y-43.4
X60.1Y-26.38
X60.5Y-53.4
X60.523Y-22.739
X60.65Y-25.631
X60.9Y-42.3
X60.9Y-43.2
X61.0Y-41.5
X61.094Y-23.409
X61.1Y-45.1
X61.221Y-24.869
X61.415Y-44.365
X61.539Y-36.164
X61.8Y-41.1
X61.856Y-24.171
X61.9Y-39.3
X62.999Y-36.236
X63.444Y-38.966
X63.508Y-28.044
X63.512Y-51.535
X63.698Y-37.188
X63.817Y-41.275
X65.031Y-28.044
X65.031Y-51.475
X65.1Y-20.5
X65.1Y-21.7
X65.54Y-8.994
X65.984Y-32.933
X66.682Y-33.886
X66.682Y-34.838
X66.682Y-38.267
X69.068Y-40.644
X69.278Y-43.942
X69.598Y-56.542
X69.6Y-49.675
X70.111Y-31.854
X70.255Y-56.085
X70.327Y-57.308
X70.368Y-48.278
X70.4Y-50.275
X70.437Y-49.075
X70.5Y-52.7
X70.5Y-51.475
X70.565Y-30.765
X71.056Y-41.148
X71.056Y-43.18
X71.094Y-50.9
X71.1Y-52.1
X71.1Y-55.8
X71.12Y-35.814
X71.2Y-57.8
X72.8Y-23.8
X73.621Y-45.188
X74.0Y-23.8
X74.0Y-27.5
X74.6Y-59.8
X74.782Y-40.851
X75.3Y-27.5
X77.0Y-58.3
X78.1Y-8.5
X78.171Y-47.729
X78.569Y-39.351
X79.1Y-8.5
X79.171Y-47.729
X80.1Y-8.5
X80.1Y-50.9
X80.2Y-52.9
X80.2Y-63.4
X80.7Y-65.9
X81.074Y-8.526
X81.1Y-50.4
X81.5Y-68.3
X81.788Y-39.179
X82.074Y-8.526
X83.074Y-8.526
X84.074Y-8.526
X84.653Y-30.076
X84.653Y-33.124
X84.653Y-36.172
X85.074Y-8.526
X86.074Y-8.526
X86.2Y-19.4
X86.2Y-15.8
X87.074Y-8.526
X88.074Y-8.526
X88.526Y-39.157
X89.074Y-8.526
X90.0Y-12.7
X90.074Y-8.526
X91.074Y-8.526
X91.8Y-49.6
X92.074Y-8.526
X92.1Y-48.1
X92.7Y-48.9
X92.75Y-52.5
X93.074Y-8.526
X93.6Y-50.7
X93.606Y-30.012
X93.67Y-25.55
X94.074Y-8.526
X94.3Y-52.9
X94.6Y-50.8
X95.8Y-12.8
X97.4Y-52.4
X98.0Y-3.3
X107.0Y-24.366
X108.0Y-38.4
X108.1Y-53.4
X112.85Y-26.15
X112.9Y-29.9
X113.799Y-21.758
X113.9Y-30.2
X114.0Y-26.3
X116.512Y-21.032
X117.302Y-23.925
X118.319Y-23.925
X119.3Y-31.9
X123.3Y-26.5
X129.293Y-33.779
X129.368Y-36.816
X130.5Y-29.906
X131.25Y-31.823
X141.031Y-24.815
X144.46Y-24.815
X146.267Y-25.04
X149.442Y-25.04
X150.566Y-24.488
X154.3Y-39.3
X155.646Y-22.392
X161.831Y-26.114
X162.307Y-26.59
X165.2Y-51.3
X167.8Y-45.3
X168.0Y-56.4
X170.9Y-29.0
X170.9Y-30.5
X170.9Y-32.1
X170.9Y-34.1
X170.9Y-35.8
X170.9Y-37.4
X175.4Y-31.7
X176.6Y-29.4
X176.6Y-30.6
X176.6Y-32.7
X176.6Y-33.8
X176.6Y-36.0
X176.6Y-37.1
X176.6Y-34.9
X181.5Y-47.4
X182.4Y-44.7
X186.599Y-19.797
X186.6Y-20.8
X186.7Y-21.9
X186.8Y-23.1
T2
X76.896Y-44.16
X76.896Y-46.06
T4
X46.35Y-58.5
X47.62Y-58.5
X48.89Y-58.5
X50.16Y-58.5
X51.43Y-58.5
X52.7Y-58.5
X53.97Y-58.5
X55.24Y-58.5
X56.51Y-58.5
X57.78Y-58.5
X59.05Y-58.5
X60.32Y-58.5
X61.59Y-58.5
X62.86Y-58.5
X64.13Y-58.5
X65.4Y-58.5
T5
X188.338Y-18.6
X188.338Y-23.6
T6
X172.0Y-51.3
X172.0Y-53.84
X172.0Y-56.38
X172.0Y-58.92
X172.0Y-61.46
X172.0Y-64.0
X172.0Y-66.54
X172.0Y-69.08
X20.7Y-2.5
X15.7Y-2.5
X104.968Y-19.0
T7
X92.1Y-16.1
T8
X44.2Y-3.3
X16.1Y-70.0
X90.1Y-56.7
T3
G00X190.688Y-17.6
M15
G01X191.387Y-17.6
M16
G05
G00X191.387Y-24.6
M15
G01X190.688Y-24.6
M16
G05
T0
M30
