G04 #@! TF.GenerationSoftware,KiCad,Pcbnew,5.1.8+dfsg1-1~bpo10+1*
G04 #@! TF.CreationDate,2020-11-24T20:00:48+01:00*
G04 #@! TF.ProjectId,armpofo_keyboard,61726d70-6f66-46f5-9f6b-6579626f6172,rev?*
G04 #@! TF.SameCoordinates,Original*
G04 #@! TF.FileFunction,Legend,Top*
G04 #@! TF.FilePolarity,Positive*
%FSLAX46Y46*%
G04 Gerber Fmt 4.6, Leading zero omitted, Abs format (unit mm)*
G04 Created by KiCad (PCBNEW 5.1.8+dfsg1-1~bpo10+1) date 2020-11-24 20:00:48*
%MOMM*%
%LPD*%
G01*
G04 APERTURE LIST*
%ADD10C,0.150000*%
%ADD11C,0.120000*%
G04 APERTURE END LIST*
D10*
X46533333Y-60657143D02*
X46485714Y-60704762D01*
X46342857Y-60752381D01*
X46247619Y-60752381D01*
X46104761Y-60704762D01*
X46009523Y-60609524D01*
X45961904Y-60514286D01*
X45914285Y-60323810D01*
X45914285Y-60180953D01*
X45961904Y-59990477D01*
X46009523Y-59895239D01*
X46104761Y-59800000D01*
X46247619Y-59752381D01*
X46342857Y-59752381D01*
X46485714Y-59800000D01*
X46533333Y-59847620D01*
X47104761Y-60180953D02*
X47009523Y-60133334D01*
X46961904Y-60085715D01*
X46914285Y-59990477D01*
X46914285Y-59942858D01*
X46961904Y-59847620D01*
X47009523Y-59800000D01*
X47104761Y-59752381D01*
X47295238Y-59752381D01*
X47390476Y-59800000D01*
X47438095Y-59847620D01*
X47485714Y-59942858D01*
X47485714Y-59990477D01*
X47438095Y-60085715D01*
X47390476Y-60133334D01*
X47295238Y-60180953D01*
X47104761Y-60180953D01*
X47009523Y-60228572D01*
X46961904Y-60276191D01*
X46914285Y-60371429D01*
X46914285Y-60561905D01*
X46961904Y-60657143D01*
X47009523Y-60704762D01*
X47104761Y-60752381D01*
X47295238Y-60752381D01*
X47390476Y-60704762D01*
X47438095Y-60657143D01*
X47485714Y-60561905D01*
X47485714Y-60371429D01*
X47438095Y-60276191D01*
X47390476Y-60228572D01*
X47295238Y-60180953D01*
X64933333Y-60652381D02*
X64600000Y-60176191D01*
X64361904Y-60652381D02*
X64361904Y-59652381D01*
X64742857Y-59652381D01*
X64838095Y-59700000D01*
X64885714Y-59747620D01*
X64933333Y-59842858D01*
X64933333Y-59985715D01*
X64885714Y-60080953D01*
X64838095Y-60128572D01*
X64742857Y-60176191D01*
X64361904Y-60176191D01*
X65885714Y-60652381D02*
X65314285Y-60652381D01*
X65600000Y-60652381D02*
X65600000Y-59652381D01*
X65504761Y-59795239D01*
X65409523Y-59890477D01*
X65314285Y-59938096D01*
X77900000Y-70966667D02*
X78376190Y-70966667D01*
X77804761Y-71252381D02*
X78138095Y-70252381D01*
X78471428Y-71252381D01*
X79376190Y-71252381D02*
X79042857Y-70776191D01*
X78804761Y-71252381D02*
X78804761Y-70252381D01*
X79185714Y-70252381D01*
X79280952Y-70300000D01*
X79328571Y-70347620D01*
X79376190Y-70442858D01*
X79376190Y-70585715D01*
X79328571Y-70680953D01*
X79280952Y-70728572D01*
X79185714Y-70776191D01*
X78804761Y-70776191D01*
X79804761Y-71252381D02*
X79804761Y-70252381D01*
X80138095Y-70966667D01*
X80471428Y-70252381D01*
X80471428Y-71252381D01*
X80947619Y-71252381D02*
X80947619Y-70252381D01*
X81328571Y-70252381D01*
X81423809Y-70300000D01*
X81471428Y-70347620D01*
X81519047Y-70442858D01*
X81519047Y-70585715D01*
X81471428Y-70680953D01*
X81423809Y-70728572D01*
X81328571Y-70776191D01*
X80947619Y-70776191D01*
X82138095Y-70252381D02*
X82328571Y-70252381D01*
X82423809Y-70300000D01*
X82519047Y-70395239D01*
X82566666Y-70585715D01*
X82566666Y-70919048D01*
X82519047Y-71109524D01*
X82423809Y-71204762D01*
X82328571Y-71252381D01*
X82138095Y-71252381D01*
X82042857Y-71204762D01*
X81947619Y-71109524D01*
X81900000Y-70919048D01*
X81900000Y-70585715D01*
X81947619Y-70395239D01*
X82042857Y-70300000D01*
X82138095Y-70252381D01*
X83328571Y-70728572D02*
X82995238Y-70728572D01*
X82995238Y-71252381D02*
X82995238Y-70252381D01*
X83471428Y-70252381D01*
X84042857Y-70252381D02*
X84233333Y-70252381D01*
X84328571Y-70300000D01*
X84423809Y-70395239D01*
X84471428Y-70585715D01*
X84471428Y-70919048D01*
X84423809Y-71109524D01*
X84328571Y-71204762D01*
X84233333Y-71252381D01*
X84042857Y-71252381D01*
X83947619Y-71204762D01*
X83852380Y-71109524D01*
X83804761Y-70919048D01*
X83804761Y-70585715D01*
X83852380Y-70395239D01*
X83947619Y-70300000D01*
X84042857Y-70252381D01*
X85661904Y-71252381D02*
X85661904Y-70252381D01*
X86233333Y-71252381D02*
X85804761Y-70680953D01*
X86233333Y-70252381D02*
X85661904Y-70823810D01*
X86661904Y-70728572D02*
X86995238Y-70728572D01*
X87138095Y-71252381D02*
X86661904Y-71252381D01*
X86661904Y-70252381D01*
X87138095Y-70252381D01*
X87757142Y-70776191D02*
X87757142Y-71252381D01*
X87423809Y-70252381D02*
X87757142Y-70776191D01*
X88090476Y-70252381D01*
X88757142Y-70728572D02*
X88900000Y-70776191D01*
X88947619Y-70823810D01*
X88995238Y-70919048D01*
X88995238Y-71061905D01*
X88947619Y-71157143D01*
X88900000Y-71204762D01*
X88804761Y-71252381D01*
X88423809Y-71252381D01*
X88423809Y-70252381D01*
X88757142Y-70252381D01*
X88852380Y-70300000D01*
X88900000Y-70347620D01*
X88947619Y-70442858D01*
X88947619Y-70538096D01*
X88900000Y-70633334D01*
X88852380Y-70680953D01*
X88757142Y-70728572D01*
X88423809Y-70728572D01*
X89614285Y-70252381D02*
X89804761Y-70252381D01*
X89900000Y-70300000D01*
X89995238Y-70395239D01*
X90042857Y-70585715D01*
X90042857Y-70919048D01*
X89995238Y-71109524D01*
X89900000Y-71204762D01*
X89804761Y-71252381D01*
X89614285Y-71252381D01*
X89519047Y-71204762D01*
X89423809Y-71109524D01*
X89376190Y-70919048D01*
X89376190Y-70585715D01*
X89423809Y-70395239D01*
X89519047Y-70300000D01*
X89614285Y-70252381D01*
X90423809Y-70966667D02*
X90900000Y-70966667D01*
X90328571Y-71252381D02*
X90661904Y-70252381D01*
X90995238Y-71252381D01*
X91900000Y-71252381D02*
X91566666Y-70776191D01*
X91328571Y-71252381D02*
X91328571Y-70252381D01*
X91709523Y-70252381D01*
X91804761Y-70300000D01*
X91852380Y-70347620D01*
X91900000Y-70442858D01*
X91900000Y-70585715D01*
X91852380Y-70680953D01*
X91804761Y-70728572D01*
X91709523Y-70776191D01*
X91328571Y-70776191D01*
X92328571Y-71252381D02*
X92328571Y-70252381D01*
X92566666Y-70252381D01*
X92709523Y-70300000D01*
X92804761Y-70395239D01*
X92852380Y-70490477D01*
X92900000Y-70680953D01*
X92900000Y-70823810D01*
X92852380Y-71014286D01*
X92804761Y-71109524D01*
X92709523Y-71204762D01*
X92566666Y-71252381D01*
X92328571Y-71252381D01*
D11*
G04 #@! TO.C,SW36*
X103206596Y-37100000D02*
G75*
G03*
X103206596Y-37100000I-2606596J0D01*
G01*
G04 #@! TO.C,SW1*
X14706596Y-10100000D02*
G75*
G03*
X14706596Y-10100000I-2606596J0D01*
G01*
G04 #@! TO.C,SW2*
X28806596Y-10100000D02*
G75*
G03*
X28806596Y-10100000I-2606596J0D01*
G01*
G04 #@! TO.C,SW3*
X40806596Y-10100000D02*
G75*
G03*
X40806596Y-10100000I-2606596J0D01*
G01*
G04 #@! TO.C,SW4*
X52806596Y-10100000D02*
G75*
G03*
X52806596Y-10100000I-2606596J0D01*
G01*
G04 #@! TO.C,SW5*
X64706596Y-10100000D02*
G75*
G03*
X64706596Y-10100000I-2606596J0D01*
G01*
G04 #@! TO.C,SW6*
X76806596Y-10100000D02*
G75*
G03*
X76806596Y-10100000I-2606596J0D01*
G01*
G04 #@! TO.C,SW7*
X88706596Y-10100000D02*
G75*
G03*
X88706596Y-10100000I-2606596J0D01*
G01*
G04 #@! TO.C,SW8*
X100706596Y-10100000D02*
G75*
G03*
X100706596Y-10100000I-2606596J0D01*
G01*
G04 #@! TO.C,SW9*
X112706596Y-10100000D02*
G75*
G03*
X112706596Y-10100000I-2606596J0D01*
G01*
G04 #@! TO.C,SW10*
X124706596Y-10100000D02*
G75*
G03*
X124706596Y-10100000I-2606596J0D01*
G01*
G04 #@! TO.C,SW11*
X136706596Y-10100000D02*
G75*
G03*
X136706596Y-10100000I-2606596J0D01*
G01*
G04 #@! TO.C,SW12*
X148706596Y-10100000D02*
G75*
G03*
X148706596Y-10100000I-2606596J0D01*
G01*
G04 #@! TO.C,SW13*
X160606596Y-10100000D02*
G75*
G03*
X160606596Y-10100000I-2606596J0D01*
G01*
G04 #@! TO.C,SW14*
X172706596Y-10100000D02*
G75*
G03*
X172706596Y-10100000I-2606596J0D01*
G01*
G04 #@! TO.C,SW15*
X24806596Y-23500000D02*
G75*
G03*
X24806596Y-23500000I-2606596J0D01*
G01*
G04 #@! TO.C,SW16*
X36706596Y-23500000D02*
G75*
G03*
X36706596Y-23500000I-2606596J0D01*
G01*
G04 #@! TO.C,SW17*
X48806596Y-23500000D02*
G75*
G03*
X48806596Y-23500000I-2606596J0D01*
G01*
G04 #@! TO.C,SW18*
X60706596Y-23500000D02*
G75*
G03*
X60706596Y-23500000I-2606596J0D01*
G01*
G04 #@! TO.C,SW19*
X72806596Y-23500000D02*
G75*
G03*
X72806596Y-23500000I-2606596J0D01*
G01*
G04 #@! TO.C,SW20*
X84706596Y-23500000D02*
G75*
G03*
X84706596Y-23500000I-2606596J0D01*
G01*
G04 #@! TO.C,SW21*
X96706596Y-23500000D02*
G75*
G03*
X96706596Y-23500000I-2606596J0D01*
G01*
G04 #@! TO.C,SW22*
X108706596Y-23500000D02*
G75*
G03*
X108706596Y-23500000I-2606596J0D01*
G01*
G04 #@! TO.C,SW23*
X120706596Y-23500000D02*
G75*
G03*
X120706596Y-23500000I-2606596J0D01*
G01*
G04 #@! TO.C,SW24*
X132706596Y-23500000D02*
G75*
G03*
X132706596Y-23500000I-2606596J0D01*
G01*
G04 #@! TO.C,SW25*
X144606596Y-23500000D02*
G75*
G03*
X144606596Y-23500000I-2606596J0D01*
G01*
G04 #@! TO.C,SW26*
X156606596Y-23500000D02*
G75*
G03*
X156606596Y-23500000I-2606596J0D01*
G01*
G04 #@! TO.C,SW27*
X170606596Y-23500000D02*
G75*
G03*
X170606596Y-23500000I-2606596J0D01*
G01*
G04 #@! TO.C,SW28*
X12806596Y-30200000D02*
G75*
G03*
X12806596Y-30200000I-2606596J0D01*
G01*
G04 #@! TO.C,SW29*
X168006596Y-37100000D02*
G75*
G03*
X168006596Y-37100000I-2606596J0D01*
G01*
G04 #@! TO.C,SW30*
X31306596Y-37100000D02*
G75*
G03*
X31306596Y-37100000I-2606596J0D01*
G01*
G04 #@! TO.C,SW31*
X43306596Y-37100000D02*
G75*
G03*
X43306596Y-37100000I-2606596J0D01*
G01*
G04 #@! TO.C,SW32*
X55306596Y-37100000D02*
G75*
G03*
X55306596Y-37100000I-2606596J0D01*
G01*
G04 #@! TO.C,SW33*
X67206596Y-37100000D02*
G75*
G03*
X67206596Y-37100000I-2606596J0D01*
G01*
G04 #@! TO.C,SW34*
X79206596Y-37100000D02*
G75*
G03*
X79206596Y-37100000I-2606596J0D01*
G01*
G04 #@! TO.C,SW35*
X91206596Y-37100000D02*
G75*
G03*
X91206596Y-37100000I-2606596J0D01*
G01*
G04 #@! TO.C,SW37*
X115206596Y-37100000D02*
G75*
G03*
X115206596Y-37100000I-2606596J0D01*
G01*
G04 #@! TO.C,SW38*
X127206596Y-37100000D02*
G75*
G03*
X127206596Y-37100000I-2606596J0D01*
G01*
G04 #@! TO.C,SW39*
X139206596Y-37100000D02*
G75*
G03*
X139206596Y-37100000I-2606596J0D01*
G01*
G04 #@! TO.C,SW40*
X151206596Y-37100000D02*
G75*
G03*
X151206596Y-37100000I-2606596J0D01*
G01*
G04 #@! TO.C,SW41*
X13806596Y-50500000D02*
G75*
G03*
X13806596Y-50500000I-2606596J0D01*
G01*
G04 #@! TO.C,SW42*
X26806596Y-50500000D02*
G75*
G03*
X26806596Y-50500000I-2606596J0D01*
G01*
G04 #@! TO.C,SW43*
X38806596Y-50500000D02*
G75*
G03*
X38806596Y-50500000I-2606596J0D01*
G01*
G04 #@! TO.C,SW44*
X50806596Y-50500000D02*
G75*
G03*
X50806596Y-50500000I-2606596J0D01*
G01*
G04 #@! TO.C,SW45*
X62706596Y-50500000D02*
G75*
G03*
X62706596Y-50500000I-2606596J0D01*
G01*
G04 #@! TO.C,SW46*
X74806596Y-50500000D02*
G75*
G03*
X74806596Y-50500000I-2606596J0D01*
G01*
G04 #@! TO.C,SW47*
X86706596Y-50500000D02*
G75*
G03*
X86706596Y-50500000I-2606596J0D01*
G01*
G04 #@! TO.C,SW48*
X98706596Y-50500000D02*
G75*
G03*
X98706596Y-50500000I-2606596J0D01*
G01*
G04 #@! TO.C,SW49*
X110706596Y-50500000D02*
G75*
G03*
X110706596Y-50500000I-2606596J0D01*
G01*
G04 #@! TO.C,SW50*
X122706596Y-50500000D02*
G75*
G03*
X122706596Y-50500000I-2606596J0D01*
G01*
G04 #@! TO.C,SW51*
X134806596Y-50500000D02*
G75*
G03*
X134806596Y-50500000I-2606596J0D01*
G01*
G04 #@! TO.C,SW52*
X146706596Y-50500000D02*
G75*
G03*
X146706596Y-50500000I-2606596J0D01*
G01*
G04 #@! TO.C,SW53*
X158606596Y-50500000D02*
G75*
G03*
X158606596Y-50500000I-2606596J0D01*
G01*
G04 #@! TO.C,SW54*
X171706596Y-50500000D02*
G75*
G03*
X171706596Y-50500000I-2606596J0D01*
G01*
G04 #@! TO.C,SW55*
X12806596Y-64100000D02*
G75*
G03*
X12806596Y-64100000I-2606596J0D01*
G01*
G04 #@! TO.C,SW56*
X24806596Y-64100000D02*
G75*
G03*
X24806596Y-64100000I-2606596J0D01*
G01*
G04 #@! TO.C,SW57*
X36806596Y-64100000D02*
G75*
G03*
X36806596Y-64100000I-2606596J0D01*
G01*
G04 #@! TO.C,SW58*
X48706596Y-64100000D02*
G75*
G03*
X48706596Y-64100000I-2606596J0D01*
G01*
G04 #@! TO.C,SW59*
X68706596Y-64100000D02*
G75*
G03*
X68706596Y-64100000I-2606596J0D01*
G01*
G04 #@! TO.C,SW60*
X116706596Y-64100000D02*
G75*
G03*
X116706596Y-64100000I-2606596J0D01*
G01*
G04 #@! TO.C,SW61*
X136706596Y-64100000D02*
G75*
G03*
X136706596Y-64100000I-2606596J0D01*
G01*
G04 #@! TO.C,SW62*
X148706596Y-64100000D02*
G75*
G03*
X148706596Y-64100000I-2606596J0D01*
G01*
G04 #@! TO.C,SW63*
X160706596Y-64100000D02*
G75*
G03*
X160706596Y-64100000I-2606596J0D01*
G01*
G04 #@! TO.C,SW64*
X172706596Y-64100000D02*
G75*
G03*
X172706596Y-64100000I-2606596J0D01*
G01*
G04 #@! TO.C,J1*
X47735000Y-58910000D02*
X46910000Y-58910000D01*
X63865000Y-58910000D02*
X63865000Y-60710000D01*
X64690000Y-58910000D02*
X63865000Y-58910000D01*
X66845000Y-54400000D02*
X66845000Y-54940000D01*
X67870000Y-54400000D02*
X66845000Y-54400000D01*
X67870000Y-53290000D02*
X67870000Y-54400000D01*
X43730000Y-53290000D02*
X67870000Y-53290000D01*
X43730000Y-54400000D02*
X43730000Y-53290000D01*
X44755000Y-54400000D02*
X43730000Y-54400000D01*
X44755000Y-54940000D02*
X44755000Y-54400000D01*
G04 #@! TD*
M02*
