G04 #@! TF.GenerationSoftware,KiCad,Pcbnew,5.1.8+dfsg1-1~bpo10+1*
G04 #@! TF.CreationDate,2020-11-24T20:00:48+01:00*
G04 #@! TF.ProjectId,armpofo_keyboard,61726d70-6f66-46f5-9f6b-6579626f6172,rev?*
G04 #@! TF.SameCoordinates,Original*
G04 #@! TF.FileFunction,Soldermask,Top*
G04 #@! TF.FilePolarity,Negative*
%FSLAX46Y46*%
G04 Gerber Fmt 4.6, Leading zero omitted, Abs format (unit mm)*
G04 Created by KiCad (PCBNEW 5.1.8+dfsg1-1~bpo10+1) date 2020-11-24 20:00:48*
%MOMM*%
%LPD*%
G01*
G04 APERTURE LIST*
%ADD10C,1.524000*%
%ADD11C,4.000000*%
%ADD12R,0.610000X2.000000*%
%ADD13R,2.680000X3.600000*%
%ADD14C,3.800000*%
G04 APERTURE END LIST*
D10*
G04 #@! TO.C,SW36*
X104029000Y-37100000D03*
X97171000Y-37100000D03*
G04 #@! TD*
G04 #@! TO.C,SW1*
X15529000Y-10100000D03*
X8671000Y-10100000D03*
G04 #@! TD*
G04 #@! TO.C,SW2*
X29629000Y-10100000D03*
X22771000Y-10100000D03*
G04 #@! TD*
G04 #@! TO.C,SW3*
X41629000Y-10100000D03*
X34771000Y-10100000D03*
G04 #@! TD*
G04 #@! TO.C,SW4*
X53629000Y-10100000D03*
X46771000Y-10100000D03*
G04 #@! TD*
G04 #@! TO.C,SW5*
X65529000Y-10100000D03*
X58671000Y-10100000D03*
G04 #@! TD*
G04 #@! TO.C,SW6*
X77629000Y-10100000D03*
X70771000Y-10100000D03*
G04 #@! TD*
G04 #@! TO.C,SW7*
X89529000Y-10100000D03*
X82671000Y-10100000D03*
G04 #@! TD*
G04 #@! TO.C,SW8*
X101529000Y-10100000D03*
X94671000Y-10100000D03*
G04 #@! TD*
G04 #@! TO.C,SW9*
X113529000Y-10100000D03*
X106671000Y-10100000D03*
G04 #@! TD*
G04 #@! TO.C,SW10*
X125529000Y-10100000D03*
X118671000Y-10100000D03*
G04 #@! TD*
G04 #@! TO.C,SW11*
X137529000Y-10100000D03*
X130671000Y-10100000D03*
G04 #@! TD*
G04 #@! TO.C,SW12*
X149529000Y-10100000D03*
X142671000Y-10100000D03*
G04 #@! TD*
G04 #@! TO.C,SW13*
X161429000Y-10100000D03*
X154571000Y-10100000D03*
G04 #@! TD*
G04 #@! TO.C,SW14*
X173529000Y-10100000D03*
X166671000Y-10100000D03*
G04 #@! TD*
G04 #@! TO.C,SW15*
X25629000Y-23500000D03*
X18771000Y-23500000D03*
G04 #@! TD*
G04 #@! TO.C,SW16*
X37529000Y-23500000D03*
X30671000Y-23500000D03*
G04 #@! TD*
G04 #@! TO.C,SW17*
X49629000Y-23500000D03*
X42771000Y-23500000D03*
G04 #@! TD*
G04 #@! TO.C,SW18*
X61529000Y-23500000D03*
X54671000Y-23500000D03*
G04 #@! TD*
G04 #@! TO.C,SW19*
X73629000Y-23500000D03*
X66771000Y-23500000D03*
G04 #@! TD*
G04 #@! TO.C,SW20*
X85529000Y-23500000D03*
X78671000Y-23500000D03*
G04 #@! TD*
G04 #@! TO.C,SW21*
X97529000Y-23500000D03*
X90671000Y-23500000D03*
G04 #@! TD*
G04 #@! TO.C,SW22*
X109529000Y-23500000D03*
X102671000Y-23500000D03*
G04 #@! TD*
G04 #@! TO.C,SW23*
X121529000Y-23500000D03*
X114671000Y-23500000D03*
G04 #@! TD*
G04 #@! TO.C,SW24*
X133529000Y-23500000D03*
X126671000Y-23500000D03*
G04 #@! TD*
G04 #@! TO.C,SW25*
X145429000Y-23500000D03*
X138571000Y-23500000D03*
G04 #@! TD*
G04 #@! TO.C,SW26*
X157429000Y-23500000D03*
X150571000Y-23500000D03*
G04 #@! TD*
G04 #@! TO.C,SW27*
X171429000Y-23500000D03*
X164571000Y-23500000D03*
G04 #@! TD*
G04 #@! TO.C,SW28*
X13629000Y-30200000D03*
X6771000Y-30200000D03*
G04 #@! TD*
G04 #@! TO.C,SW29*
X168829000Y-37100000D03*
X161971000Y-37100000D03*
G04 #@! TD*
G04 #@! TO.C,SW30*
X32129000Y-37100000D03*
X25271000Y-37100000D03*
G04 #@! TD*
G04 #@! TO.C,SW31*
X44129000Y-37100000D03*
X37271000Y-37100000D03*
G04 #@! TD*
G04 #@! TO.C,SW32*
X56129000Y-37100000D03*
X49271000Y-37100000D03*
G04 #@! TD*
G04 #@! TO.C,SW33*
X68029000Y-37100000D03*
X61171000Y-37100000D03*
G04 #@! TD*
G04 #@! TO.C,SW34*
X80029000Y-37100000D03*
X73171000Y-37100000D03*
G04 #@! TD*
G04 #@! TO.C,SW35*
X92029000Y-37100000D03*
X85171000Y-37100000D03*
G04 #@! TD*
G04 #@! TO.C,SW37*
X116029000Y-37100000D03*
X109171000Y-37100000D03*
G04 #@! TD*
G04 #@! TO.C,SW38*
X128029000Y-37100000D03*
X121171000Y-37100000D03*
G04 #@! TD*
G04 #@! TO.C,SW39*
X140029000Y-37100000D03*
X133171000Y-37100000D03*
G04 #@! TD*
G04 #@! TO.C,SW40*
X152029000Y-37100000D03*
X145171000Y-37100000D03*
G04 #@! TD*
G04 #@! TO.C,SW41*
X14629000Y-50500000D03*
X7771000Y-50500000D03*
G04 #@! TD*
G04 #@! TO.C,SW42*
X27629000Y-50500000D03*
X20771000Y-50500000D03*
G04 #@! TD*
G04 #@! TO.C,SW43*
X39629000Y-50500000D03*
X32771000Y-50500000D03*
G04 #@! TD*
G04 #@! TO.C,SW44*
X51629000Y-50500000D03*
X44771000Y-50500000D03*
G04 #@! TD*
G04 #@! TO.C,SW45*
X63529000Y-50500000D03*
X56671000Y-50500000D03*
G04 #@! TD*
G04 #@! TO.C,SW46*
X75629000Y-50500000D03*
X68771000Y-50500000D03*
G04 #@! TD*
G04 #@! TO.C,SW47*
X87529000Y-50500000D03*
X80671000Y-50500000D03*
G04 #@! TD*
G04 #@! TO.C,SW48*
X99529000Y-50500000D03*
X92671000Y-50500000D03*
G04 #@! TD*
G04 #@! TO.C,SW49*
X111529000Y-50500000D03*
X104671000Y-50500000D03*
G04 #@! TD*
G04 #@! TO.C,SW50*
X123529000Y-50500000D03*
X116671000Y-50500000D03*
G04 #@! TD*
G04 #@! TO.C,SW51*
X135629000Y-50500000D03*
X128771000Y-50500000D03*
G04 #@! TD*
G04 #@! TO.C,SW52*
X147529000Y-50500000D03*
X140671000Y-50500000D03*
G04 #@! TD*
G04 #@! TO.C,SW53*
X159429000Y-50500000D03*
X152571000Y-50500000D03*
G04 #@! TD*
G04 #@! TO.C,SW54*
X172529000Y-50500000D03*
X165671000Y-50500000D03*
G04 #@! TD*
G04 #@! TO.C,SW55*
X13629000Y-64100000D03*
X6771000Y-64100000D03*
G04 #@! TD*
G04 #@! TO.C,SW56*
X25629000Y-64100000D03*
X18771000Y-64100000D03*
G04 #@! TD*
G04 #@! TO.C,SW57*
X37629000Y-64100000D03*
X30771000Y-64100000D03*
G04 #@! TD*
G04 #@! TO.C,SW58*
X49529000Y-64100000D03*
X42671000Y-64100000D03*
G04 #@! TD*
G04 #@! TO.C,SW59*
X69529000Y-64100000D03*
X62671000Y-64100000D03*
G04 #@! TD*
G04 #@! TO.C,SW60*
X117529000Y-64100000D03*
X110671000Y-64100000D03*
G04 #@! TD*
G04 #@! TO.C,SW61*
X137529000Y-64100000D03*
X130671000Y-64100000D03*
G04 #@! TD*
G04 #@! TO.C,SW62*
X149529000Y-64100000D03*
X142671000Y-64100000D03*
G04 #@! TD*
G04 #@! TO.C,SW63*
X161529000Y-64100000D03*
X154671000Y-64100000D03*
G04 #@! TD*
G04 #@! TO.C,SW64*
X173529000Y-64100000D03*
X166671000Y-64100000D03*
G04 #@! TD*
D11*
G04 #@! TO.C,H3*
X4200000Y-16200000D03*
G04 #@! TD*
G04 #@! TO.C,H4*
X92100000Y-16100000D03*
G04 #@! TD*
G04 #@! TO.C,H5*
X140100000Y-16100000D03*
G04 #@! TD*
G04 #@! TO.C,H6*
X112100000Y-29700000D03*
G04 #@! TD*
G04 #@! TO.C,H7*
X90100000Y-56700000D03*
G04 #@! TD*
G04 #@! TO.C,H8*
X114000000Y-56700000D03*
G04 #@! TD*
G04 #@! TO.C,H9*
X162000000Y-56700000D03*
G04 #@! TD*
G04 #@! TO.C,H10*
X16100000Y-70000000D03*
G04 #@! TD*
G04 #@! TO.C,H11*
X128000000Y-70300000D03*
G04 #@! TD*
D12*
G04 #@! TO.C,J1*
X63300000Y-59800000D03*
X62300000Y-59800000D03*
X61300000Y-59800000D03*
X60300000Y-59800000D03*
X59300000Y-59800000D03*
X58300000Y-59800000D03*
X57300000Y-59800000D03*
X56300000Y-59800000D03*
X55300000Y-59800000D03*
X54300000Y-59800000D03*
X53300000Y-59800000D03*
X52300000Y-59800000D03*
X51300000Y-59800000D03*
X50300000Y-59800000D03*
X49300000Y-59800000D03*
X48300000Y-59800000D03*
D13*
X66290000Y-57000000D03*
X45310000Y-57000000D03*
G04 #@! TD*
D14*
G04 #@! TO.C,M1*
X32300000Y-3400000D03*
G04 #@! TD*
G04 #@! TO.C,M2*
X68200000Y-3400000D03*
G04 #@! TD*
G04 #@! TO.C,M3*
X104200000Y-3400000D03*
G04 #@! TD*
G04 #@! TO.C,M4*
X140100000Y-3400000D03*
G04 #@! TD*
G04 #@! TO.C,M5*
X176000000Y-3400000D03*
G04 #@! TD*
G04 #@! TO.C,M6*
X4200000Y-3400000D03*
G04 #@! TD*
G04 #@! TO.C,M7*
X28100000Y-29700000D03*
G04 #@! TD*
G04 #@! TO.C,M8*
X64100000Y-29700000D03*
G04 #@! TD*
G04 #@! TO.C,M9*
X136000000Y-29700000D03*
G04 #@! TD*
G04 #@! TO.C,M10*
X4200000Y-43100000D03*
G04 #@! TD*
G04 #@! TO.C,M11*
X106600000Y-43100000D03*
G04 #@! TD*
G04 #@! TO.C,M12*
X176100000Y-43000000D03*
G04 #@! TD*
G04 #@! TO.C,M13*
X4200000Y-70000000D03*
G04 #@! TD*
G04 #@! TO.C,M14*
X140000000Y-70100000D03*
G04 #@! TD*
G04 #@! TO.C,M15*
X176000000Y-70100000D03*
G04 #@! TD*
G04 #@! TO.C,M16*
X40000000Y-70000000D03*
G04 #@! TD*
G04 #@! TO.C,M17*
X68100000Y-71600000D03*
G04 #@! TD*
G04 #@! TO.C,M18*
X103900000Y-71600000D03*
G04 #@! TD*
M02*
