M48
; DRILL file {KiCad 5.1.8+dfsg1-1~bpo10+1} date Tue Nov 24 20:00:11 2020
; FORMAT={-:-/ absolute / metric / decimal}
; #@! TF.CreationDate,2020-11-24T20:00:11+01:00
; #@! TF.GenerationSoftware,Kicad,Pcbnew,5.1.8+dfsg1-1~bpo10+1
; #@! TF.FileFunction,Plated,1,2,PTH
FMAT,2
METRIC
T1C0.400
T2C0.800
T3C2.200
%
G90
G05
T1
X25.1Y-55.1
X29.4Y-57.7
X39.9Y-45.2
X42.0Y-27.9
X43.0Y-13.5
X46.7Y-43.825
X49.3Y-62.1
X52.1Y-41.4
X53.0Y-47.8
X53.8Y-42.375
X55.2Y-43.1
X55.536Y-44.55
X57.871Y-33.8
X60.7Y-45.925
X61.3Y-57.7
X62.7Y-46.65
X65.2Y-42.375
X68.4Y-44.0
X69.65Y-46.65
X69.8Y-40.9
X72.0Y-31.4
X72.4Y-4.6
X73.2Y-62.6
X75.6Y-45.1
X80.5Y-42.3
X86.7Y-47.4
X90.8Y-32.6
X92.7Y-62.6
X98.3Y-42.5
X102.6Y-46.0
X104.2Y-47.6
X108.8Y-31.6
X112.0Y-45.9
X121.0Y-45.7
X124.3Y-46.4
X126.3Y-43.0
X129.3Y-33.1
X140.1Y-45.0
X142.6Y-43.0
X143.4Y-28.9
X144.4Y-14.7
X151.5Y-44.6
X154.6Y-40.1
X155.6Y-14.4
T2
X32.771Y-50.5
X39.629Y-50.5
X140.671Y-50.5
X147.529Y-50.5
X30.671Y-23.5
X37.529Y-23.5
X165.671Y-50.5
X172.529Y-50.5
X70.771Y-10.1
X77.629Y-10.1
X42.771Y-23.5
X49.629Y-23.5
X85.171Y-37.1
X92.029Y-37.1
X49.271Y-37.1
X56.129Y-37.1
X128.771Y-50.5
X135.629Y-50.5
X94.671Y-10.1
X101.529Y-10.1
X18.771Y-64.1
X25.629Y-64.1
X82.671Y-10.1
X89.529Y-10.1
X73.171Y-37.1
X80.029Y-37.1
X34.771Y-10.1
X41.629Y-10.1
X6.771Y-30.2
X13.629Y-30.2
X20.771Y-50.5
X27.629Y-50.5
X116.671Y-50.5
X123.529Y-50.5
X152.571Y-50.5
X159.429Y-50.5
X133.171Y-37.1
X140.029Y-37.1
X37.271Y-37.1
X44.129Y-37.1
X62.671Y-64.1
X69.529Y-64.1
X106.671Y-10.1
X113.529Y-10.1
X154.671Y-64.1
X161.529Y-64.1
X130.671Y-10.1
X137.529Y-10.1
X164.571Y-23.5
X171.429Y-23.5
X7.771Y-50.5
X14.629Y-50.5
X166.671Y-64.1
X173.529Y-64.1
X68.771Y-50.5
X75.629Y-50.5
X58.671Y-10.1
X65.529Y-10.1
X25.271Y-37.1
X32.129Y-37.1
X138.571Y-23.5
X145.429Y-23.5
X142.671Y-64.1
X149.529Y-64.1
X161.971Y-37.1
X168.829Y-37.1
X92.671Y-50.5
X99.529Y-50.5
X66.771Y-23.5
X73.629Y-23.5
X109.171Y-37.1
X116.029Y-37.1
X54.671Y-23.5
X61.529Y-23.5
X30.771Y-64.1
X37.629Y-64.1
X150.571Y-23.5
X157.429Y-23.5
X166.671Y-10.1
X173.529Y-10.1
X118.671Y-10.1
X125.529Y-10.1
X22.771Y-10.1
X29.629Y-10.1
X110.671Y-64.1
X117.529Y-64.1
X114.671Y-23.5
X121.529Y-23.5
X56.671Y-50.5
X63.529Y-50.5
X130.671Y-64.1
X137.529Y-64.1
X46.771Y-10.1
X53.629Y-10.1
X61.171Y-37.1
X68.029Y-37.1
X102.671Y-23.5
X109.529Y-23.5
X78.671Y-23.5
X85.529Y-23.5
X90.671Y-23.5
X97.529Y-23.5
X44.771Y-50.5
X51.629Y-50.5
X42.671Y-64.1
X49.529Y-64.1
X154.571Y-10.1
X161.429Y-10.1
X126.671Y-23.5
X133.529Y-23.5
X8.671Y-10.1
X15.529Y-10.1
X80.671Y-50.5
X87.529Y-50.5
X145.171Y-37.1
X152.029Y-37.1
X121.171Y-37.1
X128.029Y-37.1
X142.671Y-10.1
X149.529Y-10.1
X97.171Y-37.1
X104.029Y-37.1
X6.771Y-64.1
X13.629Y-64.1
X104.671Y-50.5
X111.529Y-50.5
X18.771Y-23.5
X25.629Y-23.5
T3
X40.0Y-70.0
X136.0Y-29.7
X176.1Y-43.0
X140.1Y-3.4
X104.2Y-3.4
X106.6Y-43.1
X68.2Y-3.4
X4.2Y-43.1
X4.2Y-3.4
X103.9Y-71.6
X140.0Y-70.1
X4.2Y-70.0
X68.1Y-71.6
X64.1Y-29.7
X32.3Y-3.4
X28.1Y-29.7
X176.0Y-3.4
X176.0Y-70.1
T0
M30
